<?xml version="1.0" standalone="no"?>
<!DOCTYPE svg PUBLIC "-//W3C//DTD SVG 1.1//EN" "http://www.w3.org/Graphics/SVG/1.1/DTD/svg11.dtd" >
<svg xmlns="http://www.w3.org/2000/svg" xmlns:xlink="http://www.w3.org/1999/xlink" version="1.1">
<metadata>
Created by FontForge 20190801 at Tue Mar 23 05:54:58 2004
 By Jimmy Wärting
(c) 1993-1999 Apple Computer, Inc.
</metadata>
<defs>
<font id="AppleChancery" horiz-adv-x="1138" >
  <font-face 
    font-family="Apple Chancery"
    font-weight="400"
    font-style="italic"
    font-stretch="normal"
    units-per-em="2048"
    panose-1="3 2 7 2 4 5 6 6 5 4"
    ascent="1624"
    descent="-424"
    x-height="957"
    cap-height="1345"
    bbox="-2223.86 -952 3380 2289"
    underline-thickness="102"
    underline-position="-255"
    slope="-6"
    unicode-range="U+0008-FE60"
  />
<missing-glyph horiz-adv-x="1536" 
d="M256 0v1280h1024v-1280h-1024zM320 64h896v1152h-896v-1152z" />
    <glyph glyph-name="f_i" unicode="fi" horiz-adv-x="1097" 
d="M882 1086l84 207q112 46 184 127q11 -14 11 -29q0 -134 -279 -305zM423 815l-80 -809q-28 -275 -84.5 -419t-181.5 -259q-185 -169 -416 -169q-46 0 -118 25l133 122q86 -28 154 -28q295 0 342 447l25 248l84 842h-181l114 116h79l6 58q37 370 213.5 576.5t456.5 206.5
q53 0 120 -10l-140 -138q-76 29 -148 29q-172 0 -245 -119t-106 -456l-15 -147h613q-5 -18 -6 -22l-12 -53q-12 -53 -13 -64l-66 -455l-9 -64q-13 -95 -13 -127q0 -43 25 -43q84 0 172 188q27 -16 27 -32q0 -35 -86 -141q-117 -144 -217 -144q-73 0 -73 98q0 30 7 83l10 80
l13 88l71 492h-455z" />
    <glyph glyph-name="f_l" unicode="fl" horiz-adv-x="1214" 
d="M282 815h-182l115 116h78q47 359 221.5 554.5t448.5 195.5q131 0 264 -49q186 140 344 140q60 0 100 -10l-147 -145q-46 16 -110 16q-150 0 -227.5 -105t-113.5 -358l-121 -838q-15 -109 -15 -154q0 -75 29 -75q36 0 88 60.5t77 130.5q28 -14 28 -34q0 -71 -111.5 -178.5
t-186.5 -107.5q-78 0 -78 108q0 66 14 161l13 89l100 696q39 270 181 466q-105 71 -267 71q-184 0 -267 -120t-113 -432l-9 -82h382l-120 -116h-273l-82 -816q-30 -306 -106 -468t-240 -273q-158 -106 -337 -106q-45 0 -116 25l133 122q85 -28 153 -28q296 0 342 447l26 248
z" />
    <glyph glyph-name="f_f" unicode="ff" horiz-adv-x="1241" 
d="M30 -712q-172 -129 -371 -129q-43 0 -116 25l134 122q85 -28 153 -28q298 0 342 447l24 248l85 842h-181l114 116h78q32 363 209.5 560t473.5 197q133 0 232 -41q181 125 364 125q53 0 119 -10l-140 -138q-75 29 -147 29q-170 0 -245 -122.5t-108 -452.5l-15 -147h407
l-119 -116h-300l-81 -815q-35 -342 -217.5 -549.5t-449.5 -207.5q-123 0 -245 45zM434 931h459l6 62q37 374 196 540q-96 44 -237 44q-201 0 -291 -107.5t-117 -381.5zM881 815h-458l-82 -815q-25 -250 -65 -369.5t-137 -233.5q101 -44 217 -44q239 0 320 113.5t120 500.5z
" />
    <glyph glyph-name="f_f_i" unicode="ffi" horiz-adv-x="1699" 
d="M1023 815l-81 -815q-35 -342 -217.5 -549.5t-449.5 -207.5q-123 0 -245 45q-172 -129 -371 -129q-43 0 -116 25l134 122q85 -28 153 -28q298 0 342 447l24 248l85 842h-181l114 116h78q32 363 209.5 560t473.5 197q133 0 232 -41q181 125 364 125q53 0 119 -10l-140 -138
q-75 29 -147 29q-170 0 -245 -122.5t-108 -452.5l-15 -147h615q-6 -18 -6 -22l-12 -53q-12 -53 -14 -64l-65 -455l-9 -64q-13 -95 -13 -127q0 -43 24 -43q84 0 173 188q27 -16 27 -31q0 -36 -86 -142q-118 -144 -217 -144q-74 0 -74 97q0 41 31 252l70 492h-456zM434 931
h459l6 62q37 374 196 540q-96 44 -237 44q-201 0 -291 -107.5t-117 -381.5zM881 815h-458l-82 -815q-25 -250 -65 -369.5t-137 -233.5q101 -44 217 -44q239 0 320 113.5t120 500.5zM1483 1086l85 207q112 46 184 127q10 -14 10 -29q0 -134 -279 -305z" />
    <glyph glyph-name="f_f_l" unicode="ffl" horiz-adv-x="1786" 
d="M1806 1619q-123 54 -253 54q-233 0 -352.5 -141t-150.5 -454l-15 -147h407l-119 -116h-300l-81 -815q-35 -342 -217.5 -549.5t-449.5 -207.5q-123 0 -245 45q-172 -129 -371 -129q-43 0 -116 25l134 122q85 -28 153 -28q298 0 342 447l24 248l85 842h-181l114 116h78
q31 353 206.5 555.5t450.5 202.5q167 0 289 -56q183 139 477 139q167 0 319 -67q-171 -77 -258 -203.5t-110 -331.5l-93 -838q-11 -98 -11 -141q0 -88 32 -88q36 0 86 60t73 131q29 -14 29 -36q0 -72 -107.5 -178t-180.5 -106q-82 0 -82 120q0 73 8 149l11 89l78 696
q40 362 297 591zM881 815h-458l-82 -815q-25 -250 -65 -369.5t-137 -233.5q101 -44 217 -44q239 0 320 113.5t120 500.5zM1120 1526q-115 51 -256 51q-206 0 -296 -106.5t-118 -382.5l-16 -157h459q28 347 227 595z" />
    <glyph glyph-name="f_j" unicode="fj" horiz-adv-x="1098" 
d="M104 -815q14 13 20 18l47 42q56 50 120 50q22 0 48 -8q10 -3 15 -5l21 -5q36 -8 64 -8q165 0 231 143.5t112 598.5l80 804h-439l-81 -809q-27 -275 -83.5 -419t-182.5 -259q-185 -169 -415 -169q-46 0 -118 25l133 122q85 -28 154 -28q295 0 341 447l26 248l84 842h-181
l114 116h79l6 58q36 370 213 576.5t457 206.5q53 0 119 -10l-140 -138q-75 29 -147 29q-172 0 -245 -119t-106 -456l-15 -147h581l-92 -920q-43 -428 -185 -606q-197 -245 -476 -245q-97 0 -159 25zM940 1086l46 190q126 56 190 141q11 -22 11 -35q0 -41 -74 -130t-173 -166
z" />
    <glyph glyph-name="f_r" unicode="fr" horiz-adv-x="1432" 
d="M1011 536q222 421 436 421q57 0 113 -26l-141 -154q-32 18 -82 18q-104 0 -219.5 -168.5t-135.5 -350.5l-27 -244l-148 -50l3 30l7 65l8 65l74 673h-457l-90 -816q-31 -275 -89 -418t-185 -257q-184 -165 -414 -165q-48 0 -121 26l135 121q87 -30 156 -30q293 0 343 443
l29 248l94 848h-182l116 116h79l7 65q41 368 217.5 571.5t452.5 203.5q62 0 128 -10l-141 -137q-78 31 -151 31q-170 0 -243.5 -118.5t-110.5 -452.5l-17 -153h599z" />
    <glyph glyph-name="f_u" unicode="fu" horiz-adv-x="1733" 
d="M442 815l-90 -816q-31 -275 -89 -418t-185 -257q-184 -165 -414 -165q-48 0 -121 26l135 121q87 -30 156 -30q293 0 343 443l29 248l94 848h-182l116 116h79l7 65q41 368 217.5 571.5t452.5 203.5q62 0 128 -10l-141 -137q-78 31 -151 31q-170 0 -243.5 -118.5
t-110.5 -452.5l-17 -153h599l-66 -598q-8 -73 -8 -148q0 -69 51 -69q113 0 255 186t168 368l35 237l162 55q-29 -116 -42 -207l-60 -418q-6 -38 -9 -64l-7 -55q-6 -51 -6 -72q0 -43 25 -43q85 0 172 188q27 -16 27 -32q0 -35 -86 -141q-117 -144 -217 -144q-73 0 -73 98
q0 31 7 83l10 80q9 65 12 88l10 70q-114 -175 -256.5 -297t-233.5 -122q-98 0 -98 132q0 49 12 161l61 548h-457z" />
    <glyph glyph-name="f_y" unicode="fy" horiz-adv-x="1628" 
d="M442 815l-90 -816q-31 -275 -89 -418t-185 -257q-184 -165 -414 -165q-48 0 -121 26l135 121q87 -30 156 -30q293 0 343 443l29 248l94 848h-182l116 116h79l7 65q41 368 217.5 571.5t452.5 203.5q62 0 128 -10l-141 -137q-78 31 -151 31q-170 0 -243.5 -118.5
t-110.5 -452.5l-17 -153h535v-48l-2 -117v-135l1 -136l3 -106l1 -47q0 -200 65 -200q82 0 201.5 185.5t154.5 364.5l38 204l179 62q-35 -88 -71 -266l-134 -671q-79 -394 -244 -582q-247 -280 -572 -280q-68 0 -153 30l124 135q94 -42 196 -42q207 0 311 135t174 495l94 486
q-101 -184 -211.5 -304t-179.5 -120q-106 0 -106 202l-6 137l-1 51l-3 108l-3 287v56h-404z" />
    <glyph glyph-name="l_l" unicode="ll" horiz-adv-x="1108" 
d="M1024 1531q-99 46 -200 46q-203 0 -293 -107t-117 -382l-15 -157l-67 -599q-11 -97 -11 -139q0 -90 31 -90q37 0 87 59.5t73 131.5q29 -14 29 -36q0 -72 -107.5 -178t-180.5 -106q-83 0 -83 120q0 73 9 149l11 89l66 599l7 64q32 310 211.5 501t437.5 191q125 0 227 -44
q165 128 331 128q56 0 96 -9l-142 -145q-46 16 -110 16q-150 0 -224.5 -105.5t-102.5 -357.5l-93 -838q-11 -97 -11 -141q0 -88 32 -88q36 0 86.5 60t72.5 131q29 -14 29 -36q0 -72 -107.5 -178t-180.5 -106q-82 0 -82 122q0 71 8 147l11 89l78 696q33 302 194 503z" />
    <glyph glyph-name="t_h" unicode="th" horiz-adv-x="1687" 
d="M852 815h-432l-50 -442q-13 -119 -13 -176q0 -113 77 -113q83 0 172 136q15 -19 15 -34q0 -56 -98.5 -134t-169.5 -78q-142 0 -142 182q0 67 17 217l49 442h-211l117 116h107l21 182l147 49l-25 -231h432q35 346 172 539q215 301 504 301q49 0 96 -11l-147 -144
q-57 17 -107 17q-298 0 -350 -464l-68 -617q117 176 257.5 290.5t239.5 114.5q98 0 98 -136q0 -39 -12 -122l-54 -373q-16 -111 -16 -178q0 -51 29 -51q70 0 169 184q24 -15 24 -31q0 -66 -111.5 -171t-181.5 -105q-78 0 -78 112q0 82 21 227l35 242q17 119 17 188
q0 78 -55 78q-128 0 -259.5 -174t-153.5 -372l-27 -240l-149 -61l3 28l8 74l8 70z" />
    <glyph glyph-name="t_i" unicode="ti" horiz-adv-x="1142" 
d="M420 815l-50 -442q-13 -119 -13 -176q0 -113 77 -113q83 0 172 136q15 -19 15 -34q0 -56 -98.5 -134t-169.5 -78q-142 0 -142 182q0 67 17 217l49 442h-211l117 116h107l21 182l147 49l-25 -231h574l-66 -594l-7 -64q-9 -85 -9 -120q0 -50 26 -50q85 0 167 188
q28 -16 28 -33q0 -35 -82 -140q-113 -144 -212 -144q-77 0 -77 106q0 39 13 155l9 88l55 492h-432zM926 1086l84 207q112 46 184 127q11 -14 11 -29q0 -134 -279 -305z" />
    <glyph glyph-name="t_r" unicode="tr" horiz-adv-x="1385" 
d="M420 815l-50 -442q-13 -119 -13 -176q0 -113 77 -113q83 0 172 136q15 -19 15 -34q0 -56 -98.5 -134t-169.5 -78q-142 0 -142 182q0 67 17 217l49 442h-211l117 116h107l21 182l147 49l-25 -231h574l-44 -395q224 421 437 421q56 0 112 -26l-140 -154q-31 18 -83 18
q-104 0 -219 -168.5t-136 -350.5l-27 -244l-148 -50l4 30l7 65l7 65l75 673h-432z" />
    <glyph glyph-name="t_t" unicode="tt" horiz-adv-x="1295" 
d="M861 931l39 352l147 49l-44 -401h424l-117 -116h-320l-49 -442q-13 -119 -13 -175q0 -114 77 -114q83 0 172 136q15 -19 15 -34q0 -56 -98.5 -134t-169.5 -78q-142 0 -142 182q0 64 9 149l8 68l49 442h-428l-50 -442q-13 -119 -13 -176q0 -113 77 -113q83 0 172 136
q15 -19 15 -34q0 -56 -98.5 -134t-169.5 -78q-142 0 -142 182q0 67 17 217l49 442h-211l117 116h107l21 182l147 49l-25 -231h428z" />
    <glyph glyph-name="t_y" unicode="ty" horiz-adv-x="1643" 
d="M420 815l-49 -442q-14 -119 -14 -176q0 -113 78 -113q83 0 171 136q15 -19 15 -34q0 -56 -98.5 -134t-168.5 -78q-142 0 -142 182q0 67 16 217l50 442h-212l117 116h107l21 182l147 49l-25 -231h572v-48l-3 -117l1 -135l1 -136l3 -106l1 -47q0 -200 65 -200
q81 0 201 185.5t154 364.5l39 204l178 62q-34 -87 -70 -266l-134 -671q-79 -394 -244 -582q-247 -280 -572 -280q-68 0 -153 30l123 135q94 -42 196 -42q208 0 312 134.5t174 495.5l94 486q-102 -186 -212 -305t-180 -119q-106 0 -106 202l-5 137l-1 51l-3 108l-3 290v53
h-441z" />
    <glyph glyph-name="t_e" unicode="te" horiz-adv-x="1408" 
d="M420 815l-50 -442q-13 -119 -13 -176q0 -113 77 -113q83 0 172 136q15 -19 15 -34q0 -56 -98.5 -134t-169.5 -78q-142 0 -142 182q0 67 17 217l49 442h-211l117 116h107l21 182l147 49l-25 -231h723q67 26 104 26q126 0 126 -131q0 -147 -143 -287t-348 -195
q21 -241 190 -241q168 0 275 215q26 -17 26 -40q0 -31 -65 -106q-170 -198 -338 -198q-102 0 -168 81t-66 207q0 133 70.5 288.5t180.5 264.5h-580zM900 466q29 -10 52 -10q124 0 217 76t93 177q0 118 -119 118q-86 0 -156 -103.5t-87 -257.5z" />
    <glyph glyph-name="t_o" unicode="to" horiz-adv-x="1531" 
d="M1005 815h-585l-50 -442q-13 -119 -13 -176q0 -113 77 -113q83 0 172 136q15 -19 15 -34q0 -56 -98.5 -134t-169.5 -78q-142 0 -142 182q0 67 17 217l49 442h-211l117 116h107l21 182l147 49l-25 -231h739q69 26 122 26q230 0 230 -298q0 -240 -176 -462.5t-365 -222.5
q-228 0 -228 298q0 295 250 543zM1101 86q115 0 192.5 128t77.5 319q0 312 -195 312q-114 0 -191 -128.5t-77 -318.5q0 -312 193 -312z" />
    <glyph glyph-name="orn.zigzag" unicode="&#xf04d;&#xf04c;&#xf04e;" horiz-adv-x="2241" 
d="M104 287q-29 7 -29 31q0 68 126 192q137 134 316 134q119 0 192 -55t73 -144v-14l286 237q-3 -17 -3 -24q3 -52 43 -92l18 -18q45 -44 45 -112l303 255q-5 -23 -5 -37q0 -31 32 -72l21 -27l30 -35q24 -30 24 -79q268 229 486 229q177 0 177 -117q0 -72 -86 -159t-158 -87
q-14 0 -21 25q128 56 128 146q0 98 -133 98q-105 0 -246.5 -83t-267.5 -218q8 48 8 61q0 53 -38 99l-19 22l-25 26q-17 18 -28 49l-303 -269q9 49 9 69q0 64 -38 106l-16 18l-23 27l-18 19q-6 8 -12 28l-311 -270q27 58 27 98q0 80 -64.5 133.5t-160.5 53.5
q-233 0 -339 -244z" />
    <glyph glyph-name=".notdef" horiz-adv-x="1536" 
d="M256 0v1280h1024v-1280h-1024zM320 64h896v1152h-896v-1152z" />
    <glyph glyph-name=".null" horiz-adv-x="0" 
 />
    <glyph glyph-name=".null" horiz-adv-x="0" 
 />
    <glyph glyph-name=".null" horiz-adv-x="0" 
 />
    <glyph glyph-name="nonmarkingreturn" unicode="&#x9;" horiz-adv-x="1536" 
 />
    <glyph glyph-name="nonmarkingreturn" unicode="&#xd;" horiz-adv-x="1536" 
 />
    <glyph glyph-name="nonmarkingreturn" unicode="&#xa;" horiz-adv-x="1536" 
 />
    <glyph glyph-name="space" unicode=" " horiz-adv-x="569" 
 />
    <glyph glyph-name="exclam" unicode="!" horiz-adv-x="525" 
d="M374 488l-126 -95l12 167q16 215 16 377q0 254 -39 415l182 70q12 -87 12 -176q0 -181 -25 -420q-13 -127 -15 -141zM253 -39q-45 95 -117 142l148 141q66 -49 115 -141z" />
    <glyph glyph-name="quote.double" unicode="&#x22;" horiz-adv-x="712" 
d="M220 771v494l142 105v-504zM556 771v494l142 105v-504z" />
    <glyph glyph-name="numbersign" unicode="#" 
d="M381 317h-308l77 77h254l64 207h-312l77 78h259l100 329l111 109l-134 -438h207l101 330l111 108l-135 -438h321l-75 -78h-269l-64 -207h325l-76 -77h-272l-97 -317l-111 -110l130 427h-207l-97 -317l-110 -108zM482 394h207l63 207h-207z" />
    <glyph glyph-name="dollar" unicode="$" horiz-adv-x="794" 
d="M38 67l106 100q95 -78 238 -100l46 416l-45 30q-172 117 -172 231q0 211 275 264l27 238l72 67l-34 -305l48 1q136 0 230 -31l-94 -96q-71 50 -190 71l-38 -342l53 -38q185 -134 185 -245q0 -102 -92 -194t-212 -111l-29 -264l-72 -69l35 317q-60 -7 -87 -7
q-125 0 -250 67zM481 955q-157 0 -157 -132q0 -76 124 -162zM446 67q187 25 187 185q0 76 -111 163l-34 26z" />
    <glyph glyph-name="percent" unicode="%" horiz-adv-x="1504" 
d="M176 595q0 166 123.5 302.5t273.5 136.5q177 0 177 -206q0 -159 -125.5 -294.5t-273.5 -135.5q-75 0 -125 56t-50 141zM284 676q0 -211 164 -211q80 0 136.5 85.5t56.5 204.5q0 95 -41 153.5t-108 58.5q-91 0 -149.5 -81.5t-58.5 -209.5zM345 -155l796 1235l130 84
l-797 -1237zM867 171q0 166 123.5 302.5t273.5 136.5q176 0 176 -206q0 -159 -125 -294.5t-272 -135.5q-76 0 -126 56t-50 141zM975 253q0 -212 164 -212q79 0 136 85.5t57 204.5q0 212 -149 212q-91 0 -149.5 -81.5t-58.5 -208.5z" />
    <glyph glyph-name="ampersand" unicode="&#x26;" horiz-adv-x="1812" 
d="M915 118q-209 -159 -442 -159q-159 0 -257.5 94t-98.5 245q0 291 413 483q-64 162 -64 260q0 148 101.5 246t255.5 98q224 0 224 -198q0 -183 -359 -382q11 -24 13 -29l27 -55q34 -70 51 -100q151 159 467 159h137l72 1q177 0 252 43.5t75 146.5q0 60 -59 120l111 112
q42 -56 42 -142q0 -190 -161.5 -303t-431.5 -113h-18q-51 -235 -240 -425q101 -141 187 -141q69 0 144 104q16 -14 16 -33q0 -52 -85.5 -121.5t-149.5 -69.5q-94 0 -222 159zM673 841q235 138 235 315q0 69 -48 119t-114 50q-152 0 -152 -190q0 -102 79 -294zM888 152
l-24 33q-162 229 -292 520l-17 38q-261 -127 -261 -381q0 -138 91 -227t231 -89q136 0 272 106zM996 256q134 194 150 389h-29q-215 0 -319 -57q18 -33 21 -39l68 -117q75 -129 109 -176z" />
    <glyph glyph-name="quote.single" unicode="'" horiz-adv-x="376" 
d="M220 771v494l142 105v-504z" />
    <glyph glyph-name="paren.left" unicode="(" horiz-adv-x="696" 
d="M569 -427q-368 450 -368 1010q0 763 675 1227l25 -37q-545 -426 -545 -1107q0 -540 340 -964z" />
    <glyph glyph-name="paren.right" unicode=")" horiz-adv-x="696" 
d="M269 1810q368 -451 368 -1009q0 -763 -675 -1228l-25 37q545 426 545 1107q0 539 -340 965z" />
    <glyph glyph-name="asterisk" unicode="*" horiz-adv-x="914" 
d="M445 561l39 360l-230 -175l-139 -35l343 258q-149 101 -286 257l121 70q79 -102 210 -211l30 271l111 68l-38 -339l250 183l127 28l-382 -286l34 -20q193 -112 323 -165l-141 -84q-136 63 -234 138l-28 -253z" />
    <glyph glyph-name="plus" unicode="+" 
d="M561 446h-464l119 123h359l38 346l130 119l-52 -465h463l-119 -123h-358l-39 -353l-129 -119z" />
    <glyph glyph-name="comma" unicode="," horiz-adv-x="423" 
d="M83 -362l-25 28q153 111 153 243q0 110 -121 189l141 140q122 -91 122 -216q0 -178 -270 -384z" />
    <glyph glyph-name="hyphen" unicode="-" horiz-adv-x="741" 
d="M126 420l130 130h467l-129 -130h-468z" />
    <glyph glyph-name="period" unicode="." horiz-adv-x="423" 
d="M208 -42q-44 95 -117 142l148 141q65 -49 116 -141z" />
    <glyph glyph-name="slash" unicode="/" horiz-adv-x="888" 
d="M-215 -427l1387 2153l195 84l-1388 -2155z" />
    <glyph glyph-name="zero" unicode="0" horiz-adv-x="1056" 
d="M143 303q0 276 190 503.5t420 227.5q122 0 197 -94.5t75 -248.5q0 -265 -192.5 -491t-418.5 -226q-118 0 -194.5 93t-76.5 236zM872 571q0 161 -72 260.5t-188 99.5q-131 0 -223.5 -143.5t-92.5 -346.5q0 -164 71.5 -263.5t188.5 -99.5q131 0 223.5 144t92.5 349z" />
    <glyph glyph-name="one" unicode="1" horiz-adv-x="882" 
d="M397 78l93 831q-98 -69 -162 -105l-106 -62q-3 -2 -24 -14l11 96q198 71 440 241l-110 -987h251l-97 -78h-577l99 78h182z" />
    <glyph glyph-name="two" unicode="2" horiz-adv-x="1144" 
d="M88 0l124 122q271 65 439 220t168 340q0 107 -79 177t-200 70q-146 0 -282 -108q-9 21 -9 27q0 53 157 119.5t281 66.5q123 0 216 -78t93 -181q0 -140 -168.5 -330t-411.5 -323l586 -29l-117 -119z" />
    <glyph glyph-name="three" unicode="3" horiz-adv-x="944" 
d="M488 456q332 -54 332 -305q0 -178 -176 -319.5t-396 -141.5q-122 0 -237 37l118 127q143 -61 264 -61q131 0 217 74.5t86 188.5q0 136 -122.5 217t-329.5 81q-32 0 -70 -8l119 117h33q16 0 49 -1q318 79 318 300q0 84 -57.5 137t-148.5 53q-144 0 -239 -96q-10 19 -10 28
q0 47 114 98.5t217 51.5q126 0 206.5 -62t80.5 -159q0 -198 -368 -357z" />
    <glyph glyph-name="four" unicode="4" horiz-adv-x="1266" 
d="M800 75l-742 63l995 938l-98 -885l249 -20l-114 -119l-149 11l-35 -312l-149 -61l3 28l8 74l8 70zM814 204l67 604l-601 -557z" />
    <glyph glyph-name="five" unicode="5" horiz-adv-x="989" 
d="M38 -276l127 130q142 -59 251 -59q140 0 227 77.5t87 200.5q0 145 -121.5 233.5t-320.5 88.5q-38 0 -90 -6l74 466l146 153h556l-120 -122h-450l-59 -343q489 -34 489 -362q0 -200 -164 -345.5t-390 -145.5q-142 0 -242 34z" />
    <glyph glyph-name="six" unicode="6" horiz-adv-x="1161" 
d="M344 478q73 130 195 210t249 80q120 0 196 -84t76 -216q0 -190 -150 -342t-337 -152q-168 0 -276 127t-108 324q0 343 251 618.5t564 275.5q116 0 234 -35l-133 -128q-117 73 -246 73q-195 0 -326 -163q-78 -97 -133.5 -259.5t-55.5 -294.5v-34zM357 379
q64 -321 311 -321q110 0 185 80.5t75 198.5q0 138 -73 228.5t-186 90.5q-228 0 -312 -277z" />
    <glyph glyph-name="seven" unicode="7" horiz-adv-x="1042" 
d="M336 -238l-195 -72q84 440 734 1138l49 53l-714 14l129 128l813 -15l-129 -127q-307 -289 -484.5 -578.5t-202.5 -540.5z" />
    <glyph glyph-name="eight" unicode="8" horiz-adv-x="1058" 
d="M474 703l-21 18q-174 142 -174 261q0 131 124.5 234t282.5 103q124 0 203 -69t79 -176q0 -157 -239 -325l-40 -28l23 -18q238 -182 238 -311q0 -153 -152 -285.5t-327 -132.5q-141 0 -238.5 88.5t-97.5 216.5q0 231 339 424zM656 751q170 91 170 268q0 101 -68 165
t-176 64q-87 0 -142.5 -48t-55.5 -123q0 -115 228 -292zM502 679q-226 -162 -226 -313q0 -116 96.5 -202t226.5 -86q93 0 161.5 62.5t68.5 147.5q0 128 -290 362z" />
    <glyph glyph-name="nine" unicode="9" horiz-adv-x="1161" 
d="M920 453q-72 -130 -194.5 -210t-249.5 -80q-119 0 -195 84t-76 216q0 190 149.5 342t336.5 152q168 0 276 -127t108 -324q0 -343 -251 -618.5t-564 -275.5q-115 0 -233 35l132 128q117 -73 246 -73q195 0 326 162q79 98 134.5 260.5t55.5 294.5zM908 552
q-65 321 -312 321q-109 0 -184 -80.5t-75 -198.5q0 -138 73 -228.5t185 -90.5q228 0 313 277z" />
    <glyph glyph-name="colon" unicode=":" horiz-adv-x="423" 
d="M208 -42q-43 94 -117 142l148 141q65 -49 116 -141zM288 674q-45 95 -118 141l149 142q65 -51 115 -142z" />
    <glyph glyph-name="semicolon" unicode=";" horiz-adv-x="423" 
d="M275 674q-44 95 -117 141l149 142q66 -51 115 -142zM82 -362l-25 28q153 111 153 243q0 110 -121 189l141 140q122 -91 122 -216q0 -178 -270 -384z" />
    <glyph glyph-name="less" unicode="&#x3c;" 
d="M104 443l106 107l955 484l-158 -163l-735 -356q382 -147 753 -449l-95 -92q-332 279 -826 469z" />
    <glyph glyph-name="equal" unicode="=" 
d="M118 602l119 110h911l-118 -110h-912zM86 304l134 109h912l-119 -109h-927z" />
    <glyph glyph-name="greater" unicode="&#x3e;" 
d="M1132 566l-106 -108l-955 -484l158 163l735 357q-383 146 -753 448l95 92q333 -278 826 -468z" />
    <glyph glyph-name="question" unicode="?" horiz-adv-x="745" 
d="M401 528l-167 -151q-15 40 -15 88q0 174 179 327l57 47l22 20q168 146 168 281q0 205 -218 205q-88 0 -208 -64q-10 17 -10 23q0 39 113.5 78.5t221.5 39.5q293 0 293 -224q0 -156 -224 -301q-68 -44 -86 -60l-25 -23q-110 -100 -110 -224q0 -27 9 -62zM261 -39
q-45 95 -117 142l148 141q65 -49 115 -141z" />
    <glyph glyph-name="at" unicode="@" horiz-adv-x="1418" 
d="M910 615q-68 -121 -162 -206.5t-158 -85.5q-107 0 -107 176q0 209 145 366t339 157q46 0 103 -10l-25 -229l-9 -83q-8 -73 -8 -132q0 -88 21 -119t81 -31q94 0 154.5 118t60.5 301q0 471 -423 471q-295 0 -479 -223t-184 -581q0 -460 317 -460q196 0 294 151
q18 -22 18 -36q0 -63 -135.5 -131.5t-261.5 -68.5q-351 0 -351 468q0 410 251 684t626 274q441 0 441 -442q0 -244 -123.5 -429t-285.5 -185q-145 0 -145 215q0 20 2 34zM943 915q-63 9 -106 9q-98 0 -160.5 -99.5t-62.5 -256.5q0 -109 58 -109q87 0 167.5 125.5t99.5 289.5
z" />
    <glyph glyph-name="A" unicode="A" horiz-adv-x="1469" 
d="M319 774l-157 -151q-41 107 -41 207q0 248 215 400q180 128 616 128q74 0 130 -3q155 -10 159 -10h70q-78 -122 -78 -494l1 -52l4 -115q0 -207 51 -424q20 -84 39 -108t66 -24q51 0 116 33q7 -17 7 -28q0 -25 -39 -43l-47 -23l-246 -107q-82 253 -99 530l-76 -53h-336
q-92 -234 -252 -334l207 -10l-108 -114l-399 14l133 120l100 -6q68 50 116 140.5t143 350.5l30 83q92 251 175 365.5t226 188.5q-157 29 -331 29q-443 0 -443 -299q0 -102 48 -191zM1084 545q-14 174 -14 282q0 55 2 90l8 116q8 119 22 182q-196 -120 -322 -490
q-36 -107 -42 -123l-23 -57h369z" />
    <glyph glyph-name="B" unicode="B" horiz-adv-x="1477" 
d="M198 24l127 135l31 -7q60 -15 114 -22q81 50 109.5 120.5t51.5 274.5l84 753q-208 -15 -332 -112t-124 -244q0 -88 44 -166l-161 -142q-21 77 -21 156q0 270 230.5 442.5t589.5 172.5q463 0 463 -266q0 -227 -299 -363q292 -114 292 -350q0 -192 -195 -306t-522 -114
q-201 0 -482 38zM877 1286l-59 -530q59 -5 102 -5q48 0 115 7q213 123 213 296q0 232 -371 232zM809 676l-15 -134l-9 -84q-17 -149 -59.5 -209.5t-180.5 -130.5q198 -32 391 -32q312 0 312 248q0 107 -85.5 206.5t-208.5 135.5l-26 -1l-48 -2l-44 2z" />
    <glyph glyph-name="C" unicode="C" horiz-adv-x="1275" 
d="M1171 349q23 -11 23 -32q0 -66 -121 -174q-205 -183 -466 -183q-211 0 -336.5 152.5t-125.5 409.5q0 367 235 615t583 248q177 0 367 -67l-67 -147l-19 -43q-24 -51 -59 -51q-7 0 -21 3q14 31 14 51q0 67 -89.5 117t-208.5 50q-244 0 -396.5 -193t-152.5 -502
q0 -239 107 -381t286 -142q129 0 257.5 77.5t189.5 191.5z" />
    <glyph glyph-name="D" unicode="D" horiz-adv-x="1727" 
d="M199 27l139 147q51 -19 142 -34q74 45 101 114.5t50 273.5l83 745q-453 -53 -453 -327q0 -82 44 -171l-162 -152q-22 49 -22 145q0 300 233.5 458.5t673.5 158.5q726 0 726 -505q0 -302 -204 -557q-271 -337 -826 -337q-233 0 -525 41zM878 1296l-84 -751l-10 -94
q-15 -131 -56 -191t-161 -130q219 -30 409 -30q177 0 273.5 49.5t188.5 187.5q129 192 129 431q0 528 -656 528h-33z" />
    <glyph glyph-name="E" unicode="E" horiz-adv-x="1497" 
d="M313 770l-162 -156q-24 80 -24 152q0 280 233 453q170 126 484 126h330q186 0 380 13l-81 -205l-16 -37q-25 -59 -64 -59q-6 0 -14 1q11 50 11 80q0 66 -69.5 82.5t-346.5 16.5h-97l-53 -484h195q169 0 300 16q-114 -137 -230 -137q-65 0 -184 10q-49 3 -69 3h-24
l-10 -87q-21 -190 -66.5 -270t-178.5 -161l219 -17l89 -8q94 -7 225 -7q221 0 368 143q17 -19 17 -36q0 -28 -107 -115q-156 -127 -341 -127q-171 0 -492 29l-373 34q-19 1 -135 8l183 138q99 -17 238 -30q98 38 132 108t57 282l79 708h-35q-194 0 -304 -79.5t-110 -219.5
q0 -81 46 -168z" />
    <glyph glyph-name="F" unicode="F" horiz-adv-x="1436" 
d="M812 706h214q149 0 307 27q-118 -141 -222 -141l-85 2l-97 2l-77 2h-52l-8 -73l-10 -88q-17 -141 -61.5 -204.5t-171.5 -123.5l277 -15l-120 -116l-474 22l129 124l108 -12q122 77 150 315l11 98l79 712h-34q-194 0 -304.5 -79.5t-110.5 -217.5q0 -83 46 -170l-162 -156
q-23 78 -23 152q0 280 233 453q170 126 483 126h331q186 0 379 13l-80 -205l-16 -37q-25 -59 -64 -59q-7 0 -15 1q12 51 12 80q0 66 -70 82.5t-347 16.5h-96z" />
    <glyph glyph-name="G" unicode="G" horiz-adv-x="1356" 
d="M1045 116q-226 -157 -445 -157q-207 0 -333.5 153t-126.5 404q0 371 234 620t584 249q177 0 367 -67l-67 -147l-19 -43q-24 -51 -59 -51q-7 0 -21 3q14 31 14 51q0 67 -89.5 117t-208.5 50q-249 0 -399 -195.5t-150 -518.5q0 -237 105 -370t292 -133q172 0 333 136
l41 361h-170q-173 0 -277 -34q50 102 94.5 128t167.5 26l101 1h266l-10 -41l-16 -63q-13 -56 -18 -97l-44 -402q-23 -203 -59 -303.5t-118 -185.5q-164 -172 -392 -172q-210 0 -327 144l149 118q92 -177 283 -177q144 0 207.5 90.5t91.5 332.5z" />
    <glyph glyph-name="H" unicode="H" horiz-adv-x="1734" 
d="M891 1345q-45 -229 -54 -308l-31 -277h558l4 36q65 581 230 790q202 256 448 256q92 0 171 -32l-148 -145q-84 57 -167 57q-169 0 -235 -167.5t-131 -758.5l-15 -136q-28 -263 -28 -407q0 -85 73 -85q54 0 134 46q4 -18 4 -25q0 -30 -53 -54l-58 -27l-294 -134
q0 185 48 629l4 36h-558l-10 -91l-13 -111q-17 -142 -61.5 -205t-170.5 -123l236 -15l-120 -116l-433 22l128 124l109 -12q79 51 109 127.5t52 284.5l77 700h-31q-416 0 -416 -275q0 -86 47 -173l-163 -156q-23 78 -23 155q0 258 192 414t510 156h79z" />
    <glyph glyph-name="I" unicode="I" horiz-adv-x="935" 
d="M307 776l-163 -156q-23 78 -23 155q0 258 192 414t510 156h79q-45 -229 -54 -308l-54 -489l-13 -111q-17 -142 -61.5 -205t-170.5 -123l290 -15l-120 -116l-487 22l128 124l109 -12q122 77 150 315l11 97l77 700h-31q-416 0 -416 -275q0 -86 47 -173z" />
    <glyph glyph-name="J" unicode="J" horiz-adv-x="931" 
d="M302 776l-163 -156q-23 78 -23 155q0 258 192 414t510 156h79q-45 -229 -54 -308l-88 -795q-40 -354 -192 -513q-172 -180 -411 -180q-226 0 -328 222l160 122q50 -256 281 -256q142 0 214 109t100 369l123 1109h-31q-416 0 -416 -275q0 -86 47 -173z" />
    <glyph glyph-name="K" unicode="K" horiz-adv-x="1641" 
d="M307 776l-163 -156q-23 78 -23 155q0 258 192 414t510 156h79q-45 -229 -54 -308l-33 -299q467 603 768 603q75 0 142 -20l-129 -140q-56 33 -125 33q-129 0 -269 -122t-228 -311q94 -182 219 -352l108 -146q108 -147 168 -147q81 0 148 117q27 -23 27 -38
q0 -59 -87.5 -143t-148.5 -84q-110 0 -310 284q-180 257 -283 465l-21 -189l-13 -111q-17 -142 -61.5 -205t-170.5 -123l236 -15l-120 -116l-433 22l128 124l109 -12q122 77 150 315l11 97l77 700h-31q-416 0 -416 -275q0 -86 47 -173z" />
    <glyph glyph-name="L" unicode="L" horiz-adv-x="1311" 
d="M-11 26l168 131q77 -14 130 -17q115 44 162 152.5t47 329.5l4 155q0 299 204 468q170 140 359 140q81 0 166 -37l-148 -145q-91 59 -180 59q-223 0 -223 -365l-4 -138q0 -283 -54 -414.5t-207 -217.5l207 -17l92 -7l111 -7q44 -3 99 -3q248 0 387 144q16 -20 16 -29
q0 -33 -96 -113q-164 -135 -352 -135q-77 0 -189 8l-297 22q-232 17 -402 36z" />
    <glyph glyph-name="M" unicode="M" horiz-adv-x="2029" 
d="M307 776l-163 -156q-23 78 -23 156q0 248 187.5 411.5t471.5 163.5q47 0 83 -4q24 -2 32 -2h13q-1 -29 -1 -42q0 -154 134 -496l45 -114q9 -24 29 -79l37 -104q30 -82 52 -163l52 86q86 143 154 260l98 169l76 140l92 168q13 23 51 94l193 121q-64 -373 -64 -599
l-13 -327l-3 -123q0 -156 20.5 -204.5t87.5 -48.5q71 0 127 20q9 -12 9 -21q0 -33 -68 -49l-53 -13l-284 -58q-5 94 -5 173q0 510 45 906q-138 -196 -208 -318l-60 -103q-123 -212 -199 -409l-144 -150q-14 189 -149 531l-39 101q-8 18 -36 88q-57 138 -85 264l-81 -495
q-36 -223 -75 -303.5t-138 -132.5l252 -19l-128 -117l-427 22l129 124l113 -10q66 49 94 120t65 287l120 703h-47q-416 0 -416 -275q0 -86 47 -173z" />
    <glyph glyph-name="N" unicode="N" horiz-adv-x="1807" 
d="M307 776l-162 -156q-24 78 -24 156q0 246 186.5 410.5t466.5 164.5q39 0 73 -3q38 -3 48 -3h11q-4 -35 -4 -50q0 -206 267 -524l75 -88l66 -79q105 -125 166 -230l67 543q63 497 231 697q192 228 424 228q87 0 172 -32l-148 -147q-91 53 -161 53q-155 0 -235.5 -142.5
t-125.5 -496.5l-106 -847l-126 -260q-46 184 -98 280t-207 282l-77 93q-178 215 -252 385l-50 -450l-12 -108q-16 -134 -51.5 -196.5t-141.5 -141.5l221 -20l-119 -116l-435 22l129 124l111 -10q76 55 105 119t46 212l9 87l77 692h-47q-416 0 -416 -275q0 -86 47 -173z" />
    <glyph glyph-name="O" unicode="O" horiz-adv-x="1404" 
d="M596 -41q-196 0 -320.5 154.5t-124.5 397.5q0 353 238.5 613.5t562.5 260.5q201 0 326 -152.5t125 -398.5q0 -356 -239.5 -615.5t-567.5 -259.5zM727 40q207 0 346.5 199t139.5 494q0 247 -109 409.5t-274 162.5q-209 0 -349 -198.5t-140 -495.5q0 -248 109 -409.5
t277 -161.5z" />
    <glyph glyph-name="P" unicode="P" horiz-adv-x="1370" 
d="M549 109l264 -15l-120 -116l-461 22l129 124l108 -12q122 77 150 315l11 97l85 758q-455 -86 -455 -343q0 -103 43 -183l-161 -142q-21 77 -21 156q0 272 231 443.5t598 171.5q492 0 492 -322q0 -204 -183 -349t-464 -162q-24 -233 -63 -304t-183 -139zM877 1294
l-71 -638q56 -10 98 -10q383 0 383 335q0 313 -410 313z" />
    <glyph glyph-name="Q" unicode="Q" horiz-adv-x="1418" 
d="M975 68l18 -18q501 -466 848 -466q78 0 129.5 46t51.5 116q0 32 -17 67l175 96q7 -28 7 -46q0 -136 -128.5 -241.5t-294.5 -105.5q-195 0 -464 131.5t-506 342.5q-110 -31 -211 -31q-191 0 -315 155.5t-124 396.5q0 353 238.5 613.5t562.5 260.5q202 0 326 -152t124 -399
q0 -492 -420 -766zM934 110q272 188 272 626q0 244 -109.5 406.5t-273.5 162.5q-209 0 -349 -198.5t-140 -495.5q0 -260 105.5 -409t298.5 -162l137 141q13 -15 17 -19l28 -36q3 -3 14 -16z" />
    <glyph glyph-name="R" unicode="R" horiz-adv-x="1612" 
d="M1147 676q20 -38 29 -57q159 -308 226 -405t124 -100q90 -5 140 138q33 -19 33 -41q0 -63 -84.5 -157t-141.5 -94q-83 0 -216 182t-264 476q-55 -5 -94 -5q-38 0 -96 5l-8 -66l-13 -115q-17 -143 -61 -205.5t-171 -122.5l236 -15l-120 -116l-433 22l128 124l109 -12
q121 77 150 315l11 97l84 758q-455 -86 -455 -343q0 -103 43 -183l-161 -142q-21 77 -21 156q0 271 231 443t595 172q494 0 494 -314q0 -229 -294 -395zM877 1289l-64 -580q80 -13 146 -13q62 0 135 13q179 128 179 310q0 270 -396 270z" />
    <glyph glyph-name="S" unicode="S" horiz-adv-x="1076" 
d="M86 177l170 103q40 -246 295 -246q124 0 203 67.5t79 173.5q0 145 -175 288l-121 98q-146 120 -195 189.5t-49 156.5q0 164 131 271t331 107q159 0 301 -76l-58 -133l-26 -59q-22 -52 -52 -52q-13 0 -27 10q17 52 17 83q0 64 -70.5 107t-174.5 43q-236 0 -236 -195
q0 -70 52.5 -134.5t218.5 -199.5l97 -80q185 -150 185 -315q0 -182 -153.5 -303t-383.5 -121q-280 0 -359 217z" />
    <glyph glyph-name="T" unicode="T" horiz-adv-x="1560" 
d="M307 776l-163 -156q-23 78 -23 153q0 275 229 445q171 127 471 127h597q371 0 371 229q0 80 -55 148l126 120q44 -60 44 -154q0 -197 -177.5 -330.5t-438.5 -133.5h-278l-75 -676l-12 -111q-17 -142 -61.5 -205t-171.5 -123l291 -15l-120 -116l-488 22l129 124l109 -12
q121 77 150 315l10 97l78 700h-170q-419 0 -419 -277q0 -84 47 -171z" />
    <glyph glyph-name="U" unicode="U" horiz-adv-x="1750" 
d="M307 776l-163 -156q-23 78 -23 155q0 258 192 414t510 156h146q-90 -174 -147 -416t-57 -448q0 -414 252 -414q170 0 274 164.5t135 482.5q14 145 19 189l42 377l198 103q-43 -165 -70 -407l-36 -320q-2 -17 -11 -113l-14 -139q-8 -79 -8 -136q0 -100 76 -100
q60 0 135 47l3 -12q2 -12 2 -19q0 -29 -55 -55l-59 -29l-294 -140l37 334q-214 -335 -461 -335q-338 0 -338 516q0 349 168 749h-84q-416 0 -416 -275q0 -86 47 -173z" />
    <glyph glyph-name="V" unicode="V" horiz-adv-x="1414" 
d="M888 132l-175 -172q-40 318 -141 721q-87 343 -134.5 444.5t-123.5 101.5q-131 0 -189 -200q-37 8 -35 40q3 62 76 178q88 140 224 140q112 0 174 -101.5t143 -417.5q90 -355 143 -633q437 612 437 853q0 94 -76 137l147 162q100 -56 100 -173q0 -148 -241 -531
l-113 -174l-82 -129q-7 -11 -49 -84l-46 -81q-10 -17 -39 -81z" />
    <glyph glyph-name="W" unicode="W" horiz-adv-x="1839" 
d="M499 -40q17 120 17 359q0 476 -42.5 696t-135.5 220q-60 0 -116 -63t-70 -146q-41 9 -41 36q0 102 98.5 212.5t189.5 110.5q92 0 139.5 -70.5t82.5 -259.5q53 -281 53 -648l1 -70l144 280l64 123l93 183q80 156 107 250l153 146q-7 -76 -7 -130q0 -170 69 -543l12 -65
l20 -104q20 -107 40 -231q29 54 36 70l81 168l98 199q122 253 122 395q0 96 -79 146l147 161q102 -67 102 -161q0 -125 -210 -538q-35 -69 -84 -168l-43 -88l-44 -101l-58 -130q-7 -17 -32 -80l-154 -163l-4 44q-20 210 -75 497l-12 60l-17 89q-19 97 -25 142l-19 137
q-2 15 -10 70l-135 -268l-55 -109q-151 -296 -231 -493z" />
    <glyph glyph-name="X" unicode="X" horiz-adv-x="1436" 
d="M716 648l-62 146l-38 94q-20 49 -49 108q-38 81 -45 96q-55 128 -109 128q-98 0 -166 -189q-32 8 -32 42q0 95 92 204t174 109q65 0 117 -75t151 -312l79 -190l34 60l64 113q230 403 461 403q77 0 145 -32l-144 -144q-42 24 -73 24q-91 0 -181 -100t-236 -363l-31 -56
l80 -192l45 -102l43 -101q90 -213 167 -213q112 0 163 172q37 -16 37 -43q0 -44 -60 -137q-90 -139 -204 -139q-82 0 -146.5 90t-181.5 369l-55 133l-22 -43q-287 -549 -582 -549q-63 0 -137 34l147 143q39 -21 84 -21q131 0 272 200q118 166 179 293z" />
    <glyph glyph-name="Y" unicode="Y" horiz-adv-x="1321" 
d="M195 0l140 124l122 -10q74 45 109.5 118t50.5 212l2 21q4 38 4 83q0 247 -102.5 478t-212.5 231q-83 0 -137 -126q-31 10 -31 39q0 61 81.5 138t146.5 77q135 0 252.5 -205t156.5 -508q82 299 250 506t329 207q63 0 122 -40l-113 -155q-43 27 -93 27
q-149 0 -304.5 -243.5t-189.5 -529.5l-2 -21q-15 -125 -57.5 -183.5t-171.5 -131.5l310 -14l-117 -116z" />
    <glyph glyph-name="Z" unicode="Z" horiz-adv-x="1207" 
d="M93 -40q-25 21 -25 43q0 31 48 91l48 59l859 1027q-44 -8 -74 -8q-98 0 -242 53l-46 17l-41 15q-49 18 -106 18q-147 0 -147 -227q0 -31 7 -72l-158 -100q-1 26 -1 37q0 192 133 332t316 140q65 0 164 -27l42 -12q85 -23 156 -23q135 0 194 62q25 -20 25 -42
q0 -28 -55 -88q-12 -13 -52 -61l-854 -1031q64 7 113 7q51 0 149 -14l76 -11l130 -22q102 -18 172 -18q176 0 224 134q37 -11 37 -30q0 -38 -60 -124q-86 -125 -227 -125q-45 0 -166 16l-92 12l-98 13q-90 13 -173 13q-141 0 -276 -54z" />
    <glyph glyph-name="bracket.left" unicode="[" horiz-adv-x="647" 
d="M127 -427l235 2116l123 121h479l-119 -116h-353l-223 -2004h467l-118 -117h-491z" />
    <glyph glyph-name="slash.back" unicode="\" horiz-adv-x="715" 
d="M554 -427l-527 2170l115 67l530 -2169z" />
    <glyph glyph-name="bracket.right" unicode="]" horiz-adv-x="647" 
d="M681 1810l-235 -2115l-123 -122h-479l119 117h353l223 2004h-467l117 116h492z" />
    <glyph glyph-name="circumflex.ascii" unicode="^" 
d="M690 1265l83 80q42 -246 136 -524t186 -428l-86 -83q-207 342 -313 840l-362 -666l-180 -174z" />
    <glyph glyph-name="underscore" unicode="_" 
d="M40 -103l11 103h1035l-12 -103h-1034z" />
    <glyph glyph-name="grave" unicode="`" horiz-adv-x="914" 
d="M769 1086q-123 79 -202 282l81 81q90 -194 208 -271z" />
    <glyph glyph-name="a" unicode="a" horiz-adv-x="1051" 
d="M728 397q-113 -186 -248.5 -304.5t-235.5 -118.5q-137 0 -137 221q0 304 199.5 526.5t472.5 222.5q104 0 177 -26q-5 -18 -6 -22l-12 -53q-12 -55 -13 -64l-64 -442l-9 -64q-13 -95 -13 -127q0 -43 25 -43q84 0 172 188q27 -16 27 -32q0 -35 -86 -141
q-117 -144 -217 -144q-73 0 -73 98q0 30 7 83l10 80l13 88zM785 794q-91 51 -184 51q-140 0 -235 -171t-95 -424q0 -130 77 -130q89 0 215 136q170 183 206 430z" />
    <glyph glyph-name="b" unicode="b" horiz-adv-x="993" 
d="M363 533q108 188 239 306t231 118q144 0 144 -245q0 -300 -190.5 -512.5t-459.5 -212.5q-34 0 -60 3l-81 8q-7 0 -38 2q22 76 31 159l96 863q35 311 230 530t436 219q50 0 96 -11l-147 -144q-57 17 -107 17q-298 0 -349 -464zM319 137q93 -51 186 -51q138 0 224 159.5
t86 415.5q0 149 -81 149q-90 0 -211 -135q-164 -183 -192 -430z" />
    <glyph glyph-name="c" unicode="c" horiz-adv-x="784" 
d="M803 931l-114 -137q-80 33 -153 33q-131 0 -206.5 -111t-75.5 -304q0 -136 54.5 -219t142.5 -83q149 0 234 195q22 -24 22 -45q0 -83 -129.5 -184.5t-237.5 -101.5q-104 0 -170.5 83.5t-66.5 216.5q0 259 176 471t391 212q78 0 133 -26z" />
    <glyph glyph-name="d" unicode="d" horiz-adv-x="1051" 
d="M775 942l10 86q36 320 218.5 532t420.5 212q57 0 98 -10l-142 -145q-47 16 -111 16q-150 0 -224 -105t-102 -358l-93 -833l-7 -64q-9 -85 -9 -121q0 -49 26 -49q83 0 167 188q27 -16 27 -32q0 -36 -81 -141q-113 -144 -212 -144q-77 0 -77 106q0 39 12 155l10 88l8 74
q-68 -150 -220.5 -286.5t-251.5 -136.5q-141 0 -141 221q0 289 195 519t440 230q12 0 39 -2zM759 799q-84 46 -154 46q-148 0 -244 -168t-96 -427q0 -130 76 -130q92 0 216 136q161 175 190 430z" />
    <glyph glyph-name="e" unicode="e" horiz-adv-x="761" 
d="M714 318q25 -17 25 -40q0 -31 -64 -106q-171 -198 -338 -198q-102 0 -168 81t-66 207q0 228 172.5 461.5t341.5 233.5q122 0 122 -131q0 -147 -142.5 -287t-347.5 -195q20 -241 190 -241q168 0 275 215zM253 466q29 -10 53 -10q124 0 217 76t93 178q0 117 -119 117
q-86 0 -155.5 -102.5t-88.5 -258.5z" />
    <glyph glyph-name="f" unicode="f" horiz-adv-x="639" 
d="M423 815l-81 -809q-27 -275 -83.5 -419t-182.5 -259q-185 -169 -415 -169q-46 0 -118 25l133 122q85 -28 154 -28q295 0 341 447l26 248l84 842h-181l114 116h79l6 58q36 370 213 576.5t457 206.5q53 0 119 -10l-140 -138q-75 29 -147 29q-172 0 -245 -119t-106 -456
l-15 -147h405l-119 -116h-298z" />
    <glyph glyph-name="g" unicode="g" horiz-adv-x="955" 
d="M766 794q-72 51 -181 51q-137 0 -231.5 -172t-94.5 -423q0 -130 77 -130q88 0 215 136q176 189 202 428zM937 918q-5 -18 -6 -22l-11 -53q-13 -58 -14 -64l-40 -366q-10 -92 -21 -323q-14 -289 -55 -428t-145 -248q-238 -251 -507 -251q-130 0 -216 88t-86 220
q0 269 329 531q-70 55 -70 194q0 302 199 525t470 223q115 0 173 -26zM721 393q-270 -412 -489 -412q-9 0 -32 2q-232 -234 -232 -417q0 -125 88.5 -209.5t219.5 -84.5q202 0 310 178q82 137 114 653q12 195 21 290z" />
    <glyph glyph-name="h" unicode="h" horiz-adv-x="1090" 
d="M367 552q117 176 257.5 290.5t240.5 114.5q97 0 97 -135q0 -40 -12 -123l-53 -373q-16 -112 -16 -177q0 -52 28 -52q69 0 169 184q25 -15 25 -31q0 -65 -111.5 -170.5t-181.5 -105.5q-78 0 -78 112q0 82 21 227l34 242q17 119 17 189q0 77 -55 77q-128 0 -259 -173.5
t-154 -372.5l-26 -240l-149 -61l3 28l8 74l8 70l97 876q35 310 230 529.5t436 219.5q50 0 97 -11l-147 -144q-57 17 -108 17q-297 0 -349 -464z" />
    <glyph glyph-name="i" unicode="i" horiz-adv-x="606" 
d="M591 291q27 -16 27 -31q0 -36 -87 -142q-117 -144 -217 -144q-73 0 -73 97q0 41 30 252l39 272l10 69l8 55q5 35 5 59q0 50 -28 50q-78 0 -168 -172q-19 17 -19 34q0 61 112.5 164t179.5 103q75 0 75 -104q0 -20 -8 -82l-9 -67q-1 -8 -11 -81l-41 -286l-10 -64
q-13 -95 -13 -127q0 -43 25 -43q84 0 173 188zM390 1086l84 207q112 46 184 127q10 -14 10 -29q0 -134 -278 -305z" />
    <glyph glyph-name="j" unicode="j" horiz-adv-x="545" 
d="M471 1008l-100 -997q-43 -428 -185 -606q-196 -245 -476 -245q-97 0 -159 25q13 12 20 18l47 42q56 50 120 50q21 0 48 -8q10 -3 15 -5l21 -5q36 -8 64 -8q165 0 231 143t112 599l80 802q-49 -38 -101 -82q-67 -56 -117 -88l8 80q166 98 372 285zM387 1086l45 190
q128 57 191 141q10 -22 10 -35q0 -41 -74.5 -130.5t-171.5 -165.5z" />
    <glyph glyph-name="k" unicode="k" horiz-adv-x="947" 
d="M376 629q75 140 188.5 234t208.5 94q128 0 128 -132q0 -126 -106.5 -230.5t-281.5 -150.5q190 -341 283 -341q67 0 141 117q23 -17 23 -33q0 -47 -92 -129t-148 -84q-100 -5 -340 425l-25 45l-45 -409l-149 -61l3 28l8 74l8 70l98 876q34 311 229 530t437 219
q50 0 96 -11l-147 -144q-57 17 -108 17q-297 0 -349 -464zM358 474q161 0 269 72.5t108 179.5q0 108 -76 108q-70 0 -155.5 -102.5t-145.5 -257.5z" />
    <glyph glyph-name="l" unicode="l" horiz-adv-x="546" 
d="M512 294q29 -14 29 -36q0 -72 -107.5 -178t-180.5 -106q-83 0 -83 120q0 73 9 149l11 89l77 696q36 318 218.5 531t420.5 213q58 0 98 -10l-142 -145q-47 16 -110 16q-150 0 -224.5 -105.5t-102.5 -357.5l-93 -838q-11 -97 -11 -139q0 -90 31 -90q37 0 87 59.5t73 131.5z
" />
    <glyph glyph-name="m" unicode="m" horiz-adv-x="1616" 
d="M887 35l-148 -61l3 28l8 74l7 70l50 449l7 51q4 40 4 78q0 97 -59 97q-92 0 -214.5 -188t-141.5 -358l-26 -240l-149 -61l3 28l8 74l8 70l51 464l6 53q7 62 7 100q0 64 -32 64q-75 0 -162 -170q-23 19 -23 33q0 60 109.5 163.5t173.5 103.5q86 0 86 -110q0 -28 -5 -75
l-8 -81l-8 -68l-8 -71l28 44q224 361 417 361q93 0 93 -134q0 -23 -8 -97l-10 -92l-14 -125q93 193 220.5 320.5t227.5 127.5q99 0 99 -128q0 -55 -11 -131l-53 -371q-17 -115 -17 -178q0 -53 29 -53q34 0 85.5 57t82.5 129q27 -18 27 -33q0 -63 -111.5 -169t-177.5 -106
q-85 0 -85 114q0 72 22 223l35 241q2 13 7 57q2 18 7 61t5 66q0 85 -56 85q-94 0 -218.5 -188t-143.5 -358z" />
    <glyph glyph-name="n" unicode="n" horiz-adv-x="1156" 
d="M376 35l-149 -61l3 28l8 74l8 70l52 464l6 53q6 62 6 100q0 64 -32 64q-75 0 -161 -170q-23 19 -23 33q0 60 109.5 163.5t172.5 103.5q86 0 86 -110q0 -28 -5 -75l-8 -81l-8 -68l-8 -71q118 176 258.5 290.5t239.5 114.5q97 0 97 -135q0 -41 -11 -123l-54 -373
q-16 -112 -16 -177q0 -52 28 -52q69 0 170 184q24 -15 24 -31q0 -65 -111.5 -170.5t-181.5 -105.5q-78 0 -78 112q0 82 21 227l35 242q17 118 17 187q0 79 -55 79q-128 0 -259.5 -173.5t-153.5 -372.5z" />
    <glyph glyph-name="o" unicode="o" horiz-adv-x="878" 
d="M328 -26q-225 0 -225 298q0 240 176 462.5t365 222.5q228 0 228 -298q0 -241 -176 -463t-368 -222zM449 86q115 0 192.5 128t77.5 319q0 312 -194 312q-114 0 -191.5 -128.5t-77.5 -318.5q0 -312 193 -312z" />
    <glyph glyph-name="p" unicode="p" horiz-adv-x="1019" 
d="M328 -12l-8 -79q-31 -310 -224 -530t-434 -220q-50 0 -96 12l145 144q57 -17 108 -17q298 0 344 464l104 1037q-47 -35 -101 -81q-66 -56 -116 -88l8 80q169 100 371 286l-46 -463q106 186 238 305t232 119q144 0 144 -246q0 -293 -189 -508.5t-446 -215.5zM343 137
q81 -51 183 -51q137 0 222.5 160t85.5 415q0 149 -81 149q-89 0 -211 -136q-163 -181 -188 -429z" />
    <glyph glyph-name="q" unicode="q" horiz-adv-x="993" 
d="M750 -641q26 24 103 84l87 69q5 4 37 25l-10 -84q-178 -102 -381 -288l137 1233q-116 -184 -252.5 -304t-229.5 -120q-132 0 -132 221q0 298 198 523.5t459 225.5q100 0 172 -26q-5 -18 -6 -21l-11 -54q-12 -55 -13 -64zM768 803q-67 42 -168 42q-138 0 -232.5 -172
t-94.5 -423q0 -134 72 -130q80 4 222 149q97 99 134 180t54 234z" />
    <glyph glyph-name="r" unicode="r" horiz-adv-x="853" 
d="M433 536q222 421 437 421q56 0 112 -26l-141 -154q-32 18 -82 18q-104 0 -219.5 -168.5t-135.5 -350.5l-27 -244l-148 -50l3 30l7 65l8 65l52 476l6 52q7 59 7 96q0 61 -34 61q-80 0 -159 -171q-25 19 -24 39q3 61 111.5 161.5t171.5 100.5q85 0 85 -112q0 -27 -5 -73
l-7 -70l-9 -84z" />
    <glyph glyph-name="s" unicode="s" horiz-adv-x="728" 
d="M43 28l138 113q78 -83 196 -83q144 0 144 139q0 77 -132 215l-57 59q-125 131 -125 212q0 116 100.5 195t247.5 79q80 0 175 -30l-120 -111q-76 57 -169 57q-109 0 -109 -91q0 -65 121 -191l62 -66q138 -144 138 -232q0 -126 -121 -222.5t-279 -96.5q-112 0 -210 54z" />
    <glyph glyph-name="t" unicode="t" horiz-adv-x="725" 
d="M420 815l-50 -442q-13 -119 -13 -176q0 -113 77 -113q83 0 172 136q15 -19 15 -34q0 -56 -98.5 -134t-169.5 -78q-142 0 -142 182q0 67 17 217l49 442h-211l117 116h107l21 182l147 49l-25 -231h424l-117 -116h-320z" />
    <glyph glyph-name="u" unicode="u" horiz-adv-x="1148" 
d="M830 393q-114 -175 -257 -297t-233 -122q-99 0 -99 132q0 49 13 161l36 328q1 7 5 58l6 65q3 29 3 52q0 58 -33 58q-76 0 -164 -171q-19 15 -19 32q0 62 110.5 165t175.5 103q83 0 83 -114q0 -27 -4 -63l-9 -77l-9 -84l-32 -286q-8 -73 -8 -148q0 -69 51 -69
q113 0 255.5 186t168.5 368l34 237l162 55q-28 -116 -42 -207l-60 -418q-5 -38 -8 -64l-7 -55q-6 -51 -6 -72q0 -43 24 -43q85 0 173 188q27 -16 27 -32q0 -35 -87 -141q-117 -144 -217 -144q-73 0 -73 98q0 31 7 83l11 80q9 65 12 88z" />
    <glyph glyph-name="v" unicode="v" horiz-adv-x="923" 
d="M559 196q279 390 279 543q0 57 -58 90l125 128q73 -37 73 -118q0 -100 -191 -389q-42 -62 -59 -90l-25 -43l-46 -73q-38 -60 -80 -135l-139 -135q-38 322 -124 584t-154 262q-76 0 -106 -151q-29 10 -29 33q0 76 65.5 164t123.5 91q217 11 345 -761z" />
    <glyph glyph-name="w" unicode="w" horiz-adv-x="1285" 
d="M327 -23q0 232 -33 441l-33 212q-28 181 -96 186q-76 6 -106 -151q-32 9 -32 40q0 76 71.5 164t131.5 88q88 0 138.5 -145t86.5 -498l6 -61q176 323 263 590l119 114q12 -135 23 -209l24 -160l17 -112l44 -256l24 39q231 378 231 485q0 58 -61 99l121 114q74 -41 74 -109
q0 -82 -114 -271l-61 -101l-75 -131q-81 -141 -118 -251l-120 -120q-14 180 -49 379l-17 94l-43 234l-47 -86q-128 -234 -216 -479z" />
    <glyph glyph-name="x" unicode="x" horiz-adv-x="1026" 
d="M519 438l-31 82q-34 87 -37 94l-48 107q-51 115 -98 115q-71 0 -112 -133q-30 11 -30 32q0 62 72 142t129 80q112 0 232 -322l20 -53l23 37q213 338 359 338q38 0 89 -22l-121 -127q-24 7 -34 7q-110 0 -262 -253l-29 -48l23 -62q132 -363 217 -363q78 0 119 112
q28 -18 28 -37q0 -50 -80 -120t-138 -70q-116 0 -237 327l-28 74l-29 -51q-204 -350 -390 -350q-70 0 -119 35l116 114q30 -30 70 -30q113 0 254 228l52 84z" />
    <glyph glyph-name="y" unicode="y" horiz-adv-x="1110" 
d="M839 398q-101 -184 -211.5 -304t-180.5 -120q-96 0 -106 202l-7 139l-13 283l-3 81q-9 161 -59 161q-78 0 -152 -148q-26 18 -26 39q0 54 97 140t158 86q63 0 89 -56.5t34 -208.5l18 -350q10 -200 64 -200q81 0 201 185.5t154 364.5l39 204l178 62q-34 -88 -70 -266
l-134 -671q-79 -394 -244 -582q-247 -280 -572 -280q-68 0 -153 30l123 135q94 -42 196 -42q208 0 312 135t174 495z" />
    <glyph glyph-name="z" unicode="z" horiz-adv-x="843" 
d="M47 -21l83 160q57 60 110 128l64 79q32 41 49 61l46 56q22 27 70 90l90 116l77 102q8 9 23 28q-20 -2 -29 -2q-70 0 -190 34l-36 10l-30 10q-28 8 -49 8q-70 0 -70 -79q0 -30 16 -61l-117 -101q-4 34 -4 50q0 116 77.5 202.5t181.5 86.5q28 0 71 -8l58 -10l48 -7
q83 -14 116 -14q74 0 157 33l-87 -160q-74 -82 -151 -177l-79 -99l-70 -87l-46 -57l-42 -51q-58 -71 -65 -81l-48 -69q-8 -11 -37 -46q55 6 91 6q64 0 143 -11l65 -9l61 -8q36 -5 73 -5q93 0 136 58q17 -16 17 -29q0 -52 -57 -99.5t-120 -47.5q-29 0 -73 5q-37 4 -65 6
l-59 4q-73 6 -143 6q-145 0 -256 -21z" />
    <glyph glyph-name="brace.left" unicode="{" horiz-adv-x="713" 
d="M381 770q193 -27 193 -218q0 -113 -31 -281l-35 -189l-13 -91l-12 -79q-6 -37 -6 -75q0 -124 129 -175l-86 -89q-186 59 -186 246q0 54 8 112l15 102q8 59 11 75l35 189q24 129 24 219q0 89 -57.5 125t-202.5 36h-77l103 103l123 1q173 78 173 245l-2 111l-1 125
q0 425 367 548l12 -32q-237 -113 -237 -410l3 -92l2 -108q0 -162 -56.5 -250.5t-195.5 -147.5z" />
    <glyph glyph-name="bar.vert.unbroken" unicode="|" horiz-adv-x="418" orientation="v" 
d="M279 45l-147 -155l156 1409l147 156z" />
    <glyph glyph-name="brace.right" unicode="}" horiz-adv-x="713" 
d="M487 613q-193 28 -193 218q0 112 31 281l34 189l14 91l12 80q6 36 6 74q0 125 -129 176l86 88q186 -58 186 -245q0 -54 -8 -112l-15 -102q-8 -61 -11 -76l-35 -189q-24 -128 -24 -218t57.5 -125.5t202.5 -35.5l77 -1l-104 -102l-122 -2q-173 -77 -173 -245l2 -110l1 -126
q0 -426 -367 -548l-12 33q237 111 237 410l-3 92l-2 108q0 161 56.5 250t195.5 147z" />
    <glyph glyph-name="tilde.ascii" unicode="~" 
d="M199 342q-44 18 -44 51q0 103 79.5 202t161.5 99q83 0 223 -113l48 -38q136 -110 208 -110q148 0 175 230q43 -19 43 -52q0 -103 -79 -202t-161 -99q-84 0 -223 113l-48 39q-135 109 -208 109q-149 0 -175 -229z" />
    <glyph glyph-name="A_dieresis" unicode="&#xc4;" horiz-adv-x="1469" 
d="M319 774l-157 -151q-41 107 -41 207q0 248 215 400q180 128 616 128q74 0 130 -3q155 -10 159 -10h70q-78 -122 -78 -494l1 -52l4 -115q0 -207 51 -424q20 -84 39 -108t66 -24q51 0 116 33q7 -17 7 -28q0 -25 -39 -43l-47 -23l-246 -107q-82 253 -99 530l-76 -53h-336
q-92 -234 -252 -334l207 -10l-108 -114l-399 14l133 120l100 -6q68 50 116 140.5t143 350.5l30 83q92 251 175 365.5t226 188.5q-157 29 -331 29q-443 0 -443 -299q0 -102 48 -191zM1084 545q-14 174 -14 282q0 55 2 90l8 116q8 119 22 182q-196 -120 -322 -490
q-36 -107 -42 -123l-23 -57h369zM971 1500q-33 73 -94 112l119 112q59 -42 89 -112zM1294 1500q-33 73 -94 112l119 112q59 -42 89 -112z" />
    <glyph glyph-name="A_ring" unicode="&#xc5;" horiz-adv-x="1469" 
d="M319 774l-157 -151q-41 107 -41 207q0 248 215 400q180 128 616 128q74 0 130 -3q155 -10 159 -10h70q-78 -122 -78 -494l1 -52l4 -115q0 -207 51 -424q20 -84 39 -108t66 -24q51 0 116 33q7 -17 7 -28q0 -25 -39 -43l-47 -23l-246 -107q-82 253 -99 530l-76 -53h-336
q-92 -234 -252 -334l207 -10l-108 -114l-399 14l133 120l100 -6q68 50 116 140.5t143 350.5l30 83q92 251 175 365.5t226 188.5q-157 29 -331 29q-443 0 -443 -299q0 -102 48 -191zM1084 545q-14 174 -14 282q0 55 2 90l8 116q8 119 22 182q-196 -120 -322 -490
q-36 -107 -42 -123l-23 -57h369zM1115 1344q-119 0 -119 113q0 92 87.5 176.5t183.5 84.5q119 0 119 -116q0 -88 -89.5 -173t-181.5 -85zM1193 1420q109 0 109 113q0 108 -110 108q-111 0 -111 -108q0 -113 112 -113z" />
    <glyph glyph-name="C_cedilla" unicode="&#xc7;" horiz-adv-x="1275" 
d="M1171 349q23 -11 23 -32q0 -66 -121 -174q-205 -183 -466 -183q-211 0 -336.5 152.5t-125.5 409.5q0 367 235 615t583 248q177 0 367 -67l-67 -147l-19 -43q-24 -51 -59 -51q-7 0 -21 3q14 31 14 51q0 67 -89.5 117t-208.5 50q-244 0 -396.5 -193t-152.5 -502
q0 -239 107 -381t286 -142q129 0 257.5 77.5t189.5 191.5zM612 0h76l-60 -102q130 -45 130 -154q0 -76 -76.5 -143t-164.5 -67q-36 0 -52 52q183 14 183 121q0 87 -135 114z" />
    <glyph glyph-name="E_acute" unicode="&#xc9;" horiz-adv-x="1497" 
d="M313 770l-162 -156q-24 80 -24 152q0 280 233 453q170 126 484 126h330q186 0 380 13l-81 -205l-16 -37q-25 -59 -64 -59q-6 0 -14 1q11 50 11 80q0 66 -69.5 82.5t-346.5 16.5h-97l-53 -484h195q169 0 300 16q-114 -137 -230 -137q-65 0 -184 10q-49 3 -69 3h-24
l-10 -87q-21 -190 -66.5 -270t-178.5 -161l219 -17l89 -8q94 -7 225 -7q221 0 368 143q17 -19 17 -36q0 -28 -107 -115q-156 -127 -341 -127q-171 0 -492 29l-373 34q-19 1 -135 8l183 138q99 -17 238 -30q98 38 132 108t57 282l79 708h-35q-194 0 -304 -79.5t-110 -219.5
q0 -81 46 -168zM1054 1500l113 207q168 71 259 155q20 -32 20 -53q0 -103 -392 -309z" />
    <glyph glyph-name="N_tilde" unicode="&#xd1;" horiz-adv-x="1807" 
d="M307 776l-162 -156q-24 78 -24 156q0 246 186.5 410.5t466.5 164.5q39 0 73 -3q38 -3 48 -3h11q-4 -35 -4 -50q0 -206 267 -524l75 -88l66 -79q105 -125 166 -230l67 543q63 497 231 697q192 228 424 228q87 0 172 -32l-148 -147q-91 53 -161 53q-155 0 -235.5 -142.5
t-125.5 -496.5l-106 -847l-126 -260q-46 184 -98 280t-207 282l-77 93q-178 215 -252 385l-50 -450l-12 -108q-16 -134 -51.5 -196.5t-141.5 -141.5l221 -20l-119 -116l-435 22l129 124l111 -10q76 55 105 119t46 212l9 87l77 692h-47q-416 0 -416 -275q0 -86 47 -173z
M1025 1500q-26 11 -26 30q0 54 58.5 126.5t102.5 72.5q22 0 51 -18l31 -19l59 -35l28 -18q34 -21 56 -21q50 0 104 114q26 -9 26 -31q0 -48 -60.5 -123.5t-98.5 -75.5q-32 0 -61 18l-37 24l-54 33l-22 14q-35 21 -60 21q-54 0 -97 -112z" />
    <glyph glyph-name="O_dieresis" unicode="&#xd6;" horiz-adv-x="1404" 
d="M596 -41q-196 0 -320.5 154.5t-124.5 397.5q0 353 238.5 613.5t562.5 260.5q201 0 326 -152.5t125 -398.5q0 -356 -239.5 -615.5t-567.5 -259.5zM727 40q207 0 346.5 199t139.5 494q0 247 -109 409.5t-274 162.5q-209 0 -349 -198.5t-140 -495.5q0 -248 109 -409.5
t277 -161.5zM780 1500q-33 73 -94 112l119 112q59 -42 89 -112zM1103 1500q-33 73 -94 112l119 112q59 -42 89 -112z" />
    <glyph glyph-name="U_dieresis" unicode="&#xdc;" horiz-adv-x="1750" 
d="M307 776l-163 -156q-23 78 -23 155q0 258 192 414t510 156h146q-90 -174 -147 -416t-57 -448q0 -414 252 -414q170 0 274 164.5t135 482.5q14 145 19 189l42 377l198 103q-43 -165 -70 -407l-36 -320q-2 -17 -11 -113l-14 -139q-8 -79 -8 -136q0 -100 76 -100
q60 0 135 47l3 -12q2 -12 2 -19q0 -29 -55 -55l-59 -29l-294 -140l37 334q-214 -335 -461 -335q-338 0 -338 516q0 349 168 749h-84q-416 0 -416 -275q0 -86 47 -173zM1140 1500q-33 73 -94 112l119 112q59 -42 89 -112zM1463 1500q-33 73 -94 112l119 112q59 -42 89 -112z
" />
    <glyph glyph-name="a_acute" unicode="&#xe1;" horiz-adv-x="1070" 
d="M728 397q-113 -186 -248.5 -304.5t-235.5 -118.5q-137 0 -137 221q0 304 199.5 526.5t472.5 222.5q104 0 177 -26q-5 -18 -6 -22l-12 -53q-12 -55 -13 -64l-64 -442l-9 -64q-13 -95 -13 -127q0 -43 25 -43q84 0 172 188q27 -16 27 -32q0 -35 -86 -141
q-117 -144 -217 -144q-73 0 -73 98q0 30 7 83l10 80l13 88zM785 794q-91 51 -184 51q-140 0 -235 -171t-95 -424q0 -130 77 -130q89 0 215 136q170 183 206 430zM617 1086l113 207q168 71 259 155q20 -32 20 -53q0 -103 -392 -309z" />
    <glyph glyph-name="a_grave" unicode="&#xe0;" horiz-adv-x="1070" 
d="M728 397q-113 -186 -248.5 -304.5t-235.5 -118.5q-137 0 -137 221q0 304 199.5 526.5t472.5 222.5q104 0 177 -26q-5 -18 -6 -22l-12 -53q-12 -55 -13 -64l-64 -442l-9 -64q-13 -95 -13 -127q0 -43 25 -43q84 0 172 188q27 -16 27 -32q0 -35 -86 -141
q-117 -144 -217 -144q-73 0 -73 98q0 30 7 83l10 80l13 88zM785 794q-91 51 -184 51q-140 0 -235 -171t-95 -424q0 -130 77 -130q89 0 215 136q170 183 206 430zM712 1086q-123 79 -202 282l81 81q90 -194 208 -271z" />
    <glyph glyph-name="a_circumflex" unicode="&#xe2;" horiz-adv-x="1070" 
d="M728 397q-113 -186 -248.5 -304.5t-235.5 -118.5q-137 0 -137 221q0 304 199.5 526.5t472.5 222.5q104 0 177 -26q-5 -18 -6 -22l-12 -53q-12 -55 -13 -64l-64 -442l-9 -64q-13 -95 -13 -127q0 -43 25 -43q84 0 172 188q27 -16 27 -32q0 -35 -86 -141
q-117 -144 -217 -144q-73 0 -73 98q0 30 7 83l10 80l13 88zM785 794q-91 51 -184 51q-140 0 -235 -171t-95 -424q0 -130 77 -130q89 0 215 136q170 183 206 430zM728 1311q-13 -16 -19 -24q-107 -139 -209 -201l53 124q91 49 161 156l80 82q54 -177 153 -272l-84 -90
q-91 103 -135 225z" />
    <glyph glyph-name="a_dieresis" unicode="&#xe4;" horiz-adv-x="1070" 
d="M728 397q-113 -186 -248.5 -304.5t-235.5 -118.5q-137 0 -137 221q0 304 199.5 526.5t472.5 222.5q104 0 177 -26q-5 -18 -6 -22l-12 -53q-12 -55 -13 -64l-64 -442l-9 -64q-13 -95 -13 -127q0 -43 25 -43q84 0 172 188q27 -16 27 -32q0 -35 -86 -141
q-117 -144 -217 -144q-73 0 -73 98q0 30 7 83l10 80l13 88zM785 794q-91 51 -184 51q-140 0 -235 -171t-95 -424q0 -130 77 -130q89 0 215 136q170 183 206 430zM541 1086q-33 73 -94 112l119 112q59 -42 89 -112zM864 1086q-33 73 -94 112l119 112q59 -42 89 -112z" />
    <glyph glyph-name="a_tilde" unicode="&#xe3;" horiz-adv-x="1070" 
d="M728 397q-113 -186 -248.5 -304.5t-235.5 -118.5q-137 0 -137 221q0 304 199.5 526.5t472.5 222.5q104 0 177 -26q-5 -18 -6 -22l-12 -53q-12 -55 -13 -64l-64 -442l-9 -64q-13 -95 -13 -127q0 -43 25 -43q84 0 172 188q27 -16 27 -32q0 -35 -86 -141
q-117 -144 -217 -144q-73 0 -73 98q0 30 7 83l10 80l13 88zM785 794q-91 51 -184 51q-140 0 -235 -171t-95 -424q0 -130 77 -130q89 0 215 136q170 183 206 430zM487 1086q-26 11 -26 30q0 54 58.5 126.5t102.5 72.5q22 0 51 -18l31 -19l59 -35l28 -18q34 -21 56 -21
q50 0 104 114q26 -9 26 -31q0 -48 -60.5 -123.5t-98.5 -75.5q-32 0 -61 18l-37 24l-54 33l-22 14q-35 21 -60 21q-54 0 -97 -112z" />
    <glyph glyph-name="a_ring" unicode="&#xe5;" horiz-adv-x="1070" 
d="M728 397q-113 -186 -248.5 -304.5t-235.5 -118.5q-137 0 -137 221q0 304 199.5 526.5t472.5 222.5q104 0 177 -26q-5 -18 -6 -22l-12 -53q-12 -55 -13 -64l-64 -442l-9 -64q-13 -95 -13 -127q0 -43 25 -43q84 0 172 188q27 -16 27 -32q0 -35 -86 -141
q-117 -144 -217 -144q-73 0 -73 98q0 30 7 83l10 80l13 88zM785 794q-91 51 -184 51q-140 0 -235 -171t-95 -424q0 -130 77 -130q89 0 215 136q170 183 206 430zM692 1086q-119 0 -119 113q0 92 87.5 176.5t183.5 84.5q119 0 119 -116q0 -88 -89.5 -173t-181.5 -85z
M770 1162q109 0 109 113q0 108 -110 108q-111 0 -111 -108q0 -113 112 -113z" />
    <glyph glyph-name="c_cedilla" unicode="&#xe7;" horiz-adv-x="784" 
d="M803 931l-114 -137q-80 33 -153 33q-131 0 -206.5 -111t-75.5 -304q0 -136 54.5 -219t142.5 -83q149 0 234 195q22 -24 22 -45q0 -83 -129.5 -184.5t-237.5 -101.5q-104 0 -170.5 83.5t-66.5 216.5q0 259 176 471t391 212q78 0 133 -26zM320 0h76l-60 -102
q130 -45 130 -154q0 -76 -76.5 -143t-164.5 -67q-36 0 -52 52q183 14 183 121q0 87 -135 114z" />
    <glyph glyph-name="e_acute" unicode="&#xe9;" horiz-adv-x="761" 
d="M714 318q25 -17 25 -40q0 -31 -64 -106q-171 -198 -338 -198q-102 0 -168 81t-66 207q0 228 172.5 461.5t341.5 233.5q122 0 122 -131q0 -147 -142.5 -287t-347.5 -195q20 -241 190 -241q168 0 275 215zM253 466q29 -10 53 -10q124 0 217 76t93 178q0 117 -119 117
q-86 0 -155.5 -102.5t-88.5 -258.5zM472 1086l113 207q168 71 259 155q20 -32 20 -53q0 -103 -392 -309z" />
    <glyph glyph-name="e_grave" unicode="&#xe8;" horiz-adv-x="761" 
d="M714 318q25 -17 25 -40q0 -31 -64 -106q-171 -198 -338 -198q-102 0 -168 81t-66 207q0 228 172.5 461.5t341.5 233.5q122 0 122 -131q0 -147 -142.5 -287t-347.5 -195q20 -241 190 -241q168 0 275 215zM253 466q29 -10 53 -10q124 0 217 76t93 178q0 117 -119 117
q-86 0 -155.5 -102.5t-88.5 -258.5zM620 1086q-123 79 -202 282l81 81q90 -194 208 -271z" />
    <glyph glyph-name="e_circumflex" unicode="&#xea;" horiz-adv-x="761" 
d="M714 318q25 -17 25 -40q0 -31 -64 -106q-171 -198 -338 -198q-102 0 -168 81t-66 207q0 228 172.5 461.5t341.5 233.5q122 0 122 -131q0 -147 -142.5 -287t-347.5 -195q20 -241 190 -241q168 0 275 215zM253 466q29 -10 53 -10q124 0 217 76t93 178q0 117 -119 117
q-86 0 -155.5 -102.5t-88.5 -258.5zM596 1311q-13 -16 -19 -24q-107 -139 -209 -201l53 124q91 49 161 156l80 82q54 -177 153 -272l-84 -90q-91 103 -135 225z" />
    <glyph glyph-name="e_dieresis" unicode="&#xeb;" horiz-adv-x="761" 
d="M714 318q25 -17 25 -40q0 -31 -64 -106q-171 -198 -338 -198q-102 0 -168 81t-66 207q0 228 172.5 461.5t341.5 233.5q122 0 122 -131q0 -147 -142.5 -287t-347.5 -195q20 -241 190 -241q168 0 275 215zM253 466q29 -10 53 -10q124 0 217 76t93 178q0 117 -119 117
q-86 0 -155.5 -102.5t-88.5 -258.5zM441 1086q-33 73 -94 112l119 112q59 -42 89 -112zM764 1086q-33 73 -94 112l119 112q59 -42 89 -112z" />
    <glyph glyph-name="i_acute" unicode="&#xed;" horiz-adv-x="606" 
d="M591 291q27 -16 27 -31q0 -36 -87 -142q-117 -144 -217 -144q-73 0 -73 97q0 41 30 252l39 272l10 69l8 55q5 35 5 59q0 50 -28 50q-78 0 -168 -172q-19 17 -19 34q0 61 112.5 164t179.5 103q75 0 75 -104q0 -20 -8 -82l-9 -67q-1 -8 -11 -81l-41 -286l-10 -64
q-13 -95 -13 -127q0 -43 25 -43q84 0 173 188zM351 1086l113 207q168 71 259 155q20 -32 20 -53q0 -103 -392 -309z" />
    <glyph glyph-name="i_grave" unicode="&#xec;" horiz-adv-x="606" 
d="M591 291q27 -16 27 -31q0 -36 -87 -142q-117 -144 -217 -144q-73 0 -73 97q0 41 30 252l39 272l10 69l8 55q5 35 5 59q0 50 -28 50q-78 0 -168 -172q-19 17 -19 34q0 61 112.5 164t179.5 103q75 0 75 -104q0 -20 -8 -82l-9 -67q-1 -8 -11 -81l-41 -286l-10 -64
q-13 -95 -13 -127q0 -43 25 -43q84 0 173 188zM450 1086q-123 79 -202 282l81 81q90 -194 208 -271z" />
    <glyph glyph-name="i_circumflex" unicode="&#xee;" horiz-adv-x="606" 
d="M591 291q27 -16 27 -31q0 -36 -87 -142q-117 -144 -217 -144q-73 0 -73 97q0 41 30 252l39 272l10 69l8 55q5 35 5 59q0 50 -28 50q-78 0 -168 -172q-19 17 -19 34q0 61 112.5 164t179.5 103q75 0 75 -104q0 -20 -8 -82l-9 -67q-1 -8 -11 -81l-41 -286l-10 -64
q-13 -95 -13 -127q0 -43 25 -43q84 0 173 188zM439 1311q-13 -16 -19 -24q-107 -139 -209 -201l53 124q91 49 161 156l80 82q54 -177 153 -272l-84 -90q-91 103 -135 225z" />
    <glyph glyph-name="i_dieresis" unicode="&#xef;" horiz-adv-x="606" 
d="M591 291q27 -16 27 -31q0 -36 -87 -142q-117 -144 -217 -144q-73 0 -73 97q0 41 30 252l39 272l10 69l8 55q5 35 5 59q0 50 -28 50q-78 0 -168 -172q-19 17 -19 34q0 61 112.5 164t179.5 103q75 0 75 -104q0 -20 -8 -82l-9 -67q-1 -8 -11 -81l-41 -286l-10 -64
q-13 -95 -13 -127q0 -43 25 -43q84 0 173 188zM280 1086q-33 73 -94 112l119 112q59 -42 89 -112zM603 1086q-33 73 -94 112l119 112q59 -42 89 -112z" />
    <glyph glyph-name="n_tilde" unicode="&#xf1;" horiz-adv-x="1156" 
d="M376 35l-149 -61l3 28l8 74l8 70l52 464l6 53q6 62 6 100q0 64 -32 64q-75 0 -161 -170q-23 19 -23 33q0 60 109.5 163.5t172.5 103.5q86 0 86 -110q0 -28 -5 -75l-8 -81l-8 -68l-8 -71q118 176 258.5 290.5t239.5 114.5q97 0 97 -135q0 -41 -11 -123l-54 -373
q-16 -112 -16 -177q0 -52 28 -52q69 0 170 184q24 -15 24 -31q0 -65 -111.5 -170.5t-181.5 -105.5q-78 0 -78 112q0 82 21 227l35 242q17 118 17 187q0 79 -55 79q-128 0 -259.5 -173.5t-153.5 -372.5zM488 1086q-26 11 -26 30q0 54 58.5 126.5t102.5 72.5q22 0 51 -18
l31 -19l59 -35l28 -18q34 -21 56 -21q50 0 104 114q26 -9 26 -31q0 -48 -60.5 -123.5t-98.5 -75.5q-32 0 -61 18l-37 24l-54 33l-22 14q-35 21 -60 21q-54 0 -97 -112z" />
    <glyph glyph-name="o_acute" unicode="&#xf3;" horiz-adv-x="878" 
d="M328 -26q-225 0 -225 298q0 240 176 462.5t365 222.5q228 0 228 -298q0 -241 -176 -463t-368 -222zM449 86q115 0 192.5 128t77.5 319q0 312 -194 312q-114 0 -191.5 -128.5t-77.5 -318.5q0 -312 193 -312zM585 1086l113 207q168 71 259 155q20 -32 20 -53
q0 -103 -392 -309z" />
    <glyph glyph-name="o_grave" unicode="&#xf2;" horiz-adv-x="878" 
d="M328 -26q-225 0 -225 298q0 240 176 462.5t365 222.5q228 0 228 -298q0 -241 -176 -463t-368 -222zM449 86q115 0 192.5 128t77.5 319q0 312 -194 312q-114 0 -191.5 -128.5t-77.5 -318.5q0 -312 193 -312zM696 1086q-123 79 -202 282l81 81q90 -194 208 -271z" />
    <glyph glyph-name="o_circumflex" unicode="&#xf4;" horiz-adv-x="878" 
d="M328 -26q-225 0 -225 298q0 240 176 462.5t365 222.5q228 0 228 -298q0 -241 -176 -463t-368 -222zM449 86q115 0 192.5 128t77.5 319q0 312 -194 312q-114 0 -191.5 -128.5t-77.5 -318.5q0 -312 193 -312zM667 1311q-13 -16 -19 -24q-107 -139 -209 -201l53 124
q91 49 161 156l80 82q54 -177 153 -272l-84 -90q-91 103 -135 225z" />
    <glyph glyph-name="o_dieresis" unicode="&#xf6;" horiz-adv-x="878" 
d="M328 -26q-225 0 -225 298q0 240 176 462.5t365 222.5q228 0 228 -298q0 -241 -176 -463t-368 -222zM449 86q115 0 192.5 128t77.5 319q0 312 -194 312q-114 0 -191.5 -128.5t-77.5 -318.5q0 -312 193 -312zM534 1086q-33 73 -94 112l119 112q59 -42 89 -112zM857 1086
q-33 73 -94 112l119 112q59 -42 89 -112z" />
    <glyph glyph-name="o_tilde" unicode="&#xf5;" horiz-adv-x="878" 
d="M328 -26q-225 0 -225 298q0 240 176 462.5t365 222.5q228 0 228 -298q0 -241 -176 -463t-368 -222zM449 86q115 0 192.5 128t77.5 319q0 312 -194 312q-114 0 -191.5 -128.5t-77.5 -318.5q0 -312 193 -312zM440 1086q-26 11 -26 30q0 54 58.5 126.5t102.5 72.5
q22 0 51 -18l31 -19l59 -35l28 -18q34 -21 56 -21q50 0 104 114q26 -9 26 -31q0 -48 -60.5 -123.5t-98.5 -75.5q-32 0 -61 18l-37 24l-54 33l-22 14q-35 21 -60 21q-54 0 -97 -112z" />
    <glyph glyph-name="u_acute" unicode="&#xfa;" horiz-adv-x="1148" 
d="M830 393q-114 -175 -257 -297t-233 -122q-99 0 -99 132q0 49 13 161l36 328q1 7 5 58l6 65q3 29 3 52q0 58 -33 58q-76 0 -164 -171q-19 15 -19 32q0 62 110.5 165t175.5 103q83 0 83 -114q0 -27 -4 -63l-9 -77l-9 -84l-32 -286q-8 -73 -8 -148q0 -69 51 -69
q113 0 255.5 186t168.5 368l34 237l162 55q-28 -116 -42 -207l-60 -418q-5 -38 -8 -64l-7 -55q-6 -51 -6 -72q0 -43 24 -43q85 0 173 188q27 -16 27 -32q0 -35 -87 -141q-117 -144 -217 -144q-73 0 -73 98q0 31 7 83l11 80q9 65 12 88zM602 1086l113 207q168 71 259 155
q20 -32 20 -53q0 -103 -392 -309z" />
    <glyph glyph-name="u_grave" unicode="&#xf9;" horiz-adv-x="1148" 
d="M830 393q-114 -175 -257 -297t-233 -122q-99 0 -99 132q0 49 13 161l36 328q1 7 5 58l6 65q3 29 3 52q0 58 -33 58q-76 0 -164 -171q-19 15 -19 32q0 62 110.5 165t175.5 103q83 0 83 -114q0 -27 -4 -63l-9 -77l-9 -84l-32 -286q-8 -73 -8 -148q0 -69 51 -69
q113 0 255.5 186t168.5 368l34 237l162 55q-28 -116 -42 -207l-60 -418q-5 -38 -8 -64l-7 -55q-6 -51 -6 -72q0 -43 24 -43q85 0 173 188q27 -16 27 -32q0 -35 -87 -141q-117 -144 -217 -144q-73 0 -73 98q0 31 7 83l11 80q9 65 12 88zM758 1086q-123 79 -202 282l81 81
q90 -194 208 -271z" />
    <glyph glyph-name="u_circumflex" unicode="&#xfb;" horiz-adv-x="1148" 
d="M830 393q-114 -175 -257 -297t-233 -122q-99 0 -99 132q0 49 13 161l36 328q1 7 5 58l6 65q3 29 3 52q0 58 -33 58q-76 0 -164 -171q-19 15 -19 32q0 62 110.5 165t175.5 103q83 0 83 -114q0 -27 -4 -63l-9 -77l-9 -84l-32 -286q-8 -73 -8 -148q0 -69 51 -69
q113 0 255.5 186t168.5 368l34 237l162 55q-28 -116 -42 -207l-60 -418q-5 -38 -8 -64l-7 -55q-6 -51 -6 -72q0 -43 24 -43q85 0 173 188q27 -16 27 -32q0 -35 -87 -141q-117 -144 -217 -144q-73 0 -73 98q0 31 7 83l11 80q9 65 12 88zM730 1311q-13 -16 -19 -24
q-107 -139 -209 -201l53 124q91 49 161 156l80 82q54 -177 153 -272l-84 -90q-91 103 -135 225z" />
    <glyph glyph-name="u_dieresis" unicode="&#xfc;" horiz-adv-x="1148" 
d="M830 393q-114 -175 -257 -297t-233 -122q-99 0 -99 132q0 49 13 161l36 328q1 7 5 58l6 65q3 29 3 52q0 58 -33 58q-76 0 -164 -171q-19 15 -19 32q0 62 110.5 165t175.5 103q83 0 83 -114q0 -27 -4 -63l-9 -77l-9 -84l-32 -286q-8 -73 -8 -148q0 -69 51 -69
q113 0 255.5 186t168.5 368l34 237l162 55q-28 -116 -42 -207l-60 -418q-5 -38 -8 -64l-7 -55q-6 -51 -6 -72q0 -43 24 -43q85 0 173 188q27 -16 27 -32q0 -35 -87 -141q-117 -144 -217 -144q-73 0 -73 98q0 31 7 83l11 80q9 65 12 88zM533 1086q-33 73 -94 112l119 112
q59 -42 89 -112zM856 1086q-33 73 -94 112l119 112q59 -42 89 -112z" />
    <glyph glyph-name="dagger.single" unicode="&#x2020;" 
d="M611 815h-375l99 103h281q2 25 2 28l1 109l2 110l-1 90l-1 31l208 99l-8 -29q-38 -147 -59 -255l-28 -149l-7 -34h372l-103 -103h-280q-38 -344 -56 -637l-16 -264l-13 -203l-1 -30l-199 -108q20 90 41 262q9 71 45 324l35 247l47 311q3 19 14 98z" />
    <glyph glyph-name="degree" unicode="&#xb0;" horiz-adv-x="548" 
d="M323 1041q-141 0 -141 135q0 110 103.5 210t218.5 100q142 0 142 -142q0 -101 -108 -202t-215 -101zM416 1126q56 0 96 41t40 99q0 56 -40 96t-97 40q-58 0 -98.5 -39.5t-40.5 -96.5q0 -140 140 -140z" />
    <glyph glyph-name="cent" unicode="&#xa2;" horiz-adv-x="1060" 
d="M513 31q-64 -19 -102 -19q-198 0 -198 259q0 173 116 361.5t283 288.5l36 320l72 73l-39 -358q109 40 183 40q72 0 124 -26l-129 -137q-76 33 -145 33q-19 0 -44 -3l-79 -709q129 43 209 190q18 -22 18 -39q0 -43 -70.5 -117.5t-166.5 -131.5l-25 -218l-72 -69zM604 848
q-92 -35 -159 -170.5t-67 -286.5q0 -214 148 -241z" />
    <glyph glyph-name="sterling" unicode="&#xa3;" horiz-adv-x="937" 
d="M4 1l107 122l28 -2q23 -3 60 -5l31 -3q120 107 120 377v27h-238l61 65h177q15 195 152 323.5t329 128.5q83 0 130 -17l-125 -121q-79 32 -153 32q-105 0 -148 -65t-43 -222v-59h281l-59 -65h-222v-18q0 -128 -34 -201t-133 -158q-11 -10 -33 -29l68 -4q32 -1 80 -1
l110 -2q227 0 329 137q11 -15 11 -34q0 -42 -84 -120q-123 -113 -274 -113q-42 0 -109 3q-154 8 -177 8q-62 0 -242 16z" />
    <glyph glyph-name="section" unicode="&#xa7;" 
d="M87 -206l162 91q16 -247 299 -247q120 0 196 68.5t76 174.5q0 131 -157 238l-127 87q-256 176 -256 353q0 168 152 288q-109 89 -109 203q0 148 127.5 241.5t329.5 93.5q148 0 294 -66l-53 -124l-24 -53q-23 -50 -45 -50q-8 0 -23 8q17 52 17 78q0 66 -68.5 107.5
t-178.5 41.5q-116 0 -188 -57t-72 -150q0 -100 188 -232l144 -101q241 -168 241 -351q0 -162 -132 -295q67 -81 67 -178q0 -163 -143.5 -276.5t-350.5 -113.5q-273 0 -366 221zM847 176q57 83 57 184q0 92 -49.5 155.5t-207.5 173.5l-181 126q-70 -70 -70 -178
q0 -87 54 -153.5t214 -179.5z" />
    <glyph glyph-name="bullet" unicode="&#x2022;" 
d="M599 248q-126 269 -329 399l418 397q183 -139 323 -397z" />
    <glyph glyph-name="paragraph" unicode="&#xb6;" 
d="M676 -427l102 920q-59 -4 -91 -4t-90 4l-91 -820l-102 -100l104 938q-324 90 -324 284q0 222 395 350l22 200l101 94l-31 -280q85 16 183 21l19 165l101 94l-29 -259q146 -11 241 -35l-112 -107q-66 31 -140 39l-54 -477q135 15 232 84q7 -15 7 -30q0 -35 -76.5 -79
t-172.5 -64l-93 -838zM843 1077q-28 5 -69 5q-68 0 -112 -5l-52 -466q84 -19 141 -19q11 0 38 1z" />
    <glyph glyph-name="s_s.german" unicode="&#xdf;" horiz-adv-x="1179" 
d="M513 25l136 114q74 -79 198 -79q142 0 142 132q0 86 -83 192l-43 54l-58 74l-56 67q-126 149 -126 247q0 100 162 249q50 45 56 52l24 24q171 174 171 314q0 195 -197 195q-160 0 -258 -117q-77 -91 -117 -459l-121 -1085q-30 -275 -88 -418t-185 -257
q-184 -165 -414 -165q-49 0 -121 26l134 121q88 -30 157 -30q292 0 343 443l28 248l115 1029q40 359 211 567t427 208q106 0 176.5 -61t70.5 -155q0 -143 -209 -349q-21 -21 -61 -63l-21 -21q-138 -142 -138 -220q0 -81 149 -259l69 -83q127 -152 127 -274
q0 -125 -117.5 -218.5t-274.5 -93.5q-102 0 -208 51z" />
    <glyph glyph-name="registered" unicode="&#xae;" horiz-adv-x="1573" 
d="M856 -40q-295 0 -503.5 208.5t-208.5 503.5q0 296 208.5 504.5t503.5 208.5q296 0 504.5 -209t208.5 -504t-208.5 -503.5t-504.5 -208.5zM856 27q268 0 457 188.5t189 456.5t-189 457t-457 189q-267 0 -456 -189t-189 -457t188.5 -456.5t456.5 -188.5zM764 633l-21 -189
q-10 -90 -65 -105q-13 -3 -38 -11h168l-78 -79h-288l79 80l66 -1q24 48 36 149l62 560h-109l68 77h163h114q275 0 275 -190q0 -151 -208 -247q149 -365 238 -365q34 0 55 15q6 -14 6 -23q0 -22 -48 -39l-51 -18q-29 -10 -54 -10q-109 0 -265 392q-24 -3 -39 -3q-12 0 -45 4z
M770 693q43 -9 102 -9q11 0 40 4q140 74 140 216q0 133 -160 133h-51h-32z" />
    <glyph glyph-name="copyright" unicode="&#xa9;" horiz-adv-x="1573" 
d="M856 -40q-295 0 -503.5 208.5t-208.5 503.5q0 296 208.5 504.5t503.5 208.5q296 0 504.5 -209t208.5 -504t-208.5 -503.5t-504.5 -208.5zM856 27q268 0 457 188.5t189 456.5t-189 457t-457 189q-267 0 -456 -189t-189 -457t188.5 -456.5t456.5 -188.5zM1121 441
q7 -27 7 -40q0 -53 -118.5 -109t-231.5 -56q-129 0 -214 95.5t-85 241.5q0 210 154.5 370t357.5 160q115 0 226 -40l-38 -94l-21 -50q-18 -44 -43 -44q-11 0 -27 6q10 23 10 36q0 123 -158 123q-130 0 -222.5 -118t-92.5 -284q0 -139 63 -218t173 -79q140 0 260 100z" />
    <glyph glyph-name="trademark" unicode="&#x2122;" horiz-adv-x="1653" 
d="M557 1271l-46 -420q-6 -51 -14.5 -61.5t-55.5 -24.5h148l-66 -58h-266l68 58h60q17 34 22 76l3 35l44 395h-74h-46q-87 0 -118 -37q-12 3 -12 17q0 96 143 96l54 -2h42h211l68 -1q66 0 94 40q14 -6 14 -18q0 -97 -139 -97h-29l-50 2h-55zM1002 1225l-64 -372
q-13 -79 -57 -86l108 -1l-36 -59h-211l38 58h51q22 30 36 108l72 416h-78l49 56h164l135 -445l207 408l124 55q-15 -104 -26 -277l-8 -142q-4 -58 -4 -86q0 -111 47 -111q15 0 41 10q4 -9 4 -12q0 -17 -53 -37t-97 -20q-39 0 -39 77q0 88 14 315l7 125l-223 -435l-54 -39z
" />
    <glyph glyph-name="acute" unicode="&#xb4;" horiz-adv-x="914" 
d="M532 1086l113 207q168 71 259 155q20 -32 20 -53q0 -103 -392 -309z" />
    <glyph glyph-name="dieresis" unicode="&#xa8;" horiz-adv-x="914" 
d="M482 1086q-33 73 -94 112l119 112q59 -42 89 -112zM805 1086q-33 73 -94 112l119 112q59 -42 89 -112z" />
    <glyph glyph-name="notequal" unicode="&#x2260;" 
d="M601 413h531l-119 -109h-486l-114 -171l-127 -43l144 214h-344l134 109h284l127 189h-514l119 110h469l113 167l123 44l-141 -211h348l-119 -110h-302z" />
    <glyph glyph-name="A_E" unicode="&#xc6;" horiz-adv-x="1968" 
d="M1129 686l60 541q-222 -62 -364 -420q-30 -78 -40 -96l-12 -25h356zM2028 1358l-80 -205l-16 -37q-26 -59 -64 -59q-7 0 -15 1q12 50 12 80q0 66 -70 82.5t-347 16.5h-96l-61 -551h235q137 0 305 21q-118 -138 -246 -138l-85 1l-86 1h-70h-66l-49 -439q188 -27 326 -27
q223 0 376 143q17 -20 17 -38q0 -28 -59 -85q-152 -145 -369 -145l-111 3l-121 5l-163 10q-47 2 -72 2l63 571h-390l-16 -33l-40 -82q-119 -239 -297 -346l192 -11l-109 -114l-398 15l138 122l96 -6q87 49 144.5 131t143.5 284l18 40h-100l150 115q91 231 188 356t239 195
h-277q-439 0 -439 -285q0 -92 42 -175l-161 -152q-19 58 -19 144q0 280 236 457q157 119 481 119h711q186 0 379 13z" />
    <glyph glyph-name="O_slash" unicode="&#xd8;" horiz-adv-x="1404" 
d="M1300 1179q90 -148 90 -347q0 -352 -239 -612t-562 -260q-188 0 -314 139l-135 -143l-161 -78l257 272q-99 166 -99 355q0 358 238 619t563 261q196 0 322 -149l141 150l176 85zM382 306l740 784q-126 215 -305 215q-211 0 -350 -199t-139 -500q0 -153 54 -300z
M1151 1023l-738 -780q120 -203 297 -203q211 0 350 199t139 500q0 148 -48 284z" />
    <glyph glyph-name="infinity" unicode="&#x221e;" horiz-adv-x="1235" 
d="M645 451q-202 -211 -362 -211q-152 0 -152 148q0 140 102.5 264.5t217.5 124.5q114 0 227 -169l26 -38q196 212 361 212q153 0 153 -148q0 -140 -102.5 -264t-217.5 -124q-110 0 -227 168zM617 490l-28 41q-108 155 -203 155q-61 0 -111.5 -66.5t-50.5 -148.5
q0 -134 122 -134q129 0 271 153zM731 530l29 -39q113 -155 202 -155q62 0 112 66.5t50 148.5q0 134 -121 134q-136 0 -272 -155z" />
    <glyph glyph-name="plusminus" unicode="&#xb1;" 
d="M571 543h-464l119 123h358l28 249l130 119l-41 -368h463l-119 -123h-358l-25 -225l-129 -119zM47 0l119 123h937l-119 -123h-937z" />
    <glyph glyph-name="lessequal" unicode="&#x2264;" 
d="M154 532l91 114l895 388l-140 -178l-689 -239l64 -20q448 -139 743 -290l-83 -105q-167 87 -430.5 185.5t-450.5 144.5zM89 0l119 123h938l-119 -123h-938z" />
    <glyph glyph-name="greaterequal" unicode="&#x2265;" 
d="M1161 705l-90 -115l-895 -388l140 179l689 238l-64 20q-448 139 -743 291l83 104q411 -214 880 -329zM89 0l119 123h938l-119 -123h-938z" />
    <glyph glyph-name="yen" unicode="&#xa5;" horiz-adv-x="1132" 
d="M128 0l117 115l132 -9q114 69 137 214h-312l49 52h268q3 23 3 44q0 34 -4 75h-295l52 52h230l-6 22q-85 323 -204 323q-80 0 -109 -106q-36 5 -36 30q0 58 73 127t134 69q92 0 176.5 -140.5t102.5 -324.5h20l14 30q201 435 423 435q68 0 127 -36l-118 -123q-31 20 -75 20
q-165 0 -318 -326h290l-53 -52h-256q-13 -48 -25 -119h312l-52 -52h-271q-17 -110 -202 -217l283 -16l-110 -113z" />
    <glyph glyph-name="mu" unicode="&#xb5;" horiz-adv-x="1059" 
d="M813 899l161 55q-26 -123 -35 -208l-46 -412l-6 -66l-6 -54q-3 -35 -3 -63q0 -48 30 -48q77 0 169 183q20 -20 20 -36q0 -64 -111 -170t-178 -106q-78 0 -78 108q0 49 10 153l8 78l9 78q-176 -391 -363 -391q-55 0 -103 38l-45 -402l-148 -61l3 28l8 74l8 70l128 1152
l160 55q-26 -123 -35 -208l-40 -355q-5 -50 -5 -88q0 -168 120 -168q99 0 210.5 171t131.5 355z" />
    <glyph glyph-name="partialdiff" unicode="&#x2202;" 
d="M896 867q0 429 -221 429q-108 0 -184 -69q-18 18 -18 29q0 41 92.5 85t179.5 44q296 0 296 -442q0 -472 -188 -734q-178 -248 -409 -248q-106 0 -175 91t-69 230q0 227 167 418t365 191q101 0 164 -24zM887 733q-114 60 -225 60q-311 0 -311 -389q0 -334 202 -334
q206 0 280 300q54 222 54 363z" />
    <glyph glyph-name="summation" unicode="&#x2211;" horiz-adv-x="1054" 
d="M831 588l-686 -841h895l-141 -148h-976l750 924l-526 694l133 128h939l-138 -128h-732z" />
    <glyph glyph-name="product" unicode="&#x220f;" horiz-adv-x="1534" 
d="M1250 1210h-699l-162 -1458l-94 -65h285l-99 -88h-477l96 88h120l169 1523h-282l132 135h1463l-134 -135h-157l-162 -1458l-93 -65h284l-98 -88h-477l96 88h120z" />
    <glyph glyph-name="pi" unicode="&#x3c0;" horiz-adv-x="1219" 
d="M336 815h-252l118 116h1063l-126 -116h-137l-52 -463q-11 -100 -11 -163q0 -105 77 -105q92 0 170 135q17 -19 17 -36q0 -54 -101 -131.5t-172 -77.5q-136 0 -136 199q0 56 14 179l51 463h-381l-86 -775l-149 -61l3 28l8 74l8 70z" />
    <glyph glyph-name="integral" unicode="&#x222b;" horiz-adv-x="1218" 
d="M95 -267q59 49 116 49q35 0 56 -45l7 -14q27 -57 80 -57q118 0 153 263l26 194l24 174l44 403q37 334 128 483q61 100 158.5 170t177.5 70q99 0 153 -161q-60 -49 -116 -49q-34 0 -56 45l-7 15q-27 56 -79 56q-119 0 -154 -263l-26 -193l-24 -175l-44 -402
q-38 -335 -128 -483q-61 -101 -158.5 -170.5t-177.5 -69.5q-99 0 -153 160z" />
    <glyph glyph-name="ordinal.feminine" unicode="&#xaa;" horiz-adv-x="708" 
d="M755 979q32 -17 32 -33q0 -44 -72.5 -110.5t-120.5 -66.5q-54 0 -54 68q0 24 17 142q-153 -210 -280 -210q-111 0 -111 138q0 186 127 316t310 130q73 0 122 -19q-5 -17 -6 -22l-7 -31q-8 -31 -8 -36l-39 -256l-5 -37l-4 -32q-3 -25 -3 -30l-1 -13q0 -12 8 -12
q40 0 91 103zM597 1249q-56 25 -114 25q-88 0 -142.5 -92.5t-54.5 -240.5q0 -71 48 -71q75 0 156 103t99 221z" />
    <glyph glyph-name="ordinal.masculine" unicode="&#xba;" horiz-adv-x="604" 
d="M519 1361q154 0 154 -183q0 -152 -110 -280.5t-239 -128.5q-160 0 -160 180q0 157 110 284.5t245 127.5zM393 849q72 0 119 72.5t47 183.5q0 176 -116 176q-71 0 -118.5 -73t-47.5 -183q0 -176 116 -176z" />
    <glyph glyph-name="Omega" unicode="&#x3a9;" horiz-adv-x="1557" 
d="M45 0l137 135h237q-182 188 -182 462q0 237 167 465q237 323 622 323q214 0 349 -133t135 -344q0 -400 -427 -773h432l-134 -135h-508l138 135q310 300 310 698q0 203 -113.5 337t-285.5 134q-205 0 -352.5 -190.5t-147.5 -455.5q0 -169 73.5 -315t191.5 -208l-133 -135
h-509z" />
    <glyph glyph-name="Omega" unicode="&#x2126;" horiz-adv-x="1557" 
d="M45 0l137 135h237q-182 188 -182 462q0 237 167 465q237 323 622 323q214 0 349 -133t135 -344q0 -400 -427 -773h432l-134 -135h-508l138 135q310 300 310 698q0 203 -113.5 337t-285.5 134q-205 0 -352.5 -190.5t-147.5 -455.5q0 -169 73.5 -315t191.5 -208l-133 -135
h-509z" />
    <glyph glyph-name="a_e" unicode="&#xe6;" horiz-adv-x="1388" 
d="M728 397q-113 -186 -248.5 -304.5t-235.5 -118.5q-137 0 -137 221q0 304 199.5 526.5t472.5 222.5q104 0 177 -26q-18 -63 -31 -139l-6 -32q192 210 324 210q123 0 123 -131q0 -147 -142.5 -287t-347.5 -195q22 -241 190 -241t275 215q25 -17 25 -40q0 -32 -64 -106
q-171 -198 -345 -198q-244 0 -244 294q0 47 15 129zM785 794q-91 51 -184 51q-140 0 -235 -171t-95 -424q0 -130 77 -130q89 0 215 136q170 183 206 430zM880 466q29 -10 53 -10q124 0 216.5 76t92.5 177q0 118 -118 118q-87 0 -157 -103.5t-87 -257.5z" />
    <glyph glyph-name="o_slash" unicode="&#xf8;" horiz-adv-x="878" 
d="M832 844q40 -92 40 -178q0 -244 -175 -468t-365 -224q-93 0 -157 66l-51 -61l-115 -56l133 163q-40 84 -40 181q0 243 175 466.5t366 223.5q91 0 156 -66l50 61l122 62zM678 743q-52 102 -154 102q-115 0 -191.5 -128.5t-76.5 -320.5q0 -80 18 -149zM296 188
q50 -102 152 -102q114 0 192.5 127t78.5 312q0 87 -19 157z" />
    <glyph glyph-name="question.down" unicode="&#xbf;" horiz-adv-x="745" 
d="M445 390l167 151q15 -39 15 -88q0 -174 -179 -327l-57 -47l-23 -20q-167 -144 -167 -281q0 -205 218 -205q88 0 208 64q9 -17 9 -23q0 -38 -112.5 -78t-220.5 -40q-295 0 -295 224q0 156 225 301q68 44 85 60l26 23q110 99 110 223q0 27 -9 63zM585 957q45 -96 117 -142
l-148 -141q-66 50 -115 141z" />
    <glyph glyph-name="exclam.down" unicode="&#xa1;" horiz-adv-x="525" 
d="M252 430l127 95l-12 -167q-16 -215 -16 -376q0 -253 39 -416l-182 -70q-13 87 -13 176q0 178 26 420q12 123 14 141zM373 957q46 -96 118 -142l-149 -141q-65 49 -115 141z" />
    <glyph glyph-name="logicalnot" unicode="&#xac;" 
d="M100 472l117 123h880l-41 -368l-131 -129l42 374h-867z" />
    <glyph glyph-name="radical" unicode="&#x221a;" horiz-adv-x="1527" 
d="M124 229l33 139l251 253l410 -741l539 1478h89l-578 -1561l-109 -107l-416 753z" />
    <glyph glyph-name="florin" unicode="&#x192;" horiz-adv-x="725" 
d="M388 440l-78 -703l-152 -47q14 84 25 178l63 572h-226l118 103h126q61 212 223 352t348 140q46 0 104 -9l-135 -135q-71 28 -125 28q-236 0 -276 -346l-3 -30h362l-119 -103h-255z" />
    <glyph glyph-name="approxequal" unicode="&#x2248;" 
d="M224 554q-44 19 -44 52q0 103 79.5 202t161.5 99q83 0 223 -113l47 -39q136 -109 208 -109q150 0 175 229q44 -19 44 -52q0 -102 -79 -201t-161 -99q-84 0 -224 113l-47 38q-136 110 -208 110q-149 0 -175 -230zM174 109q-44 19 -44 52q0 102 79.5 201t161.5 99
q83 0 223 -113l48 -38q136 -110 208 -110q149 0 175 230q44 -19 44 -52q0 -102 -79.5 -201t-161.5 -99q-84 0 -223 113l-48 38q-135 109 -208 109q-148 0 -175 -229z" />
    <glyph glyph-name="Delta" unicode="&#x2206;" horiz-adv-x="1365" 
d="M17 0l851 1392q37 -120 116 -332l116 -310q133 -354 246 -602l-153 -148h-1176zM205 148h971q-41 75 -105 243q-13 34 -97 246q-97 244 -161 428l-19 54z" />
    <glyph glyph-name="guillemot.double.left" unicode="&#xab;" horiz-adv-x="1166" 
d="M524 406l92 93l544 387l-64 -147l-430 -260q207 -108 363 -337l-91 -94q-146 243 -414 358zM78 406l92 93l544 387l-64 -147l-430 -260q207 -108 364 -337l-92 -94q-146 243 -414 358z" />
    <glyph glyph-name="guillemot.double.right" unicode="&#xbb;" horiz-adv-x="1166" 
d="M733 528l-92 -93l-544 -387l64 147l430 260q-206 106 -363 337l91 94q145 -241 414 -358zM1179 528l-92 -93l-544 -387l64 147l431 260q-209 107 -364 337l91 94q143 -241 414 -358z" />
    <glyph glyph-name="ellipsis" unicode="&#x2026;" horiz-adv-x="1758" 
d="M290 -39q-45 95 -117 142l148 141q66 -49 115 -141zM759 103l148 141q66 -50 116 -141l-147 -142l-15 29q-35 70 -102 113zM1345 103l148 141q66 -49 116 -141l-147 -142q-7 10 -15 29q-9 23 -35 50l-43 47q-4 3 -24 16z" />
    <glyph glyph-name="nonbreakingspace" unicode="&#xa0;" horiz-adv-x="569" 
 />
    <glyph glyph-name="A_grave" unicode="&#xc0;" horiz-adv-x="1469" 
d="M319 774l-157 -151q-41 107 -41 207q0 248 215 400q180 128 616 128q74 0 130 -3q155 -10 159 -10h70q-78 -122 -78 -494l1 -52l4 -115q0 -207 51 -424q20 -84 39 -108t66 -24q51 0 116 33q7 -17 7 -28q0 -25 -39 -43l-47 -23l-246 -107q-82 253 -99 530l-76 -53h-336
q-92 -234 -252 -334l207 -10l-108 -114l-399 14l133 120l100 -6q68 50 116 140.5t143 350.5l30 83q92 251 175 365.5t226 188.5q-157 29 -331 29q-443 0 -443 -299q0 -102 48 -191zM1084 545q-14 174 -14 282q0 55 2 90l8 116q8 119 22 182q-196 -120 -322 -490
q-36 -107 -42 -123l-23 -57h369zM1208 1500q-123 79 -202 282l81 81q90 -194 208 -271z" />
    <glyph glyph-name="A_tilde" unicode="&#xc3;" horiz-adv-x="1469" 
d="M319 774l-157 -151q-41 107 -41 207q0 248 215 400q180 128 616 128q74 0 130 -3q155 -10 159 -10h70q-78 -122 -78 -494l1 -52l4 -115q0 -207 51 -424q20 -84 39 -108t66 -24q51 0 116 33q7 -17 7 -28q0 -25 -39 -43l-47 -23l-246 -107q-82 253 -99 530l-76 -53h-336
q-92 -234 -252 -334l207 -10l-108 -114l-399 14l133 120l100 -6q68 50 116 140.5t143 350.5l30 83q92 251 175 365.5t226 188.5q-157 29 -331 29q-443 0 -443 -299q0 -102 48 -191zM1084 545q-14 174 -14 282q0 55 2 90l8 116q8 119 22 182q-196 -120 -322 -490
q-36 -107 -42 -123l-23 -57h369zM897 1500q-26 11 -26 30q0 54 58.5 126.5t102.5 72.5q22 0 51 -18l31 -19l59 -35l28 -18q34 -21 56 -21q50 0 104 114q26 -9 26 -31q0 -48 -60.5 -123.5t-98.5 -75.5q-32 0 -61 18l-37 24l-54 33l-22 14q-35 21 -60 21q-54 0 -97 -112z" />
    <glyph glyph-name="O_tilde" unicode="&#xd5;" horiz-adv-x="1404" 
d="M596 -41q-196 0 -320.5 154.5t-124.5 397.5q0 353 238.5 613.5t562.5 260.5q201 0 326 -152.5t125 -398.5q0 -356 -239.5 -615.5t-567.5 -259.5zM727 40q207 0 346.5 199t139.5 494q0 247 -109 409.5t-274 162.5q-209 0 -349 -198.5t-140 -495.5q0 -248 109 -409.5
t277 -161.5zM740 1500q-26 11 -26 30q0 54 58.5 126.5t102.5 72.5q22 0 51 -18l31 -19l59 -35l28 -18q34 -21 56 -21q50 0 104 114q26 -9 26 -31q0 -48 -60.5 -123.5t-98.5 -75.5q-32 0 -61 18l-37 24l-54 33l-22 14q-35 21 -60 21q-54 0 -97 -112z" />
    <glyph glyph-name="O_E" unicode="&#x152;" horiz-adv-x="2055" 
d="M745 40l148 114q16 -1 23 -2l45 -4q3 0 19 -4q233 184 233 587q0 254 -110.5 413.5t-286.5 159.5q-198 0 -336 -201.5t-138 -491.5q0 -262 102 -406.5t301 -164.5zM2115 1358l-80 -205l-16 -37q-25 -59 -64 -59q-6 0 -15 1q12 51 12 80q0 66 -70 82.5t-347 16.5h-96
l-54 -484h195q170 0 301 16q-119 -144 -220 -144q-36 0 -90 6q-134 14 -173 14h-25l-6 -56q-15 -138 -79.5 -239.5t-210.5 -216.5l259 -23q165 -15 311 -15q223 0 385 143q8 -11 11 -23l2 -9q0 -31 -119 -119q-172 -127 -357 -127q-110 0 -450 25q-205 15 -250 15
q-107 -41 -239 -41q-223 0 -351 148t-128 404q0 351 238 612.5t557 261.5q193 0 335 -154l201 114h254q186 0 379 13z" />
    <glyph glyph-name="o_e" unicode="&#x153;" horiz-adv-x="1357" 
d="M869 721q176 236 344 236q122 0 122 -131q0 -147 -142.5 -287t-347.5 -195q22 -241 190 -241t275 215q25 -17 25 -40q0 -32 -64 -106q-171 -198 -338 -198q-191 0 -229 233q-184 -233 -375 -233q-226 0 -226 298q0 240 176 462.5t365 222.5q184 0 225 -236zM849 466
q6 -10 53 -10q125 0 217.5 76t92.5 177q0 118 -119 118q-82 0 -153 -99.5t-88 -239.5zM449 86q115 0 192.5 128t77.5 319q0 312 -194 312q-114 0 -191.5 -128.5t-77.5 -318.5q0 -312 193 -312z" />
    <glyph glyph-name="dash.en" unicode="&#x2013;" horiz-adv-x="879" 
d="M105 465l10 117h776l-10 -117h-776z" />
    <glyph glyph-name="dash.em" unicode="&#x2014;" horiz-adv-x="1758" 
d="M105 465l10 117h1655l-10 -117h-1655z" />
    <glyph glyph-name="quote.double.left" unicode="&#x201c;" horiz-adv-x="779" 
d="M819 1422l25 -28q-153 -112 -153 -242q0 -111 121 -190l-141 -140q-122 91 -122 216q0 177 270 384zM463 1422l25 -28q-153 -112 -153 -242q0 -111 120 -190l-140 -140q-122 91 -122 216q0 177 270 384z" />
    <glyph glyph-name="quote.double.right" unicode="&#x201d;" horiz-adv-x="779" 
d="M214 822l-26 28q153 111 153 243q0 110 -120 190l140 139q123 -91 123 -215q0 -178 -270 -385zM570 822l-26 28q154 111 154 243q0 110 -121 190l140 139q123 -91 123 -215q0 -178 -270 -385z" />
    <glyph glyph-name="quote.left" unicode="&#x2018;" horiz-adv-x="423" 
d="M463 1422l25 -28q-153 -112 -153 -242q0 -111 121 -190l-141 -140q-122 91 -122 216q0 177 270 384z" />
    <glyph glyph-name="quote.right" unicode="&#x2019;" horiz-adv-x="423" 
d="M214 822l-26 28q153 111 153 243q0 110 -120 190l140 139q123 -91 123 -215q0 -178 -270 -385z" />
    <glyph glyph-name="divide" unicode="&#xf7;" 
d="M1035 446h-938l119 123h938zM556 0q-45 95 -117 142l147 141q65 -45 117 -141zM639 725q-44 96 -117 142l149 141q65 -49 115 -141z" />
    <glyph glyph-name="lozenge" unicode="&#x25ca;" 
d="M1069 726l-56 -184l-441 -542l-354 619l54 179l448 547zM989 611l-325 571l-362 -450l325 -565z" />
    <glyph glyph-name="y_dieresis" unicode="&#xff;" horiz-adv-x="1110" 
d="M839 398q-101 -184 -211.5 -304t-180.5 -120q-96 0 -106 202l-7 139l-13 283l-3 81q-9 161 -59 161q-78 0 -152 -148q-26 18 -26 39q0 54 97 140t158 86q63 0 89 -56.5t34 -208.5l18 -350q10 -200 64 -200q81 0 201 185.5t154 364.5l39 204l178 62q-34 -88 -70 -266
l-134 -671q-79 -394 -244 -582q-247 -280 -572 -280q-68 0 -153 30l123 135q94 -42 196 -42q208 0 312 135t174 495zM574 1086q-33 73 -94 112l119 112q59 -42 89 -112zM897 1086q-33 73 -94 112l119 112q59 -42 89 -112z" />
    <glyph glyph-name="Y_dieresis" unicode="&#x178;" horiz-adv-x="1321" 
d="M195 0l140 124l122 -10q74 45 109.5 118t50.5 212l2 21q4 38 4 83q0 247 -102.5 478t-212.5 231q-83 0 -137 -126q-31 10 -31 39q0 61 81.5 138t146.5 77q135 0 252.5 -205t156.5 -508q82 299 250 506t329 207q63 0 122 -40l-113 -155q-43 27 -93 27
q-149 0 -304.5 -243.5t-189.5 -529.5l-2 -21q-15 -125 -57.5 -183.5t-171.5 -131.5l310 -14l-117 -116zM695 1500q-33 73 -94 112l119 112q59 -42 89 -112zM1018 1500q-33 73 -94 112l119 112q59 -42 89 -112z" />
    <glyph glyph-name="fraction" unicode="&#x2044;" horiz-adv-x="166" 
d="M-595 -65l1191 1410l164 64l-1188 -1409z" />
    <glyph glyph-name="currency" unicode="&#xa4;" horiz-adv-x="1306" 
d="M410 199l-187 -155l-207 -70l350 285q-50 79 -50 179q0 133 87 256l-257 243l89 71l251 -218q118 109 273 109q135 0 244 -101l172 142l233 68l-359 -275q41 -83 41 -165q0 -135 -87 -265l258 -243l-93 -86l-247 229q-138 -109 -282 -109q-114 0 -229 105zM720 208
q110 0 188 81t78 195q0 125 -88 213.5t-211 88.5q-113 0 -189.5 -77.5t-76.5 -192.5q0 -122 90 -215t209 -93z" />
    <glyph glyph-name="guillemot.single.left" unicode="&#x2039;" horiz-adv-x="720" 
d="M78 406l92 93l544 387l-64 -147l-430 -260q207 -108 364 -337l-92 -94q-145 242 -414 358z" />
    <glyph glyph-name="guillemot.single.right" unicode="&#x203a;" horiz-adv-x="720" 
d="M733 528l-92 -93l-544 -387l64 147l430 260q-206 106 -363 337l91 94q145 -241 414 -358z" />
    <glyph glyph-name="dagger.double" unicode="&#x2021;" 
d="M611 815h-375l99 103h282q1 25 1 28l1 109l2 110l-1 90v31l207 99l-7 -29q-41 -160 -60 -255l-28 -149l-6 -34h372l-104 -103h-279l-75 -673h375l-99 -103h-282q-1 -19 -1 -28l-1 -107l-2 -119l1 -82v-31l-207 -99l7 29q38 145 60 256l28 146l6 35h-372l104 103h279z" />
    <glyph glyph-name="period.centered" unicode="&#xb7;" 
d="M610 363q-45 95 -117 141l148 142q66 -50 115 -142z" />
    <glyph glyph-name="quote.single.baseline" unicode="&#x201a;" horiz-adv-x="423" 
d="M83 -362l-25 28q153 111 153 243q0 110 -121 189l141 140q122 -91 122 -216q0 -178 -270 -384z" />
    <glyph glyph-name="quote.double.baseline" unicode="&#x201e;" horiz-adv-x="779" 
d="M83 -362l-25 28q153 111 153 243q0 110 -121 189l141 140q122 -91 122 -216q0 -178 -270 -384zM439 -362l-25 28q153 111 153 243q0 110 -121 189l141 140q122 -91 122 -216q0 -178 -270 -384z" />
    <glyph glyph-name="perthousand" unicode="&#x2030;" horiz-adv-x="2115" 
d="M176 595q0 166 123.5 302.5t273.5 136.5q177 0 177 -206q0 -159 -125.5 -294.5t-273.5 -135.5q-75 0 -125 56t-50 141zM284 676q0 -211 164 -211q80 0 136.5 85.5t56.5 204.5q0 95 -41 153.5t-108 58.5q-91 0 -149.5 -81.5t-58.5 -209.5zM345 -155l796 1235l130 84
l-797 -1237zM867 171q0 166 123.5 302.5t273.5 136.5q176 0 176 -206q0 -159 -125 -294.5t-272 -135.5q-76 0 -126 56t-50 141zM975 253q0 -212 164 -212q79 0 136 85.5t57 204.5q0 212 -149 212q-91 0 -149.5 -81.5t-58.5 -208.5zM1530 170q0 167 123.5 303.5t273.5 136.5
q176 0 176 -202q0 -162 -124.5 -298t-273.5 -136q-75 0 -125 56t-50 140zM1638 253q0 -212 164 -212q79 0 136 85.5t57 204.5q0 212 -150 212q-90 0 -148.5 -82t-58.5 -208z" />
    <glyph glyph-name="A_circumflex" unicode="&#xc2;" horiz-adv-x="1469" 
d="M319 774l-157 -151q-41 107 -41 207q0 248 215 400q180 128 616 128q74 0 130 -3q155 -10 159 -10h70q-78 -122 -78 -494l1 -52l4 -115q0 -207 51 -424q20 -84 39 -108t66 -24q51 0 116 33q7 -17 7 -28q0 -25 -39 -43l-47 -23l-246 -107q-82 253 -99 530l-76 -53h-336
q-92 -234 -252 -334l207 -10l-108 -114l-399 14l133 120l100 -6q68 50 116 140.5t143 350.5l30 83q92 251 175 365.5t226 188.5q-157 29 -331 29q-443 0 -443 -299q0 -102 48 -191zM1084 545q-14 174 -14 282q0 55 2 90l8 116q8 119 22 182q-196 -120 -322 -490
q-36 -107 -42 -123l-23 -57h369zM1118 1725q-13 -16 -19 -24q-107 -139 -209 -201l53 124q91 49 161 156l80 82q54 -177 153 -272l-84 -90q-91 103 -135 225z" />
    <glyph glyph-name="E_circumflex" unicode="&#xca;" horiz-adv-x="1497" 
d="M313 770l-162 -156q-24 80 -24 152q0 280 233 453q170 126 484 126h330q186 0 380 13l-81 -205l-16 -37q-25 -59 -64 -59q-6 0 -14 1q11 50 11 80q0 66 -69.5 82.5t-346.5 16.5h-97l-53 -484h195q169 0 300 16q-114 -137 -230 -137q-65 0 -184 10q-49 3 -69 3h-24
l-10 -87q-21 -190 -66.5 -270t-178.5 -161l219 -17l89 -8q94 -7 225 -7q221 0 368 143q17 -19 17 -36q0 -28 -107 -115q-156 -127 -341 -127q-171 0 -492 29l-373 34q-19 1 -135 8l183 138q99 -17 238 -30q98 38 132 108t57 282l79 708h-35q-194 0 -304 -79.5t-110 -219.5
q0 -81 46 -168zM1142 1725q-13 -16 -19 -24q-107 -139 -209 -201l53 124q91 49 161 156l80 82q54 -177 153 -272l-84 -90q-91 103 -135 225z" />
    <glyph glyph-name="A_acute" unicode="&#xc1;" horiz-adv-x="1470" 
d="M319 774l-157 -151q-41 107 -41 207q0 248 215 400q180 128 616 128q74 0 130 -3q155 -10 159 -10h70q-78 -122 -78 -494l1 -52l4 -115q0 -207 51 -424q20 -84 39 -108t66 -24q51 0 116 33q7 -17 7 -28q0 -25 -39 -43l-47 -23l-246 -107q-82 253 -99 530l-76 -53h-336
q-92 -234 -252 -334l207 -10l-108 -114l-399 14l133 120l100 -6q68 50 116 140.5t143 350.5l30 83q92 251 175 365.5t226 188.5q-157 29 -331 29q-443 0 -443 -299q0 -102 48 -191zM1084 545q-14 174 -14 282q0 55 2 90l8 116q8 119 22 182q-196 -120 -322 -490
q-36 -107 -42 -123l-23 -57h369zM1149 1500l113 207q168 71 259 155q20 -32 20 -53q0 -103 -392 -309z" />
    <glyph glyph-name="E_dieresis" unicode="&#xcb;" horiz-adv-x="1497" 
d="M313 770l-162 -156q-24 80 -24 152q0 280 233 453q170 126 484 126h330q186 0 380 13l-81 -205l-16 -37q-25 -59 -64 -59q-6 0 -14 1q11 50 11 80q0 66 -69.5 82.5t-346.5 16.5h-97l-53 -484h195q169 0 300 16q-114 -137 -230 -137q-65 0 -184 10q-49 3 -69 3h-24
l-10 -87q-21 -190 -66.5 -270t-178.5 -161l219 -17l89 -8q94 -7 225 -7q221 0 368 143q17 -19 17 -36q0 -28 -107 -115q-156 -127 -341 -127q-171 0 -492 29l-373 34q-19 1 -135 8l183 138q99 -17 238 -30q98 38 132 108t57 282l79 708h-35q-194 0 -304 -79.5t-110 -219.5
q0 -81 46 -168zM974 1500q-33 73 -94 112l119 112q59 -42 89 -112zM1297 1500q-33 73 -94 112l119 112q59 -42 89 -112z" />
    <glyph glyph-name="E_grave" unicode="&#xc8;" horiz-adv-x="1497" 
d="M313 770l-162 -156q-24 80 -24 152q0 280 233 453q170 126 484 126h330q186 0 380 13l-81 -205l-16 -37q-25 -59 -64 -59q-6 0 -14 1q11 50 11 80q0 66 -69.5 82.5t-346.5 16.5h-97l-53 -484h195q169 0 300 16q-114 -137 -230 -137q-65 0 -184 10q-49 3 -69 3h-24
l-10 -87q-21 -190 -66.5 -270t-178.5 -161l219 -17l89 -8q94 -7 225 -7q221 0 368 143q17 -19 17 -36q0 -28 -107 -115q-156 -127 -341 -127q-171 0 -492 29l-373 34q-19 1 -135 8l183 138q99 -17 238 -30q98 38 132 108t57 282l79 708h-35q-194 0 -304 -79.5t-110 -219.5
q0 -81 46 -168zM1155 1500q-123 79 -202 282l81 81q90 -194 208 -271z" />
    <glyph glyph-name="I_acute" unicode="&#xcd;" horiz-adv-x="936" 
d="M307 776l-163 -156q-23 78 -23 155q0 258 192 414t510 156h79q-45 -229 -54 -308l-54 -489l-13 -111q-17 -142 -61.5 -205t-170.5 -123l290 -15l-120 -116l-487 22l128 124l109 -12q122 77 150 315l11 97l77 700h-31q-416 0 -416 -275q0 -86 47 -173zM748 1500l113 207
q168 71 259 155q20 -32 20 -53q0 -103 -392 -309z" />
    <glyph glyph-name="I_circumflex" unicode="&#xce;" horiz-adv-x="936" 
d="M307 776l-163 -156q-23 78 -23 155q0 258 192 414t510 156h79q-45 -229 -54 -308l-54 -489l-13 -111q-17 -142 -61.5 -205t-170.5 -123l290 -15l-120 -116l-487 22l128 124l109 -12q122 77 150 315l11 97l77 700h-31q-416 0 -416 -275q0 -86 47 -173zM858 1725
q-13 -16 -19 -24q-107 -139 -209 -201l53 124q91 49 161 156l80 82q54 -177 153 -272l-84 -90q-91 103 -135 225z" />
    <glyph glyph-name="I_dieresis" unicode="&#xcf;" horiz-adv-x="936" 
d="M307 776l-163 -156q-23 78 -23 155q0 258 192 414t510 156h79q-45 -229 -54 -308l-54 -489l-13 -111q-17 -142 -61.5 -205t-170.5 -123l290 -15l-120 -116l-487 22l128 124l109 -12q122 77 150 315l11 97l77 700h-31q-416 0 -416 -275q0 -86 47 -173zM641 1500
q-33 73 -94 112l119 112q59 -42 89 -112zM964 1500q-33 73 -94 112l119 112q59 -42 89 -112z" />
    <glyph glyph-name="I_grave" unicode="&#xcc;" horiz-adv-x="935" 
d="M307 776l-163 -156q-23 78 -23 155q0 258 192 414t510 156h79q-45 -229 -54 -308l-54 -489l-13 -111q-17 -142 -61.5 -205t-170.5 -123l290 -15l-120 -116l-487 22l128 124l109 -12q122 77 150 315l11 97l77 700h-31q-416 0 -416 -275q0 -86 47 -173zM874 1500
q-123 79 -202 282l81 81q90 -194 208 -271z" />
    <glyph glyph-name="O_acute" unicode="&#xd3;" horiz-adv-x="1404" 
d="M596 -41q-196 0 -320.5 154.5t-124.5 397.5q0 353 238.5 613.5t562.5 260.5q201 0 326 -152.5t125 -398.5q0 -356 -239.5 -615.5t-567.5 -259.5zM727 40q207 0 346.5 199t139.5 494q0 247 -109 409.5t-274 162.5q-209 0 -349 -198.5t-140 -495.5q0 -248 109 -409.5
t277 -161.5zM900 1500l113 207q168 71 259 155q20 -32 20 -53q0 -103 -392 -309z" />
    <glyph glyph-name="O_circumflex" unicode="&#xd4;" horiz-adv-x="1404" 
d="M596 -41q-196 0 -320.5 154.5t-124.5 397.5q0 353 238.5 613.5t562.5 260.5q201 0 326 -152.5t125 -398.5q0 -356 -239.5 -615.5t-567.5 -259.5zM727 40q207 0 346.5 199t139.5 494q0 247 -109 409.5t-274 162.5q-209 0 -349 -198.5t-140 -495.5q0 -248 109 -409.5
t277 -161.5zM978 1725q-13 -16 -19 -24q-107 -139 -209 -201l53 124q91 49 161 156l80 82q54 -177 153 -272l-84 -90q-91 103 -135 225z" />
    <glyph glyph-name="apple" unicode="&#xf8ff;" horiz-adv-x="1829" 
d="M1672 1202q-210 -148 -210 -357q0 -251 259 -385q-70 -201 -201.5 -350.5t-238.5 -149.5q-53 0 -143 34l-28 11l-47 18q-45 16 -108 16q-62 0 -137 -27l-36 -13l-45 -19q-52 -20 -106 -20q-171 0 -338 287t-167 581q0 250 139 403.5t366 153.5q85 0 160 -31l34 -14
l36 -15q47 -19 76 -19q38 0 84 17l47 18l34 13q85 31 185 31q240 0 385 -183zM1295 1809q2 -32 2 -49q0 -159 -115.5 -278.5t-269.5 -119.5q-4 35 -4 52q0 134 107.5 252t248.5 139q10 1 31 4z" />
    <glyph glyph-name="O_grave" unicode="&#xd2;" horiz-adv-x="1404" 
d="M596 -41q-196 0 -320.5 154.5t-124.5 397.5q0 353 238.5 613.5t562.5 260.5q201 0 326 -152.5t125 -398.5q0 -356 -239.5 -615.5t-567.5 -259.5zM727 40q207 0 346.5 199t139.5 494q0 247 -109 409.5t-274 162.5q-209 0 -349 -198.5t-140 -495.5q0 -248 109 -409.5
t277 -161.5zM1008 1500q-123 79 -202 282l81 81q90 -194 208 -271z" />
    <glyph glyph-name="U_acute" unicode="&#xda;" horiz-adv-x="1750" 
d="M307 776l-163 -156q-23 78 -23 155q0 258 192 414t510 156h146q-90 -174 -147 -416t-57 -448q0 -414 252 -414q170 0 274 164.5t135 482.5q14 145 19 189l42 377l198 103q-43 -165 -70 -407l-36 -320q-2 -17 -11 -113l-14 -139q-8 -79 -8 -136q0 -100 76 -100
q60 0 135 47l3 -12q2 -12 2 -19q0 -29 -55 -55l-59 -29l-294 -140l37 334q-214 -335 -461 -335q-338 0 -338 516q0 349 168 749h-84q-416 0 -416 -275q0 -86 47 -173zM1241 1500l113 207q168 71 259 155q20 -32 20 -53q0 -103 -392 -309z" />
    <glyph glyph-name="U_circumflex" unicode="&#xdb;" horiz-adv-x="1750" 
d="M307 776l-163 -156q-23 78 -23 155q0 258 192 414t510 156h146q-90 -174 -147 -416t-57 -448q0 -414 252 -414q170 0 274 164.5t135 482.5q14 145 19 189l42 377l198 103q-43 -165 -70 -407l-36 -320q-2 -17 -11 -113l-14 -139q-8 -79 -8 -136q0 -100 76 -100
q60 0 135 47l3 -12q2 -12 2 -19q0 -29 -55 -55l-59 -29l-294 -140l37 334q-214 -335 -461 -335q-338 0 -338 516q0 349 168 749h-84q-416 0 -416 -275q0 -86 47 -173zM1307 1725q-13 -16 -19 -24q-107 -139 -209 -201l53 124q91 49 161 156l80 82q54 -177 153 -272l-84 -90
q-91 103 -135 225z" />
    <glyph glyph-name="U_grave" unicode="&#xd9;" horiz-adv-x="1750" 
d="M307 776l-163 -156q-23 78 -23 155q0 258 192 414t510 156h146q-90 -174 -147 -416t-57 -448q0 -414 252 -414q170 0 274 164.5t135 482.5q14 145 19 189l42 377l198 103q-43 -165 -70 -407l-36 -320q-2 -17 -11 -113l-14 -139q-8 -79 -8 -136q0 -100 76 -100
q60 0 135 47l3 -12q2 -12 2 -19q0 -29 -55 -55l-59 -29l-294 -140l37 334q-214 -335 -461 -335q-338 0 -338 516q0 349 168 749h-84q-416 0 -416 -275q0 -86 47 -173zM1306 1500q-123 79 -202 282l81 81q90 -194 208 -271z" />
    <glyph glyph-name="i.dotless" unicode="&#x131;" horiz-adv-x="606" 
d="M591 291q27 -16 27 -31q0 -36 -87 -142q-117 -144 -217 -144q-73 0 -73 97q0 41 30 252l39 272l10 69l8 55q5 35 5 59q0 50 -28 50q-78 0 -168 -172q-19 17 -19 34q0 61 112.5 164t179.5 103q75 0 75 -104q0 -20 -8 -82l-9 -67q-1 -8 -11 -81l-41 -286l-10 -64
q-13 -95 -13 -127q0 -43 25 -43q84 0 173 188z" />
    <glyph glyph-name="circumflex" unicode="&#x2c6;" horiz-adv-x="914" 
d="M677 1311q-13 -16 -19 -24q-107 -139 -209 -201l53 124q91 49 161 156l80 82q54 -177 153 -272l-84 -90q-91 103 -135 225z" />
    <glyph glyph-name="tilde" unicode="&#x2dc;" horiz-adv-x="914" 
d="M417 1086q-26 11 -26 30q0 54 58.5 126.5t102.5 72.5q22 0 51 -18l31 -19l59 -35l28 -18q34 -21 56 -21q50 0 104 114q26 -9 26 -31q0 -48 -60.5 -123.5t-98.5 -75.5q-32 0 -61 18l-37 24l-54 33l-22 14q-35 21 -60 21q-54 0 -97 -112z" />
    <glyph glyph-name="macron" unicode="&#xaf;" horiz-adv-x="914" 
d="M346 1086l104 104h467l-102 -104h-469z" />
    <glyph glyph-name="breve" unicode="&#x2d8;" horiz-adv-x="914" 
d="M501 1325l113 117q-2 -22 -2 -33q-3 -33 -3 -47q0 -166 91 -166q58 0 115.5 69.5t86.5 176.5q34 -10 34 -39q0 -94 -98.5 -205.5t-180.5 -111.5q-156 0 -156 239z" />
    <glyph glyph-name="dot.accent" unicode="&#x2d9;" horiz-adv-x="914" 
d="M648 1086q-45 95 -117 142l148 141q66 -50 115 -141z" />
    <glyph glyph-name="ring" unicode="&#x2da;" horiz-adv-x="914" 
d="M606 1086q-119 0 -119 113q0 92 87.5 176.5t183.5 84.5q119 0 119 -116q0 -88 -89.5 -173t-181.5 -85zM684 1162q109 0 109 113q0 108 -110 108q-111 0 -111 -108q0 -113 112 -113z" />
    <glyph glyph-name="cedilla" unicode="&#xb8;" horiz-adv-x="914" 
d="M361 0h76l-60 -102q130 -45 130 -154q0 -76 -76.5 -143t-164.5 -67q-36 0 -52 52q183 14 183 121q0 87 -135 114z" />
    <glyph glyph-name="umlaut.hungarian" unicode="&#x2dd;" horiz-adv-x="915" 
d="M515 1086l-22 112l152 228l26 -114zM822 1086l-22 112l152 228l26 -114z" />
    <glyph glyph-name="ogonek" unicode="&#x2db;" horiz-adv-x="914" 
d="M362 0h57q-130 -144 -130 -251q0 -83 70 -79q73 4 114 67q18 -14 18 -30q0 -37 -70 -79t-131 -42q-111 0 -111 106q0 122 183 308z" />
    <glyph glyph-name="caron" unicode="&#x2c7;" horiz-adv-x="914" 
d="M697 1223q13 16 19 25q107 138 209 200l-53 -123q-91 -50 -160 -157l-81 -82q-55 179 -153 272l84 90q91 -103 135 -225z" />
    <glyph glyph-name="L_slash" unicode="&#x141;" horiz-adv-x="1311" 
d="M413 127l207 -17l92 -7l111 -7q44 -3 99 -3q248 0 387 144q16 -20 16 -29q0 -33 -96 -113q-164 -135 -352 -135q-77 0 -189 8l-297 22q-232 17 -402 36l168 131q77 -14 130 -17q115 44 162 153t47 329v11l-229 -66l8 74l223 64l2 72q0 299 204 468q170 140 359 140
q81 0 166 -37l-148 -145q-91 59 -180 59q-223 0 -223 -365l-4 -141l227 67l-9 -74l-220 -65l-1 -23q-13 -242 -64 -347.5t-194 -186.5z" />
    <glyph glyph-name="l_slash" unicode="&#x142;" horiz-adv-x="546" 
d="M511 294q29 -14 29 -36q0 -72 -107.5 -178t-180.5 -106q-83 0 -83 122q0 71 9 147l10 89l38 334l-213 -101l28 80l192 91l33 292q36 318 218.5 531t420.5 213q57 0 98 -10l-142 -145q-47 16 -111 16q-149 0 -223.5 -105.5t-102.5 -357.5l-41 -364l236 112l-32 -79
l-211 -102l-45 -405q-11 -96 -11 -141q0 -88 31 -88q37 0 87 60t73 131z" />
    <glyph glyph-name="S_caron" unicode="&#x160;" horiz-adv-x="1076" 
d="M86 177l170 103q40 -246 295 -246q124 0 203 67.5t79 173.5q0 145 -175 288l-121 98q-146 120 -195 189.5t-49 156.5q0 164 131 271t331 107q159 0 301 -76l-58 -133l-26 -59q-22 -52 -52 -52q-13 0 -27 10q17 52 17 83q0 64 -70.5 107t-174.5 43q-236 0 -236 -195
q0 -70 52.5 -134.5t218.5 -199.5l97 -80q185 -150 185 -315q0 -182 -153.5 -303t-383.5 -121q-280 0 -359 217zM798 1637q13 16 19 25q107 138 209 200l-53 -123q-91 -50 -160 -157l-81 -82q-55 179 -153 272l84 90q91 -103 135 -225z" />
    <glyph glyph-name="s_caron" unicode="&#x161;" horiz-adv-x="728" 
d="M43 28l138 113q78 -83 196 -83q144 0 144 139q0 77 -132 215l-57 59q-125 131 -125 212q0 116 100.5 195t247.5 79q80 0 175 -30l-120 -111q-76 57 -169 57q-109 0 -109 -91q0 -65 121 -191l62 -66q138 -144 138 -232q0 -126 -121 -222.5t-279 -96.5q-112 0 -210 54z
M596 1223q13 16 19 25q107 138 209 200l-53 -123q-91 -50 -160 -157l-81 -82q-55 179 -153 272l84 90q91 -103 135 -225z" />
    <glyph glyph-name="Z_caron" unicode="&#x17d;" horiz-adv-x="1207" 
d="M93 -40q-25 21 -25 43q0 31 48 91l48 59l859 1027q-44 -8 -74 -8q-98 0 -242 53l-46 17l-41 15q-49 18 -106 18q-147 0 -147 -227q0 -31 7 -72l-158 -100q-1 26 -1 37q0 192 133 332t316 140q65 0 164 -27l42 -12q85 -23 156 -23q135 0 194 62q25 -20 25 -42
q0 -28 -55 -88q-12 -13 -52 -61l-854 -1031q64 7 113 7q51 0 149 -14l76 -11l130 -22q102 -18 172 -18q176 0 224 134q37 -11 37 -30q0 -38 -60 -124q-86 -125 -227 -125q-45 0 -166 16l-92 12l-98 13q-90 13 -173 13q-141 0 -276 -54zM904 1637q13 16 19 25
q107 138 209 200l-53 -123q-91 -50 -160 -157l-81 -82q-55 179 -153 272l84 90q91 -103 135 -225z" />
    <glyph glyph-name="z_caron" unicode="&#x17e;" horiz-adv-x="843" 
d="M47 -21l83 160q57 60 110 128l64 79q32 41 49 61l46 56q22 27 70 90l90 116l77 102q8 9 23 28q-20 -2 -29 -2q-70 0 -190 34l-36 10l-30 10q-28 8 -49 8q-70 0 -70 -79q0 -30 16 -61l-117 -101q-4 34 -4 50q0 116 77.5 202.5t181.5 86.5q28 0 71 -8l58 -10l48 -7
q83 -14 116 -14q74 0 157 33l-87 -160q-74 -82 -151 -177l-79 -99l-70 -87l-46 -57l-42 -51q-58 -71 -65 -81l-48 -69q-8 -11 -37 -46q55 6 91 6q64 0 143 -11l65 -9l61 -8q36 -5 73 -5q93 0 136 58q17 -16 17 -29q0 -52 -57 -99.5t-120 -47.5q-29 0 -73 5q-37 4 -65 6
l-59 4q-73 6 -143 6q-145 0 -256 -21zM632 1223q13 16 19 25q107 138 209 200l-53 -123q-91 -50 -160 -157l-81 -82q-55 179 -153 272l84 90q91 -103 135 -225z" />
    <glyph glyph-name="bar.vert.broken" unicode="&#xa6;" horiz-adv-x="418" orientation="v" 
d="M204 543l147 155l-73 -653l-146 -155zM289 1299l146 156l-67 -602l-146 -155z" />
    <glyph glyph-name="D_bar.Eth" unicode="&#xd0;" horiz-adv-x="1727" 
d="M714 1273q-453 -53 -453 -327q0 -82 44 -171l-162 -152q-22 49 -22 145q0 300 233.5 458.5t673.5 158.5q726 0 726 -505q0 -302 -204 -557q-271 -337 -826 -337q-233 0 -525 41l139 147q51 -19 142 -34q74 45 101.5 115t49.5 273l11 104h-296l117 81h188zM804 632
l-10 -87l-10 -94q-15 -131 -56 -191t-161 -130q219 -30 409 -30q177 0 273.5 49.5t188.5 187.5q129 192 129 431q0 528 -656 528h-33l-65 -583h351l-118 -81h-242z" />
    <glyph glyph-name="eth" unicode="&#xf0;" horiz-adv-x="961" 
d="M796 932q0 218 -59 395l-376 -182l10 75l346 170q-92 252 -233 252q-57 0 -116.5 -51.5t-83.5 -121.5q-32 12 -32 39q0 74 120 168.5t213 94.5q184 0 286 -306l343 166l-9 -80l-317 -151q53 -193 53 -448q0 -555 -259 -818q-157 -160 -318 -160q-116 0 -189 88.5
t-73 228.5q0 250 170.5 456t377.5 206q71 0 146 -21zM783 796q-100 59 -210 59q-146 0 -232.5 -113t-86.5 -304q0 -354 222 -354q138 0 222.5 196.5t84.5 515.5z" />
    <glyph glyph-name="Y_acute" unicode="&#xdd;" horiz-adv-x="1321" 
d="M195 0l140 124l122 -10q74 45 109.5 118t50.5 212l2 21q4 38 4 83q0 247 -102.5 478t-212.5 231q-83 0 -137 -126q-31 10 -31 39q0 61 81.5 138t146.5 77q135 0 252.5 -205t156.5 -508q82 299 250 506t329 207q63 0 122 -40l-113 -155q-43 27 -93 27
q-149 0 -304.5 -243.5t-189.5 -529.5l-2 -21q-15 -125 -57.5 -183.5t-171.5 -131.5l310 -14l-117 -116zM782 1500l113 207q168 71 259 155q20 -32 20 -53q0 -103 -392 -309z" />
    <glyph glyph-name="y_acute" unicode="&#xfd;" horiz-adv-x="1110" 
d="M839 398q-101 -184 -211.5 -304t-180.5 -120q-96 0 -106 202l-7 139l-13 283l-3 81q-9 161 -59 161q-78 0 -152 -148q-26 18 -26 39q0 54 97 140t158 86q63 0 89 -56.5t34 -208.5l18 -350q10 -200 64 -200q81 0 201 185.5t154 364.5l39 204l178 62q-34 -88 -70 -266
l-134 -671q-79 -394 -244 -582q-247 -280 -572 -280q-68 0 -153 30l123 135q94 -42 196 -42q208 0 312 135t174 495zM632 1086l113 207q168 71 259 155q20 -32 20 -53q0 -103 -392 -309z" />
    <glyph glyph-name="Thorn" unicode="&#xde;" horiz-adv-x="1155" 
d="M579 541q57 -11 149 -11q337 0 337 274q0 286 -425 286zM1287 1810l-148 -145q-84 57 -167 57q-262 0 -318 -506l-4 -35l67 1q478 0 478 -282q0 -418 -628 -464q-11 -132 -59.5 -200t-173.5 -127l264 -15l-120 -116l-461 22l129 124l109 -12q122 77 150 315l10 97l51 455
q44 395 220 629t430 234q92 0 171 -32z" />
    <glyph glyph-name="thorn" unicode="&#xfe;" horiz-adv-x="1019" 
d="M328 -12l-8 -79q-31 -310 -224 -530t-434 -220q-50 0 -96 12l145 144q57 -17 108 -17q297 0 344 464l127 1260q31 306 228 527.5t438 221.5q50 0 96 -11l-147 -144q-57 17 -107 17q-302 0 -350 -464l-65 -636q106 186 238 305t232 119q144 0 144 -246q0 -293 -189 -508.5
t-446 -215.5zM343 137q81 -51 183 -51q137 0 222.5 160t85.5 415q0 149 -81 149q-89 0 -211 -136q-163 -181 -188 -429z" />
    <glyph glyph-name="minus" unicode="&#x2212;" 
d="M1035 446h-938l119 123h938z" />
    <glyph glyph-name="multiply" unicode="&#xd7;" 
d="M99 -37l84 195l335 300l-15 22l-78 117q-156 235 -218 355l123 82q114 -218 284 -457l14 -19l513 480l-71 -171l-392 -372q183 -246 355 -411l23 -22l-113 -101q-170 171 -349 400l-26 34z" />
    <glyph glyph-name="one.superior" unicode="&#xb9;" horiz-adv-x="750" 
d="M517 855h175l-86 -66h-361l87 66h88l3 6q15 30 24 111l55 499q-54 -36 -77 -49l-64 -36l-14 -8q-6 -3 -18 -10l9 83l7 2q78 27 173 84l64 38l25 15q5 4 16 11l-73 -659q-8 -70 -32 -86z" />
    <glyph glyph-name="two.superior" unicode="&#xb2;" horiz-adv-x="750" 
d="M134 792l93 99l1 1q150 86 270 229t120 235q0 158 -154 158q-83 0 -147 -52q-3 -2 -7 -6q-23 19 -23 33q0 35 74.5 65.5t158.5 30.5q228 0 228 -184q0 -198 -421 -509l422 -11l-98 -101z" />
    <glyph glyph-name="three.superior" unicode="&#xb3;" horiz-adv-x="750" 
d="M522 1236q173 -38 173 -182q0 -112 -108 -198.5t-246 -86.5q-76 0 -146 22q-6 2 -17 6l88 91q83 -38 161 -38q168 0 168 157q0 163 -240 163q-39 0 -78 -9l91 85q16 1 22 1h21h14l23 9q150 56 150 159q0 101 -112 101q-83 0 -137 -52l-10 -10q-13 25 -13 34q0 32 70 64.5
t139 32.5q182 0 182 -141q0 -120 -195 -208z" />
    <glyph glyph-name="onehalf" unicode="&#xbd;" horiz-adv-x="1552" 
d="M448 639h175l-86 -66h-361l87 66h88l3 6q15 30 24 111l55 499q-54 -36 -77 -49l-64 -36l-14 -8q-6 -3 -18 -10l9 83l7 2q78 27 173 84l64 38l25 15q5 4 16 11l-73 -659q-8 -70 -32 -86zM139 -65l1191 1410l164 64l-1188 -1409zM852 1l93 99l1 1q150 86 270 229t120 235
q0 158 -154 158q-83 0 -147 -52q-3 -2 -7 -6q-23 19 -23 33q0 35 74.5 65.5t158.5 30.5q228 0 228 -184q0 -198 -421 -509l422 -11l-98 -101z" />
    <glyph glyph-name="onequarter" unicode="&#xbc;" horiz-adv-x="1552" 
d="M476 639h175l-86 -66h-361l87 66h88l3 6q15 30 24 111l55 499q-54 -36 -77 -49l-64 -36l-14 -8q-6 -3 -18 -10l9 83l7 2q78 27 173 84l64 38l25 15q5 4 16 11l-73 -659q-8 -70 -32 -86zM191 -65l1191 1410l164 64l-1188 -1409zM1193 252h-448l605 605l-59 -532h159
l-65 -73h-102l-25 -225l-96 -45q1 14 2 18l2 16q2 24 5 43l5 41zM1201 325l35 320l-328 -320h293z" />
    <glyph glyph-name="threequarters" unicode="&#xbe;" horiz-adv-x="1552" 
d="M470 1016q173 -38 173 -182q0 -112 -108 -198.5t-246 -86.5q-76 0 -146 22q-6 2 -17 6l88 91q83 -38 161 -38q168 0 168 157q0 163 -240 163q-39 0 -78 -9l91 85q16 1 22 1h21h14l23 9q150 56 150 159q0 101 -112 101q-83 0 -137 -52l-10 -10q-13 25 -13 34q0 32 70 64.5
t139 32.5q182 0 182 -141q0 -120 -195 -208zM166 -65l1191 1410l164 64l-1188 -1409zM1244 252h-448l605 605l-59 -532h159l-65 -73h-102l-25 -225l-96 -45q1 14 2 18l2 16q2 24 5 43l5 41zM1252 325l35 320l-328 -320h293z" />
    <glyph glyph-name="franc" unicode="&#x20a3;" horiz-adv-x="1058" 
d="M134 0l116 112l125 -8q109 51 132 193h-236l41 52h201l63 566q-150 0 -237 -58.5t-87 -157.5q0 -16 3 -50l-133 -132q-11 45 -11 72q0 204 213 335q138 84 403 84h154l102 1q92 0 158 11q-3 -13 -5 -19q-23 -100 -115 -100q-16 0 -74 3l-99 5l-97 9h-32l-35 -310h181
q82 0 146 10q-3 -12 -4 -18q-17 -90 -112 -90q-12 0 -64 4q-50 3 -104 3h-53l-19 -168h234l-30 -52h-209q-25 -91 -201 -198l291 -16l-113 -109z" />
    <glyph glyph-name="G_breve" unicode="&#x11e;" horiz-adv-x="1356" 
d="M1045 116q-226 -157 -445 -157q-207 0 -333.5 153t-126.5 404q0 371 234 620t584 249q177 0 367 -67l-67 -147l-19 -43q-24 -51 -59 -51q-7 0 -21 3q14 31 14 51q0 67 -89.5 117t-208.5 50q-249 0 -399 -195.5t-150 -518.5q0 -237 105 -370t292 -133q172 0 333 136
l41 361h-170q-173 0 -277 -34q50 102 94.5 128t167.5 26l101 1h266l-10 -41l-16 -63q-13 -56 -18 -97l-44 -402q-23 -203 -59 -303.5t-118 -185.5q-164 -172 -392 -172q-210 0 -327 144l149 118q92 -177 283 -177q144 0 207.5 90.5t91.5 332.5zM791 1739l113 117
q-2 -22 -2 -33q-3 -33 -3 -47q0 -166 91 -166q58 0 115.5 69.5t86.5 176.5q34 -10 34 -39q0 -94 -98.5 -205.5t-180.5 -111.5q-156 0 -156 239z" />
    <glyph glyph-name="g_breve" unicode="&#x11f;" horiz-adv-x="955" 
d="M766 794q-72 51 -181 51q-137 0 -231.5 -172t-94.5 -423q0 -130 77 -130q88 0 215 136q176 189 202 428zM937 918q-5 -18 -6 -22l-11 -53q-13 -58 -14 -64l-40 -366q-10 -92 -21 -323q-14 -289 -55 -428t-145 -248q-238 -251 -507 -251q-130 0 -216 88t-86 220
q0 269 329 531q-70 55 -70 194q0 302 199 525t470 223q115 0 173 -26zM721 393q-270 -412 -489 -412q-9 0 -32 2q-232 -234 -232 -417q0 -125 88.5 -209.5t219.5 -84.5q202 0 310 178q82 137 114 653q12 195 21 290zM527 1325l113 117q-2 -22 -2 -33q-3 -33 -3 -47
q0 -166 91 -166q58 0 115.5 69.5t86.5 176.5q34 -10 34 -39q0 -94 -98.5 -205.5t-180.5 -111.5q-156 0 -156 239z" />
    <glyph glyph-name="I_dot.accent" unicode="&#x130;" horiz-adv-x="935" 
d="M307 776l-163 -156q-23 78 -23 155q0 258 192 414t510 156h79q-45 -229 -54 -308l-54 -489l-13 -111q-17 -142 -61.5 -205t-170.5 -123l290 -15l-120 -116l-487 22l128 124l109 -12q122 77 150 315l11 97l77 700h-31q-416 0 -416 -275q0 -86 47 -173zM810 1500
q-45 95 -117 142l148 141q66 -50 115 -141z" />
    <glyph glyph-name="S_cedilla" unicode="&#x15e;" horiz-adv-x="1076" 
d="M86 177l170 103q40 -246 295 -246q124 0 203 67.5t79 173.5q0 145 -175 288l-121 98q-146 120 -195 189.5t-49 156.5q0 164 131 271t331 107q159 0 301 -76l-58 -133l-26 -59q-22 -52 -52 -52q-13 0 -27 10q17 52 17 83q0 64 -70.5 107t-174.5 43q-236 0 -236 -195
q0 -70 52.5 -134.5t218.5 -199.5l97 -80q185 -150 185 -315q0 -182 -153.5 -303t-383.5 -121q-280 0 -359 217zM454 0h76l-60 -102q130 -45 130 -154q0 -76 -76.5 -143t-164.5 -67q-36 0 -52 52q183 14 183 121q0 87 -135 114z" />
    <glyph glyph-name="s_cedilla" unicode="&#x15f;" horiz-adv-x="728" 
d="M43 28l138 113q78 -83 196 -83q144 0 144 139q0 77 -132 215l-57 59q-125 131 -125 212q0 116 100.5 195t247.5 79q80 0 175 -30l-120 -111q-76 57 -169 57q-109 0 -109 -91q0 -65 121 -191l62 -66q138 -144 138 -232q0 -126 -121 -222.5t-279 -96.5q-112 0 -210 54z
M263 0h76l-60 -102q130 -45 130 -154q0 -76 -76.5 -143t-164.5 -67q-36 0 -52 52q183 14 183 121q0 87 -135 114z" />
    <glyph glyph-name="C_acute" unicode="&#x106;" horiz-adv-x="1275" 
d="M1171 349q23 -11 23 -32q0 -66 -121 -174q-205 -183 -466 -183q-211 0 -336.5 152.5t-125.5 409.5q0 367 235 615t583 248q177 0 367 -67l-67 -147l-19 -43q-24 -51 -59 -51q-7 0 -21 3q14 31 14 51q0 67 -89.5 117t-208.5 50q-244 0 -396.5 -193t-152.5 -502
q0 -239 107 -381t286 -142q129 0 257.5 77.5t189.5 191.5zM914 1500l113 207q168 71 259 155q20 -32 20 -53q0 -103 -392 -309z" />
    <glyph glyph-name="c_acute" unicode="&#x107;" horiz-adv-x="784" 
d="M803 931l-114 -137q-80 33 -153 33q-131 0 -206.5 -111t-75.5 -304q0 -136 54.5 -219t142.5 -83q149 0 234 195q22 -24 22 -45q0 -83 -129.5 -184.5t-237.5 -101.5q-104 0 -170.5 83.5t-66.5 216.5q0 259 176 471t391 212q78 0 133 -26zM531 1086l113 207q168 71 259 155
q20 -32 20 -53q0 -103 -392 -309z" />
    <glyph glyph-name="C_caron" unicode="&#x10c;" horiz-adv-x="1275" 
d="M1171 349q23 -11 23 -32q0 -66 -121 -174q-205 -183 -466 -183q-211 0 -336.5 152.5t-125.5 409.5q0 367 235 615t583 248q177 0 367 -67l-67 -147l-19 -43q-24 -51 -59 -51q-7 0 -21 3q14 31 14 51q0 67 -89.5 117t-208.5 50q-244 0 -396.5 -193t-152.5 -502
q0 -239 107 -381t286 -142q129 0 257.5 77.5t189.5 191.5zM1016 1637q13 16 19 25q107 138 209 200l-53 -123q-91 -50 -160 -157l-81 -82q-55 179 -153 272l84 90q91 -103 135 -225z" />
    <glyph glyph-name="c_caron" unicode="&#x10d;" horiz-adv-x="784" 
d="M803 931l-114 -137q-80 33 -153 33q-131 0 -206.5 -111t-75.5 -304q0 -136 54.5 -219t142.5 -83q149 0 234 195q22 -24 22 -45q0 -83 -129.5 -184.5t-237.5 -101.5q-104 0 -170.5 83.5t-66.5 216.5q0 259 176 471t391 212q78 0 133 -26zM626 1223q13 16 19 25
q107 138 209 200l-53 -123q-91 -50 -160 -157l-81 -82q-55 179 -153 272l84 90q91 -103 135 -225z" />
    <glyph glyph-name="d_bar.croat" unicode="&#x111;" horiz-adv-x="1051" 
d="M943 1170l-93 -833l-7 -64q-9 -85 -9 -121q0 -49 26 -49q83 0 167 188q27 -16 27 -32q0 -36 -81 -141q-113 -144 -212 -144q-77 0 -77 106q0 39 12 155l10 88l8 74q-68 -150 -220.5 -286.5t-251.5 -136.5q-141 0 -141 221q0 289 195 519t440 230q12 0 39 -2l10 86
q1 10 8 51l11 65q1 4 5 26h-237l66 65h187q61 224 235.5 380.5t363.5 156.5q57 0 98 -10l-142 -145q-47 16 -111 16q-141 0 -214 -91.5t-104 -306.5h284l-65 -65h-227zM759 799q-84 46 -154 46q-148 0 -244 -168t-96 -427q0 -130 76 -130q92 0 216 136q161 175 190 430z" />
    <glyph glyph-name="A_macron" unicode="&#x100;" horiz-adv-x="1469" 
d="M319 774l-157 -151q-41 107 -41 207q0 248 215 400q180 128 616 128q74 0 130 -3q155 -10 159 -10h70q-78 -122 -78 -494l1 -52l4 -115q0 -207 51 -424q20 -84 39 -108t66 -24q51 0 116 33q7 -17 7 -28q0 -25 -39 -43l-47 -23l-246 -107q-82 253 -99 530l-76 -53h-336
q-92 -234 -252 -334l207 -10l-108 -114l-399 14l133 120l100 -6q68 50 116 140.5t143 350.5l30 83q92 251 175 365.5t226 188.5q-157 29 -331 29q-443 0 -443 -299q0 -102 48 -191zM1084 545q-14 174 -14 282q0 55 2 90l8 116q8 119 22 182q-196 -120 -322 -490
q-36 -107 -42 -123l-23 -57h369zM823 1500l104 104h467l-102 -104h-469z" />
    <glyph glyph-name="a_macron" unicode="&#x101;" horiz-adv-x="1051" 
d="M728 397q-113 -186 -248.5 -304.5t-235.5 -118.5q-137 0 -137 221q0 304 199.5 526.5t472.5 222.5q104 0 177 -26q-5 -18 -6 -22l-12 -53q-12 -55 -13 -64l-64 -442l-9 -64q-13 -95 -13 -127q0 -43 25 -43q84 0 172 188q27 -16 27 -32q0 -35 -86 -141
q-117 -144 -217 -144q-73 0 -73 98q0 30 7 83l10 80l13 88zM785 794q-91 51 -184 51q-140 0 -235 -171t-95 -424q0 -130 77 -130q89 0 215 136q170 183 206 430zM451 1086l104 104h467l-102 -104h-469z" />
    <glyph glyph-name="A_breve" unicode="&#x102;" horiz-adv-x="1469" 
d="M319 774l-157 -151q-41 107 -41 207q0 248 215 400q180 128 616 128q74 0 130 -3q155 -10 159 -10h70q-78 -122 -78 -494l1 -52l4 -115q0 -207 51 -424q20 -84 39 -108t66 -24q51 0 116 33q7 -17 7 -28q0 -25 -39 -43l-47 -23l-246 -107q-82 253 -99 530l-76 -53h-336
q-92 -234 -252 -334l207 -10l-108 -114l-399 14l133 120l100 -6q68 50 116 140.5t143 350.5l30 83q92 251 175 365.5t226 188.5q-157 29 -331 29q-443 0 -443 -299q0 -102 48 -191zM1084 545q-14 174 -14 282q0 55 2 90l8 116q8 119 22 182q-196 -120 -322 -490
q-36 -107 -42 -123l-23 -57h369zM983 1739l113 117q-2 -22 -2 -33q-3 -33 -3 -47q0 -166 91 -166q58 0 115.5 69.5t86.5 176.5q34 -10 34 -39q0 -94 -98.5 -205.5t-180.5 -111.5q-156 0 -156 239z" />
    <glyph glyph-name="a_breve" unicode="&#x103;" horiz-adv-x="1051" 
d="M728 397q-113 -186 -248.5 -304.5t-235.5 -118.5q-137 0 -137 221q0 304 199.5 526.5t472.5 222.5q104 0 177 -26q-5 -18 -6 -22l-12 -53q-12 -55 -13 -64l-64 -442l-9 -64q-13 -95 -13 -127q0 -43 25 -43q84 0 172 188q27 -16 27 -32q0 -35 -86 -141
q-117 -144 -217 -144q-73 0 -73 98q0 30 7 83l10 80l13 88zM785 794q-91 51 -184 51q-140 0 -235 -171t-95 -424q0 -130 77 -130q89 0 215 136q170 183 206 430zM532 1325l113 117q-2 -22 -2 -33q-3 -33 -3 -47q0 -166 91 -166q58 0 115.5 69.5t86.5 176.5q34 -10 34 -39
q0 -94 -98.5 -205.5t-180.5 -111.5q-156 0 -156 239z" />
    <glyph glyph-name="A_ogonek" unicode="&#x104;" horiz-adv-x="1469" 
d="M319 774l-157 -151q-41 107 -41 207q0 248 215 400q180 128 616 128q74 0 130 -3q155 -10 159 -10h70q-78 -122 -78 -494l1 -52l4 -115q0 -207 51 -424q20 -84 39 -108t66 -24q51 0 116 33q7 -17 7 -28q0 -25 -39 -43l-47 -23l-246 -107q-82 253 -99 530l-76 -53h-336
q-92 -234 -252 -334l207 -10l-108 -114l-399 14l133 120l100 -6q68 50 116 140.5t143 350.5l30 83q92 251 175 365.5t226 188.5q-157 29 -331 29q-443 0 -443 -299q0 -102 48 -191zM1084 545q-14 174 -14 282q0 55 2 90l8 116q8 119 22 182q-196 -120 -322 -490
q-36 -107 -42 -123l-23 -57h369zM1200 0h57q-130 -144 -130 -251q0 -83 70 -79q73 4 114 67q18 -14 18 -30q0 -37 -70 -79t-131 -42q-111 0 -111 106q0 122 183 308z" />
    <glyph glyph-name="a_ogonek" unicode="&#x105;" horiz-adv-x="1051" 
d="M728 397q-113 -186 -248.5 -304.5t-235.5 -118.5q-137 0 -137 221q0 304 199.5 526.5t472.5 222.5q104 0 177 -26q-5 -18 -6 -22l-12 -53q-12 -55 -13 -64l-64 -442l-9 -64q-13 -95 -13 -127q0 -43 25 -43q84 0 172 188q27 -16 27 -32q0 -35 -86 -141
q-117 -144 -217 -144q-73 0 -73 98q0 30 7 83l10 80l13 88zM785 794q-91 51 -184 51q-140 0 -235 -171t-95 -424q0 -130 77 -130q89 0 215 136q170 183 206 430zM760 0h57q-130 -144 -130 -251q0 -83 70 -79q73 4 114 67q18 -14 18 -30q0 -37 -70 -79t-131 -42
q-111 0 -111 106q0 122 183 308z" />
    <glyph glyph-name="D_caron" unicode="&#x10e;" horiz-adv-x="1727" 
d="M199 27l139 147q51 -19 142 -34q74 45 101 114.5t50 273.5l83 745q-453 -53 -453 -327q0 -82 44 -171l-162 -152q-22 49 -22 145q0 300 233.5 458.5t673.5 158.5q726 0 726 -505q0 -302 -204 -557q-271 -337 -826 -337q-233 0 -525 41zM878 1296l-84 -751l-10 -94
q-15 -131 -56 -191t-161 -130q219 -30 409 -30q177 0 273.5 49.5t188.5 187.5q129 192 129 431q0 528 -656 528h-33zM1176 1637q13 16 19 25q107 138 209 200l-53 -123q-91 -50 -160 -157l-81 -82q-55 179 -153 272l84 90q91 -103 135 -225z" />
    <glyph glyph-name="d_quote.right" unicode="&#x10f;" horiz-adv-x="1301" 
d="M775 942l10 86q36 320 218.5 532t420.5 212q57 0 98 -10l-142 -145q-47 16 -111 16q-150 0 -224 -105t-102 -358l-93 -833l-7 -64q-9 -85 -9 -121q0 -49 26 -49q83 0 167 188q27 -16 27 -32q0 -36 -81 -141q-113 -144 -212 -144q-77 0 -77 106q0 39 12 155l10 88l8 74
q-68 -150 -220.5 -286.5t-251.5 -136.5q-141 0 -141 221q0 289 195 519t440 230q12 0 39 -2zM759 799q-84 46 -154 46q-148 0 -244 -168t-96 -427q0 -130 76 -130q92 0 216 136q161 175 190 430zM1262 1060l-29 33q118 84 118 190q0 83 -84 145l113 112q98 -72 98 -173
q0 -142 -216 -307z" />
    <glyph glyph-name="D_bar.croat" unicode="&#x110;" horiz-adv-x="1727" 
d="M714 1273q-453 -53 -453 -327q0 -82 44 -171l-162 -152q-22 49 -22 145q0 300 233.5 458.5t673.5 158.5q726 0 726 -505q0 -302 -204 -557q-271 -337 -826 -337q-233 0 -525 41l139 147q51 -19 142 -34q74 45 101.5 115t49.5 273l11 104h-296l117 81h188zM804 632
l-10 -87l-10 -94q-15 -131 -56 -191t-161 -130q219 -30 409 -30q177 0 273.5 49.5t188.5 187.5q129 192 129 431q0 528 -656 528h-33l-65 -583h351l-118 -81h-242z" />
    <glyph glyph-name="E_macron" unicode="&#x112;" horiz-adv-x="1497" 
d="M313 770l-162 -156q-24 80 -24 152q0 280 233 453q170 126 484 126h330q186 0 380 13l-81 -205l-16 -37q-25 -59 -64 -59q-6 0 -14 1q11 50 11 80q0 66 -69.5 82.5t-346.5 16.5h-97l-53 -484h195q169 0 300 16q-114 -137 -230 -137q-65 0 -184 10q-49 3 -69 3h-24
l-10 -87q-21 -190 -66.5 -270t-178.5 -161l219 -17l89 -8q94 -7 225 -7q221 0 368 143q17 -19 17 -36q0 -28 -107 -115q-156 -127 -341 -127q-171 0 -492 29l-373 34q-19 1 -135 8l183 138q99 -17 238 -30q98 38 132 108t57 282l79 708h-35q-194 0 -304 -79.5t-110 -219.5
q0 -81 46 -168zM836 1500l104 104h467l-102 -104h-469z" />
    <glyph glyph-name="e_macron" unicode="&#x113;" horiz-adv-x="761" 
d="M714 318q25 -17 25 -40q0 -31 -64 -106q-171 -198 -338 -198q-102 0 -168 81t-66 207q0 228 172.5 461.5t341.5 233.5q122 0 122 -131q0 -147 -142.5 -287t-347.5 -195q20 -241 190 -241q168 0 275 215zM253 466q29 -10 53 -10q124 0 217 76t93 178q0 117 -119 117
q-86 0 -155.5 -102.5t-88.5 -258.5zM330 1086l104 104h467l-102 -104h-469z" />
    <glyph glyph-name="E_dot.accent" unicode="&#x116;" horiz-adv-x="1497" 
d="M313 770l-162 -156q-24 80 -24 152q0 280 233 453q170 126 484 126h330q186 0 380 13l-81 -205l-16 -37q-25 -59 -64 -59q-6 0 -14 1q11 50 11 80q0 66 -69.5 82.5t-346.5 16.5h-97l-53 -484h195q169 0 300 16q-114 -137 -230 -137q-65 0 -184 10q-49 3 -69 3h-24
l-10 -87q-21 -190 -66.5 -270t-178.5 -161l219 -17l89 -8q94 -7 225 -7q221 0 368 143q17 -19 17 -36q0 -28 -107 -115q-156 -127 -341 -127q-171 0 -492 29l-373 34q-19 1 -135 8l183 138q99 -17 238 -30q98 38 132 108t57 282l79 708h-35q-194 0 -304 -79.5t-110 -219.5
q0 -81 46 -168zM1064 1500q-45 95 -117 142l148 141q66 -50 115 -141z" />
    <glyph glyph-name="e_dot.accent" unicode="&#x117;" horiz-adv-x="761" 
d="M714 318q25 -17 25 -40q0 -31 -64 -106q-171 -198 -338 -198q-102 0 -168 81t-66 207q0 228 172.5 461.5t341.5 233.5q122 0 122 -131q0 -147 -142.5 -287t-347.5 -195q20 -241 190 -241q168 0 275 215zM253 466q29 -10 53 -10q124 0 217 76t93 178q0 117 -119 117
q-86 0 -155.5 -102.5t-88.5 -258.5zM568 1086q-45 95 -117 142l148 141q66 -50 115 -141z" />
    <glyph glyph-name="E_ogonek" unicode="&#x118;" horiz-adv-x="1497" 
d="M313 770l-162 -156q-24 80 -24 152q0 280 233 453q170 126 484 126h330q186 0 380 13l-81 -205l-16 -37q-25 -59 -64 -59q-6 0 -14 1q11 50 11 80q0 66 -69.5 82.5t-346.5 16.5h-97l-53 -484h195q169 0 300 16q-114 -137 -230 -137q-65 0 -184 10q-49 3 -69 3h-24
l-10 -87q-21 -190 -66.5 -270t-178.5 -161l219 -17l89 -8q94 -7 225 -7q221 0 368 143q17 -19 17 -36q0 -28 -107 -115q-156 -127 -341 -127q-171 0 -492 29l-373 34q-19 1 -135 8l183 138q99 -17 238 -30q98 38 132 108t57 282l79 708h-35q-194 0 -304 -79.5t-110 -219.5
q0 -81 46 -168zM987 0h57q-130 -144 -130 -251q0 -83 70 -79q73 4 114 67q18 -14 18 -30q0 -37 -70 -79t-131 -42q-111 0 -111 106q0 122 183 308z" />
    <glyph glyph-name="e_ogonek" unicode="&#x119;" horiz-adv-x="761" 
d="M714 318q25 -17 25 -40q0 -31 -64 -106q-171 -198 -338 -198q-102 0 -168 81t-66 207q0 228 172.5 461.5t341.5 233.5q122 0 122 -131q0 -147 -142.5 -287t-347.5 -195q20 -241 190 -241q168 0 275 215zM253 466q29 -10 53 -10q124 0 217 76t93 178q0 117 -119 117
q-86 0 -155.5 -102.5t-88.5 -258.5zM356 0h57q-130 -144 -130 -251q0 -83 70 -79q73 4 114 67q18 -14 18 -30q0 -37 -70 -79t-131 -42q-111 0 -111 106q0 122 183 308z" />
    <glyph glyph-name="E_caron" unicode="&#x11a;" horiz-adv-x="1497" 
d="M313 770l-162 -156q-24 80 -24 152q0 280 233 453q170 126 484 126h330q186 0 380 13l-81 -205l-16 -37q-25 -59 -64 -59q-6 0 -14 1q11 50 11 80q0 66 -69.5 82.5t-346.5 16.5h-97l-53 -484h195q169 0 300 16q-114 -137 -230 -137q-65 0 -184 10q-49 3 -69 3h-24
l-10 -87q-21 -190 -66.5 -270t-178.5 -161l219 -17l89 -8q94 -7 225 -7q221 0 368 143q17 -19 17 -36q0 -28 -107 -115q-156 -127 -341 -127q-171 0 -492 29l-373 34q-19 1 -135 8l183 138q99 -17 238 -30q98 38 132 108t57 282l79 708h-35q-194 0 -304 -79.5t-110 -219.5
q0 -81 46 -168zM1142 1637q13 16 19 25q107 138 209 200l-53 -123q-91 -50 -160 -157l-81 -82q-55 179 -153 272l84 90q91 -103 135 -225z" />
    <glyph glyph-name="e_caron" unicode="&#x11b;" horiz-adv-x="761" 
d="M714 318q25 -17 25 -40q0 -31 -64 -106q-171 -198 -338 -198q-102 0 -168 81t-66 207q0 228 172.5 461.5t341.5 233.5q122 0 122 -131q0 -147 -142.5 -287t-347.5 -195q20 -241 190 -241q168 0 275 215zM253 466q29 -10 53 -10q124 0 217 76t93 178q0 117 -119 117
q-86 0 -155.5 -102.5t-88.5 -258.5zM617 1223q13 16 19 25q107 138 209 200l-53 -123q-91 -50 -160 -157l-81 -82q-55 179 -153 272l84 90q91 -103 135 -225z" />
    <glyph glyph-name="G_comma.below" unicode="&#x122;" horiz-adv-x="1356" 
d="M1045 116q-226 -157 -445 -157q-207 0 -333.5 153t-126.5 404q0 371 234 620t584 249q177 0 367 -67l-67 -147l-19 -43q-24 -51 -59 -51q-7 0 -21 3q14 31 14 51q0 67 -89.5 117t-208.5 50q-249 0 -399 -195.5t-150 -518.5q0 -237 105 -370t292 -133q172 0 333 136
l41 361h-170q-173 0 -277 -34q50 102 94.5 128t167.5 26l101 1h266l-10 -41l-16 -63q-13 -56 -18 -97l-44 -402q-23 -203 -59 -303.5t-118 -185.5q-164 -172 -392 -172q-210 0 -327 144l149 118q92 -177 283 -177q144 0 207.5 90.5t91.5 332.5zM706 -158l101 106
q76 -60 76 -150q0 -107 -149 -243l-22 19q65 67 65 140q0 78 -71 128z" />
    <glyph glyph-name="g_comma.below" unicode="&#x123;" horiz-adv-x="955" 
d="M766 794q-72 51 -181 51q-137 0 -231.5 -172t-94.5 -423q0 -130 77 -130q88 0 215 136q176 189 202 428zM937 918q-5 -18 -6 -22l-11 -53q-13 -58 -14 -64l-40 -366q-10 -92 -21 -323q-14 -289 -55 -428t-145 -248q-238 -251 -507 -251q-130 0 -216 88t-86 220
q0 269 329 531q-70 55 -70 194q0 302 199 525t470 223q115 0 173 -26zM721 393q-270 -412 -489 -412q-9 0 -32 2q-232 -234 -232 -417q0 -125 88.5 -209.5t219.5 -84.5q202 0 310 178q82 137 114 653q12 195 21 290zM805 1566l29 -33q-119 -84 -119 -191q0 -82 84 -144
l-112 -112q-98 71 -98 173q0 142 216 307z" />
    <glyph glyph-name="I_macron" unicode="&#x12a;" horiz-adv-x="936" 
d="M307 776l-163 -156q-23 78 -23 155q0 258 192 414t510 156h79q-45 -229 -54 -308l-54 -489l-13 -111q-17 -142 -61.5 -205t-170.5 -123l290 -15l-120 -116l-487 22l128 124l109 -12q122 77 150 315l11 97l77 700h-31q-416 0 -416 -275q0 -86 47 -173zM541 1500l104 104
h467l-102 -104h-469z" />
    <glyph glyph-name="i_macron" unicode="&#x12b;" horiz-adv-x="606" 
d="M591 291q27 -16 27 -31q0 -36 -87 -142q-117 -144 -217 -144q-73 0 -73 97q0 41 30 252l39 272l10 69l8 55q5 35 5 59q0 50 -28 50q-78 0 -168 -172q-19 17 -19 34q0 61 112.5 164t179.5 103q75 0 75 -104q0 -20 -8 -82l-9 -67q-1 -8 -11 -81l-41 -286l-10 -64
q-13 -95 -13 -127q0 -43 25 -43q84 0 173 188zM207 1086l104 104h467l-102 -104h-469z" />
    <glyph glyph-name="I_ogonek" unicode="&#x12e;" horiz-adv-x="935" 
d="M307 776l-163 -156q-23 78 -23 155q0 258 192 414t510 156h79q-45 -229 -54 -308l-54 -489l-13 -111q-17 -142 -61.5 -205t-170.5 -123l290 -15l-120 -116l-487 22l128 124l109 -12q122 77 150 315l11 97l77 700h-31q-416 0 -416 -275q0 -86 47 -173zM559 0h57
q-130 -144 -130 -251q0 -83 70 -79q73 4 114 67q18 -14 18 -30q0 -37 -70 -79t-131 -42q-111 0 -111 106q0 122 183 308z" />
    <glyph glyph-name="i_ogonek" unicode="&#x12f;" horiz-adv-x="606" 
d="M591 291q27 -16 27 -31q0 -36 -87 -142q-117 -144 -217 -144q-73 0 -73 97q0 41 30 252l39 272l10 69l8 55q5 35 5 59q0 50 -28 50q-78 0 -168 -172q-19 17 -19 34q0 61 112.5 164t179.5 103q75 0 75 -104q0 -20 -8 -82l-9 -67q-1 -8 -11 -81l-41 -286l-10 -64
q-13 -95 -13 -127q0 -43 25 -43q84 0 173 188zM390 1086l84 207q112 46 184 127q10 -14 10 -29q0 -134 -278 -305zM335 0h57q-130 -144 -130 -251q0 -83 70 -79q73 4 114 67q18 -14 18 -30q0 -37 -70 -79t-131 -42q-111 0 -111 106q0 122 183 308z" />
    <glyph glyph-name="I_J" unicode="&#x132;" horiz-adv-x="1590" 
d="M761 1224h-86q-415 0 -415 -275q0 -86 47 -173l-163 -156q-23 78 -23 155q0 258 192 414t510 156h113l-12 -109q243 109 578 109h54q-44 -222 -54 -308l-88 -795q-39 -354 -191 -513q-172 -180 -412 -180q-225 0 -328 222l160 122q52 -256 281 -256q142 0 214 109
t101 369l122 1102l-42 1q-240 0 -405 -65l-67 -605l-12 -111q-17 -142 -61.5 -205t-171.5 -123l291 -15l-120 -116l-487 22l128 124l108 -12q124 78 151 315l10 97l62 561q-224 -132 -224 -371q0 -61 33 -141l-144 -144q-22 61 -22 167q0 156 110.5 323t254.5 229z" />
    <glyph glyph-name="i_j" unicode="&#x133;" horiz-adv-x="1134" 
d="M591 291q27 -16 27 -31q0 -36 -87 -142q-117 -144 -217 -144q-73 0 -73 97q0 41 30 252l39 272l10 69l8 55q5 35 5 59q0 50 -28 50q-78 0 -168 -172q-19 17 -19 34q0 61 112.5 164t179.5 103q75 0 75 -104q0 -20 -8 -82l-9 -67q-1 -8 -11 -81l-41 -286l-10 -64
q-13 -95 -13 -127q0 -43 25 -43q84 0 173 188zM390 1086l84 207q112 46 184 127q10 -14 10 -29q0 -134 -278 -305zM120 -815q14 13 20 18l47 42q56 50 120 50q22 0 48 -8q10 -3 15 -5l22 -5q36 -8 63 -8q165 0 231 143t112 599l59 584l6 69l6 55q3 27 3 50q0 59 -31 59
q-77 0 -161 -172q-20 18 -20 35q0 63 107 164.5t173 101.5q80 0 80 -112q0 -19 -4 -74l-6 -67q-1 -14 -8 -81l-62 -612q-43 -429 -185 -606q-196 -245 -476 -245q-97 0 -159 25zM923 1086l84 207q112 46 184 127q11 -14 11 -29q0 -134 -279 -305z" />
    <glyph glyph-name="I.dotless.turk" horiz-adv-x="935" 
d="M307 776l-163 -156q-23 78 -23 155q0 258 192 414t510 156h79q-45 -229 -54 -308l-54 -489l-13 -111q-17 -142 -61.5 -205t-170.5 -123l290 -15l-120 -116l-487 22l128 124l109 -12q122 77 150 315l11 97l77 700h-31q-416 0 -416 -275q0 -86 47 -173z" />
    <glyph glyph-name="i.turk" horiz-adv-x="606" 
d="M591 291q27 -16 27 -31q0 -36 -87 -142q-117 -144 -217 -144q-73 0 -73 97q0 41 30 252l39 272l10 69l8 55q5 35 5 59q0 50 -28 50q-78 0 -168 -172q-19 17 -19 34q0 61 112.5 164t179.5 103q75 0 75 -104q0 -20 -8 -82l-9 -67q-1 -8 -11 -81l-41 -286l-10 -64
q-13 -95 -13 -127q0 -43 25 -43q84 0 173 188zM390 1086l84 207q112 46 184 127q10 -14 10 -29q0 -134 -278 -305z" />
    <glyph glyph-name="K_comma.below" unicode="&#x136;" horiz-adv-x="1641" 
d="M307 776l-163 -156q-23 78 -23 155q0 258 192 414t510 156h79q-45 -229 -54 -308l-33 -299q467 603 768 603q75 0 142 -20l-129 -140q-56 33 -125 33q-129 0 -269 -122t-228 -311q94 -182 219 -352l108 -146q108 -147 168 -147q81 0 148 117q27 -23 27 -38
q0 -59 -87.5 -143t-148.5 -84q-110 0 -310 284q-180 257 -283 465l-21 -189l-13 -111q-17 -142 -61.5 -205t-170.5 -123l236 -15l-120 -116l-433 22l128 124l109 -12q122 77 150 315l11 97l77 700h-31q-416 0 -416 -275q0 -86 47 -173zM785 -635l-29 33q118 84 118 190
q0 83 -84 145l113 112q98 -72 98 -173q0 -142 -216 -307z" />
    <glyph glyph-name="k_comma.below" unicode="&#x137;" horiz-adv-x="946" 
d="M376 629q75 140 188.5 234t208.5 94q128 0 128 -132q0 -126 -106.5 -230.5t-281.5 -150.5q190 -341 283 -341q67 0 141 117q23 -17 23 -33q0 -47 -92 -129t-148 -84q-100 -5 -340 425l-25 45l-45 -409l-149 -61l3 28l8 74l8 70l98 876q34 311 229 530t437 219
q50 0 96 -11l-147 -144q-57 17 -108 17q-297 0 -349 -464zM358 474q161 0 269 72.5t108 179.5q0 108 -76 108q-70 0 -155.5 -102.5t-145.5 -257.5zM336 -635l-29 33q118 84 118 190q0 83 -84 145l113 112q98 -72 98 -173q0 -142 -216 -307z" />
    <glyph glyph-name="L_acute" unicode="&#x139;" horiz-adv-x="1311" 
d="M-11 26l168 131q77 -14 130 -17q115 44 162 152.5t47 329.5l4 155q0 299 204 468q170 140 359 140q81 0 166 -37l-148 -145q-91 59 -180 59q-223 0 -223 -365l-4 -138q0 -283 -54 -414.5t-207 -217.5l207 -17l92 -7l111 -7q44 -3 99 -3q248 0 387 144q16 -20 16 -29
q0 -33 -96 -113q-164 -135 -352 -135q-77 0 -189 8l-297 22q-232 17 -402 36zM941 1500l113 207q168 71 259 155q20 -32 20 -53q0 -103 -392 -309z" />
    <glyph glyph-name="l_acute" unicode="&#x13a;" horiz-adv-x="546" 
d="M512 294q29 -14 29 -36q0 -72 -107.5 -178t-180.5 -106q-83 0 -83 120q0 73 9 149l11 89l77 696q36 318 218.5 531t420.5 213q58 0 98 -10l-142 -145q-47 16 -110 16q-150 0 -224.5 -105.5t-102.5 -357.5l-93 -838q-11 -97 -11 -139q0 -90 31 -90q37 0 87 59.5t73 131.5z
M670 1927l113 207q168 71 259 155q20 -32 20 -53q0 -103 -392 -309z" />
    <glyph glyph-name="L_comma.below" unicode="&#x13b;" horiz-adv-x="1311" 
d="M-11 26l168 131q77 -14 130 -17q115 44 162 152.5t47 329.5l4 155q0 299 204 468q170 140 359 140q81 0 166 -37l-148 -145q-91 59 -180 59q-223 0 -223 -365l-4 -138q0 -283 -54 -414.5t-207 -217.5l207 -17l92 -7l111 -7q44 -3 99 -3q248 0 387 144q16 -20 16 -29
q0 -33 -96 -113q-164 -135 -352 -135q-77 0 -189 8l-297 22q-232 17 -402 36zM562 -635l-29 33q118 84 118 190q0 83 -84 145l113 112q98 -72 98 -173q0 -142 -216 -307z" />
    <glyph glyph-name="l_comma.below" unicode="&#x13c;" horiz-adv-x="546" 
d="M512 294q29 -14 29 -36q0 -72 -107.5 -178t-180.5 -106q-83 0 -83 120q0 73 9 149l11 89l77 696q36 318 218.5 531t420.5 213q58 0 98 -10l-142 -145q-47 16 -110 16q-150 0 -224.5 -105.5t-102.5 -357.5l-93 -838q-11 -97 -11 -139q0 -90 31 -90q37 0 87 59.5t73 131.5z
M191 -635l-29 33q118 84 118 190q0 83 -84 145l113 112q98 -72 98 -173q0 -142 -216 -307z" />
    <glyph glyph-name="L_quote.right" unicode="&#x13d;" horiz-adv-x="1311" 
d="M-11 26l168 131q77 -14 130 -17q115 44 162 152.5t47 329.5l4 155q0 299 204 468q170 140 359 140q81 0 166 -37l-148 -145q-91 59 -180 59q-223 0 -223 -365l-4 -138q0 -283 -54 -414.5t-207 -217.5l207 -17l92 -7l111 -7q44 -3 99 -3q248 0 387 144q16 -20 16 -29
q0 -33 -96 -113q-164 -135 -352 -135q-77 0 -189 8l-297 22q-232 17 -402 36zM1301 905l-29 33q118 84 118 190q0 83 -84 145l113 112q98 -72 98 -173q0 -142 -216 -307z" />
    <glyph glyph-name="l_quote.right" unicode="&#x13e;" horiz-adv-x="784" 
d="M512 294q29 -14 29 -36q0 -72 -107.5 -178t-180.5 -106q-83 0 -83 120q0 73 9 149l11 89l77 696q36 318 218.5 531t420.5 213q58 0 98 -10l-142 -145q-47 16 -110 16q-150 0 -224.5 -105.5t-102.5 -357.5l-93 -838q-11 -97 -11 -139q0 -90 31 -90q37 0 87 59.5t73 131.5z
M744 1060l-29 33q118 84 118 190q0 83 -84 145l113 112q98 -72 98 -173q0 -142 -216 -307z" />
    <glyph glyph-name="L_dot.right" unicode="&#x13f;" horiz-adv-x="1311" 
d="M-11 26l168 131q77 -14 130 -17q115 44 162 152.5t47 329.5l4 155q0 299 204 468q170 140 359 140q81 0 166 -37l-148 -145q-91 59 -180 59q-223 0 -223 -365l-4 -138q0 -283 -54 -414.5t-207 -217.5l207 -17l92 -7l111 -7q44 -3 99 -3q248 0 387 144q16 -20 16 -29
q0 -33 -96 -113q-164 -135 -352 -135q-77 0 -189 8l-297 22q-232 17 -402 36zM1183 566q-45 95 -117 142l148 141q66 -50 115 -141z" />
    <glyph glyph-name="l_dot.right" unicode="&#x140;" horiz-adv-x="637" 
d="M512 294q29 -14 29 -36q0 -72 -107.5 -178t-180.5 -106q-83 0 -83 120q0 73 9 149l11 89l77 696q36 318 218.5 531t420.5 213q58 0 98 -10l-142 -145q-47 16 -110 16q-150 0 -224.5 -105.5t-102.5 -357.5l-93 -838q-11 -97 -11 -139q0 -90 31 -90q37 0 87 59.5t73 131.5z
M599 544q-45 95 -117 142l148 141q66 -50 115 -141z" />
    <glyph glyph-name="N_acute" unicode="&#x143;" horiz-adv-x="1807" 
d="M307 776l-162 -156q-24 78 -24 156q0 246 186.5 410.5t466.5 164.5q39 0 73 -3q38 -3 48 -3h11q-4 -35 -4 -50q0 -206 267 -524l75 -88l66 -79q105 -125 166 -230l67 543q63 497 231 697q192 228 424 228q87 0 172 -32l-148 -147q-91 53 -161 53q-155 0 -235.5 -142.5
t-125.5 -496.5l-106 -847l-126 -260q-46 184 -98 280t-207 282l-77 93q-178 215 -252 385l-50 -450l-12 -108q-16 -134 -51.5 -196.5t-141.5 -141.5l221 -20l-119 -116l-435 22l129 124l111 -10q76 55 105 119t46 212l9 87l77 692h-47q-416 0 -416 -275q0 -86 47 -173z
M1126 1500l113 207q168 71 259 155q20 -32 20 -53q0 -103 -392 -309z" />
    <glyph glyph-name="n_acute" unicode="&#x144;" horiz-adv-x="1156" 
d="M376 35l-149 -61l3 28l8 74l8 70l52 464l6 53q6 62 6 100q0 64 -32 64q-75 0 -161 -170q-23 19 -23 33q0 60 109.5 163.5t172.5 103.5q86 0 86 -110q0 -28 -5 -75l-8 -81l-8 -68l-8 -71q118 176 258.5 290.5t239.5 114.5q97 0 97 -135q0 -41 -11 -123l-54 -373
q-16 -112 -16 -177q0 -52 28 -52q69 0 170 184q24 -15 24 -31q0 -65 -111.5 -170.5t-181.5 -105.5q-78 0 -78 112q0 82 21 227l35 242q17 118 17 187q0 79 -55 79q-128 0 -259.5 -173.5t-153.5 -372.5zM570 1086l113 207q168 71 259 155q20 -32 20 -53q0 -103 -392 -309z
" />
    <glyph glyph-name="N_comma.below" unicode="&#x145;" horiz-adv-x="1807" 
d="M307 776l-162 -156q-24 78 -24 156q0 246 186.5 410.5t466.5 164.5q39 0 73 -3q38 -3 48 -3h11q-4 -35 -4 -50q0 -206 267 -524l75 -88l66 -79q105 -125 166 -230l67 543q63 497 231 697q192 228 424 228q87 0 172 -32l-148 -147q-91 53 -161 53q-155 0 -235.5 -142.5
t-125.5 -496.5l-106 -847l-126 -260q-46 184 -98 280t-207 282l-77 93q-178 215 -252 385l-50 -450l-12 -108q-16 -134 -51.5 -196.5t-141.5 -141.5l221 -20l-119 -116l-435 22l129 124l111 -10q76 55 105 119t46 212l9 87l77 692h-47q-416 0 -416 -275q0 -86 47 -173z
M928 -635l-29 33q118 84 118 190q0 83 -84 145l113 112q98 -72 98 -173q0 -142 -216 -307z" />
    <glyph glyph-name="n_comma.below" unicode="&#x146;" horiz-adv-x="1156" 
d="M376 35l-149 -61l3 28l8 74l8 70l52 464l6 53q6 62 6 100q0 64 -32 64q-75 0 -161 -170q-23 19 -23 33q0 60 109.5 163.5t172.5 103.5q86 0 86 -110q0 -28 -5 -75l-8 -81l-8 -68l-8 -71q118 176 258.5 290.5t239.5 114.5q97 0 97 -135q0 -41 -11 -123l-54 -373
q-16 -112 -16 -177q0 -52 28 -52q69 0 170 184q24 -15 24 -31q0 -65 -111.5 -170.5t-181.5 -105.5q-78 0 -78 112q0 82 21 227l35 242q17 118 17 187q0 79 -55 79q-128 0 -259.5 -173.5t-153.5 -372.5zM475 -635l-29 33q118 84 118 190q0 83 -84 145l113 112q98 -72 98 -173
q0 -142 -216 -307z" />
    <glyph glyph-name="N_caron" unicode="&#x147;" horiz-adv-x="1807" 
d="M307 776l-162 -156q-24 78 -24 156q0 246 186.5 410.5t466.5 164.5q39 0 73 -3q38 -3 48 -3h11q-4 -35 -4 -50q0 -206 267 -524l75 -88l66 -79q105 -125 166 -230l67 543q63 497 231 697q192 228 424 228q87 0 172 -32l-148 -147q-91 53 -161 53q-155 0 -235.5 -142.5
t-125.5 -496.5l-106 -847l-126 -260q-46 184 -98 280t-207 282l-77 93q-178 215 -252 385l-50 -450l-12 -108q-16 -134 -51.5 -196.5t-141.5 -141.5l221 -20l-119 -116l-435 22l129 124l111 -10q76 55 105 119t46 212l9 87l77 692h-47q-416 0 -416 -275q0 -86 47 -173z
M1293 1637q13 16 19 25q107 138 209 200l-53 -123q-91 -50 -160 -157l-81 -82q-55 179 -153 272l84 90q91 -103 135 -225z" />
    <glyph glyph-name="n_caron" unicode="&#x148;" horiz-adv-x="1156" 
d="M376 35l-149 -61l3 28l8 74l8 70l52 464l6 53q6 62 6 100q0 64 -32 64q-75 0 -161 -170q-23 19 -23 33q0 60 109.5 163.5t172.5 103.5q86 0 86 -110q0 -28 -5 -75l-8 -81l-8 -68l-8 -71q118 176 258.5 290.5t239.5 114.5q97 0 97 -135q0 -41 -11 -123l-54 -373
q-16 -112 -16 -177q0 -52 28 -52q69 0 170 184q24 -15 24 -31q0 -65 -111.5 -170.5t-181.5 -105.5q-78 0 -78 112q0 82 21 227l35 242q17 118 17 187q0 79 -55 79q-128 0 -259.5 -173.5t-153.5 -372.5zM709 1223q13 16 19 25q107 138 209 200l-53 -123q-91 -50 -160 -157
l-81 -82q-55 179 -153 272l84 90q91 -103 135 -225z" />
    <glyph glyph-name="n_apostrophe" unicode="&#x149;" horiz-adv-x="1156" 
d="M376 35l-149 -61l3 28l8 74l8 70l52 464l6 53q6 62 6 100q0 64 -32 64q-75 0 -161 -170q-23 19 -23 33q0 60 109.5 163.5t172.5 103.5q86 0 86 -110q0 -28 -5 -75l-8 -81l-8 -68l-8 -71q118 176 258.5 290.5t239.5 114.5q97 0 97 -135q0 -41 -11 -123l-54 -373
q-16 -112 -16 -177q0 -52 28 -52q69 0 170 184q24 -15 24 -31q0 -65 -111.5 -170.5t-181.5 -105.5q-78 0 -78 112q0 82 21 227l35 242q17 118 17 187q0 79 -55 79q-128 0 -259.5 -173.5t-153.5 -372.5zM299 1003l-25 28q153 111 153 243q0 110 -121 189l141 140
q122 -91 122 -216q0 -178 -270 -384z" />
    <glyph glyph-name="O_macron" unicode="&#x14c;" horiz-adv-x="1404" 
d="M596 -41q-196 0 -320.5 154.5t-124.5 397.5q0 353 238.5 613.5t562.5 260.5q201 0 326 -152.5t125 -398.5q0 -356 -239.5 -615.5t-567.5 -259.5zM727 40q207 0 346.5 199t139.5 494q0 247 -109 409.5t-274 162.5q-209 0 -349 -198.5t-140 -495.5q0 -248 109 -409.5
t277 -161.5zM663 1500l104 104h467l-102 -104h-469z" />
    <glyph glyph-name="o_macron" unicode="&#x14d;" horiz-adv-x="879" 
d="M328 -26q-225 0 -225 298q0 240 176 462.5t365 222.5q228 0 228 -298q0 -241 -176 -463t-368 -222zM449 86q115 0 192.5 128t77.5 319q0 312 -194 312q-114 0 -191.5 -128.5t-77.5 -318.5q0 -312 193 -312zM367 1086l104 104h467l-102 -104h-469z" />
    <glyph glyph-name="O_umlaut.hungarian" unicode="&#x150;" horiz-adv-x="1404" 
d="M596 -41q-196 0 -320.5 154.5t-124.5 397.5q0 353 238.5 613.5t562.5 260.5q201 0 326 -152.5t125 -398.5q0 -356 -239.5 -615.5t-567.5 -259.5zM727 40q207 0 346.5 199t139.5 494q0 247 -109 409.5t-274 162.5q-209 0 -349 -198.5t-140 -495.5q0 -248 109 -409.5
t277 -161.5zM747 1500l-22 112l152 228l26 -114zM1054 1500l-22 112l152 228l26 -114z" />
    <glyph glyph-name="o_umlaut.hungarian" unicode="&#x151;" horiz-adv-x="878" 
d="M328 -26q-225 0 -225 298q0 240 176 462.5t365 222.5q228 0 228 -298q0 -241 -176 -463t-368 -222zM449 86q115 0 192.5 128t77.5 319q0 312 -194 312q-114 0 -191.5 -128.5t-77.5 -318.5q0 -312 193 -312zM473 1086l-22 112l152 228l26 -114zM780 1086l-22 112l152 228
l26 -114z" />
    <glyph glyph-name="R_acute" unicode="&#x154;" horiz-adv-x="1612" 
d="M1147 676q20 -38 29 -57q159 -308 226 -405t124 -100q90 -5 140 138q33 -19 33 -41q0 -63 -84.5 -157t-141.5 -94q-83 0 -216 182t-264 476q-55 -5 -94 -5q-38 0 -96 5l-8 -66l-13 -115q-17 -143 -61 -205.5t-171 -122.5l236 -15l-120 -116l-433 22l128 124l109 -12
q121 77 150 315l11 97l84 758q-455 -86 -455 -343q0 -103 43 -183l-161 -142q-21 77 -21 156q0 271 231 443t595 172q494 0 494 -314q0 -229 -294 -395zM877 1289l-64 -580q80 -13 146 -13q62 0 135 13q179 128 179 310q0 270 -396 270zM953 1500l113 207q168 71 259 155
q20 -32 20 -53q0 -103 -392 -309z" />
    <glyph glyph-name="r_acute" unicode="&#x155;" horiz-adv-x="853" 
d="M433 536q222 421 437 421q56 0 112 -26l-141 -154q-32 18 -82 18q-104 0 -219.5 -168.5t-135.5 -350.5l-27 -244l-148 -50l3 30l7 65l8 65l52 476l6 52q7 59 7 96q0 61 -34 61q-80 0 -159 -171q-25 19 -24 39q3 61 111.5 161.5t171.5 100.5q85 0 85 -112q0 -27 -5 -73
l-7 -70l-9 -84zM530 1086l113 207q168 71 259 155q20 -32 20 -53q0 -103 -392 -309z" />
    <glyph glyph-name="R_comma.below" unicode="&#x156;" horiz-adv-x="1612" 
d="M1147 676q20 -38 29 -57q159 -308 226 -405t124 -100q90 -5 140 138q33 -19 33 -41q0 -63 -84.5 -157t-141.5 -94q-83 0 -216 182t-264 476q-55 -5 -94 -5q-38 0 -96 5l-8 -66l-13 -115q-17 -143 -61 -205.5t-171 -122.5l236 -15l-120 -116l-433 22l128 124l109 -12
q121 77 150 315l11 97l84 758q-455 -86 -455 -343q0 -103 43 -183l-161 -142q-21 77 -21 156q0 271 231 443t595 172q494 0 494 -314q0 -229 -294 -395zM877 1289l-64 -580q80 -13 146 -13q62 0 135 13q179 128 179 310q0 270 -396 270zM843 -635l-29 33q118 84 118 190
q0 83 -84 145l113 112q98 -72 98 -173q0 -142 -216 -307z" />
    <glyph glyph-name="r_comma.below" unicode="&#x157;" horiz-adv-x="853" 
d="M433 536q222 421 437 421q56 0 112 -26l-141 -154q-32 18 -82 18q-104 0 -219.5 -168.5t-135.5 -350.5l-27 -244l-148 -50l3 30l7 65l8 65l52 476l6 52q7 59 7 96q0 61 -34 61q-80 0 -159 -171q-25 19 -24 39q3 61 111.5 161.5t171.5 100.5q85 0 85 -112q0 -27 -5 -73
l-7 -70l-9 -84zM240 -635l-29 33q118 84 118 190q0 83 -84 145l113 112q98 -72 98 -173q0 -142 -216 -307z" />
    <glyph glyph-name="R_caron" unicode="&#x158;" horiz-adv-x="1612" 
d="M1147 676q20 -38 29 -57q159 -308 226 -405t124 -100q90 -5 140 138q33 -19 33 -41q0 -63 -84.5 -157t-141.5 -94q-83 0 -216 182t-264 476q-55 -5 -94 -5q-38 0 -96 5l-8 -66l-13 -115q-17 -143 -61 -205.5t-171 -122.5l236 -15l-120 -116l-433 22l128 124l109 -12
q121 77 150 315l11 97l84 758q-455 -86 -455 -343q0 -103 43 -183l-161 -142q-21 77 -21 156q0 271 231 443t595 172q494 0 494 -314q0 -229 -294 -395zM877 1289l-64 -580q80 -13 146 -13q62 0 135 13q179 128 179 310q0 270 -396 270zM1068 1637q13 16 19 25
q107 138 209 200l-53 -123q-91 -50 -160 -157l-81 -82q-55 179 -153 272l84 90q91 -103 135 -225z" />
    <glyph glyph-name="r_caron" unicode="&#x159;" horiz-adv-x="853" 
d="M433 536q222 421 437 421q56 0 112 -26l-141 -154q-32 18 -82 18q-104 0 -219.5 -168.5t-135.5 -350.5l-27 -244l-148 -50l3 30l7 65l8 65l52 476l6 52q7 59 7 96q0 61 -34 61q-80 0 -159 -171q-25 19 -24 39q3 61 111.5 161.5t171.5 100.5q85 0 85 -112q0 -27 -5 -73
l-7 -70l-9 -84zM631 1223q13 16 19 25q107 138 209 200l-53 -123q-91 -50 -160 -157l-81 -82q-55 179 -153 272l84 90q91 -103 135 -225z" />
    <glyph glyph-name="S_acute" unicode="&#x15a;" horiz-adv-x="1076" 
d="M86 177l170 103q40 -246 295 -246q124 0 203 67.5t79 173.5q0 145 -175 288l-121 98q-146 120 -195 189.5t-49 156.5q0 164 131 271t331 107q159 0 301 -76l-58 -133l-26 -59q-22 -52 -52 -52q-13 0 -27 10q17 52 17 83q0 64 -70.5 107t-174.5 43q-236 0 -236 -195
q0 -70 52.5 -134.5t218.5 -199.5l97 -80q185 -150 185 -315q0 -182 -153.5 -303t-383.5 -121q-280 0 -359 217zM694 1500l113 207q168 71 259 155q20 -32 20 -53q0 -103 -392 -309z" />
    <glyph glyph-name="s_acute" unicode="&#x15b;" horiz-adv-x="728" 
d="M43 28l138 113q78 -83 196 -83q144 0 144 139q0 77 -132 215l-57 59q-125 131 -125 212q0 116 100.5 195t247.5 79q80 0 175 -30l-120 -111q-76 57 -169 57q-109 0 -109 -91q0 -65 121 -191l62 -66q138 -144 138 -232q0 -126 -121 -222.5t-279 -96.5q-112 0 -210 54z
M464 1086l113 207q168 71 259 155q20 -32 20 -53q0 -103 -392 -309z" />
    <glyph glyph-name="T_cedilla" unicode="&#x162;" horiz-adv-x="1560" 
d="M307 776l-163 -156q-23 78 -23 153q0 275 229 445q171 127 471 127h597q371 0 371 229q0 80 -55 148l126 120q44 -60 44 -154q0 -197 -177.5 -330.5t-438.5 -133.5h-278l-75 -676l-12 -111q-17 -142 -61.5 -205t-171.5 -123l291 -15l-120 -116l-488 22l129 124l109 -12
q121 77 150 315l10 97l78 700h-170q-419 0 -419 -277q0 -84 47 -171zM662 0h76l-60 -102q130 -45 130 -154q0 -76 -76.5 -143t-164.5 -67q-36 0 -52 52q183 14 183 121q0 87 -135 114z" />
    <glyph glyph-name="t_cedilla" unicode="&#x163;" horiz-adv-x="712" 
d="M410 815l-50 -442q-13 -119 -13 -176q0 -113 77 -113q83 0 172 136q15 -19 15 -34q0 -56 -98.5 -134t-169.5 -78q-142 0 -142 182q0 67 17 217l49 442h-211l117 116h107l21 182l147 49l-25 -231h424l-117 -116h-320zM322 0h76l-60 -102q130 -45 130 -154
q0 -76 -76.5 -143t-164.5 -67q-36 0 -52 52q183 14 183 121q0 87 -135 114z" />
    <glyph glyph-name="T_caron" unicode="&#x164;" horiz-adv-x="1560" 
d="M307 776l-163 -156q-23 78 -23 153q0 275 229 445q171 127 471 127h597q371 0 371 229q0 80 -55 148l126 120q44 -60 44 -154q0 -197 -177.5 -330.5t-438.5 -133.5h-278l-75 -676l-12 -111q-17 -142 -61.5 -205t-171.5 -123l291 -15l-120 -116l-488 22l129 124l109 -12
q121 77 150 315l10 97l78 700h-170q-419 0 -419 -277q0 -84 47 -171zM1010 1637q13 16 19 25q107 138 209 200l-53 -123q-91 -50 -160 -157l-81 -82q-55 179 -153 272l84 90q91 -103 135 -225z" />
    <glyph glyph-name="t_caron" unicode="&#x165;" horiz-adv-x="766" 
d="M410 815l-50 -442q-13 -119 -13 -176q0 -113 77 -113q83 0 172 136q15 -19 15 -34q0 -56 -98.5 -134t-169.5 -78q-142 0 -142 182q0 67 17 217l49 442h-211l117 116h107l21 182l147 49l-25 -231h424l-117 -116h-320zM625 1060l-29 33q118 84 118 190q0 83 -84 145
l113 112q98 -72 98 -173q0 -142 -216 -307z" />
    <glyph glyph-name="U_macron" unicode="&#x16a;" horiz-adv-x="1750" 
d="M307 776l-163 -156q-23 78 -23 155q0 258 192 414t510 156h146q-90 -174 -147 -416t-57 -448q0 -414 252 -414q170 0 274 164.5t135 482.5q14 145 19 189l42 377l198 103q-43 -165 -70 -407l-36 -320q-2 -17 -11 -113l-14 -139q-8 -79 -8 -136q0 -100 76 -100
q60 0 135 47l3 -12q2 -12 2 -19q0 -29 -55 -55l-59 -29l-294 -140l37 334q-214 -335 -461 -335q-338 0 -338 516q0 349 168 749h-84q-416 0 -416 -275q0 -86 47 -173zM1028 1500l104 104h467l-102 -104h-469z" />
    <glyph glyph-name="u_macron" unicode="&#x16b;" horiz-adv-x="1148" 
d="M830 393q-114 -175 -257 -297t-233 -122q-99 0 -99 132q0 49 13 161l36 328q1 7 5 58l6 65q3 29 3 52q0 58 -33 58q-76 0 -164 -171q-19 15 -19 32q0 62 110.5 165t175.5 103q83 0 83 -114q0 -27 -4 -63l-9 -77l-9 -84l-32 -286q-8 -73 -8 -148q0 -69 51 -69
q113 0 255.5 186t168.5 368l34 237l162 55q-28 -116 -42 -207l-60 -418q-5 -38 -8 -64l-7 -55q-6 -51 -6 -72q0 -43 24 -43q85 0 173 188q27 -16 27 -32q0 -35 -87 -141q-117 -144 -217 -144q-73 0 -73 98q0 31 7 83l11 80q9 65 12 88zM429 1086l104 104h467l-102 -104h-469
z" />
    <glyph glyph-name="U_ring" unicode="&#x16e;" horiz-adv-x="1750" 
d="M307 776l-163 -156q-23 78 -23 155q0 258 192 414t510 156h146q-90 -174 -147 -416t-57 -448q0 -414 252 -414q170 0 274 164.5t135 482.5q14 145 19 189l42 377l198 103q-43 -165 -70 -407l-36 -320q-2 -17 -11 -113l-14 -139q-8 -79 -8 -136q0 -100 76 -100
q60 0 135 47l3 -12q2 -12 2 -19q0 -29 -55 -55l-59 -29l-294 -140l37 334q-214 -335 -461 -335q-338 0 -338 516q0 349 168 749h-84q-416 0 -416 -275q0 -86 47 -173zM1248 1500q-119 0 -119 113q0 92 87.5 176.5t183.5 84.5q119 0 119 -116q0 -88 -89.5 -173t-181.5 -85z
M1326 1576q109 0 109 113q0 108 -110 108q-111 0 -111 -108q0 -113 112 -113z" />
    <glyph glyph-name="u_ring" unicode="&#x16f;" horiz-adv-x="1148" 
d="M830 393q-114 -175 -257 -297t-233 -122q-99 0 -99 132q0 49 13 161l36 328q1 7 5 58l6 65q3 29 3 52q0 58 -33 58q-76 0 -164 -171q-19 15 -19 32q0 62 110.5 165t175.5 103q83 0 83 -114q0 -27 -4 -63l-9 -77l-9 -84l-32 -286q-8 -73 -8 -148q0 -69 51 -69
q113 0 255.5 186t168.5 368l34 237l162 55q-28 -116 -42 -207l-60 -418q-5 -38 -8 -64l-7 -55q-6 -51 -6 -72q0 -43 24 -43q85 0 173 188q27 -16 27 -32q0 -35 -87 -141q-117 -144 -217 -144q-73 0 -73 98q0 31 7 83l11 80q9 65 12 88zM673 1086q-119 0 -119 113
q0 92 87.5 176.5t183.5 84.5q119 0 119 -116q0 -88 -89.5 -173t-181.5 -85zM751 1162q109 0 109 113q0 108 -110 108q-111 0 -111 -108q0 -113 112 -113z" />
    <glyph glyph-name="U_umlaut.hungarian" unicode="&#x170;" horiz-adv-x="1750" 
d="M307 776l-163 -156q-23 78 -23 155q0 258 192 414t510 156h146q-90 -174 -147 -416t-57 -448q0 -414 252 -414q170 0 274 164.5t135 482.5q14 145 19 189l42 377l198 103q-43 -165 -70 -407l-36 -320q-2 -17 -11 -113l-14 -139q-8 -79 -8 -136q0 -100 76 -100
q60 0 135 47l3 -12q2 -12 2 -19q0 -29 -55 -55l-59 -29l-294 -140l37 334q-214 -335 -461 -335q-338 0 -338 516q0 349 168 749h-84q-416 0 -416 -275q0 -86 47 -173zM1092 1500l-22 112l152 228l26 -114zM1399 1500l-22 112l152 228l26 -114z" />
    <glyph glyph-name="u_umlaut.hungarian" unicode="&#x171;" horiz-adv-x="1148" 
d="M830 393q-114 -175 -257 -297t-233 -122q-99 0 -99 132q0 49 13 161l36 328q1 7 5 58l6 65q3 29 3 52q0 58 -33 58q-76 0 -164 -171q-19 15 -19 32q0 62 110.5 165t175.5 103q83 0 83 -114q0 -27 -4 -63l-9 -77l-9 -84l-32 -286q-8 -73 -8 -148q0 -69 51 -69
q113 0 255.5 186t168.5 368l34 237l162 55q-28 -116 -42 -207l-60 -418q-5 -38 -8 -64l-7 -55q-6 -51 -6 -72q0 -43 24 -43q85 0 173 188q27 -16 27 -32q0 -35 -87 -141q-117 -144 -217 -144q-73 0 -73 98q0 31 7 83l11 80q9 65 12 88zM544 1086l-22 112l152 228l26 -114z
M851 1086l-22 112l152 228l26 -114z" />
    <glyph glyph-name="U_ogonek" unicode="&#x172;" horiz-adv-x="1750" 
d="M307 776l-163 -156q-23 78 -23 155q0 258 192 414t510 156h146q-90 -174 -147 -416t-57 -448q0 -414 252 -414q170 0 274 164.5t135 482.5q14 145 19 189l42 377l198 103q-43 -165 -70 -407l-36 -320q-2 -17 -11 -113l-14 -139q-8 -79 -8 -136q0 -100 76 -100
q60 0 135 47l3 -12q2 -12 2 -19q0 -29 -55 -55l-59 -29l-294 -140l37 334q-214 -335 -461 -335q-338 0 -338 516q0 349 168 749h-84q-416 0 -416 -275q0 -86 47 -173zM1368 0h57q-130 -144 -130 -251q0 -83 70 -79q73 4 114 67q18 -14 18 -30q0 -37 -70 -79t-131 -42
q-111 0 -111 106q0 122 183 308z" />
    <glyph glyph-name="u_ogonek" unicode="&#x173;" horiz-adv-x="1148" 
d="M830 393q-114 -175 -257 -297t-233 -122q-99 0 -99 132q0 49 13 161l36 328q1 7 5 58l6 65q3 29 3 52q0 58 -33 58q-76 0 -164 -171q-19 15 -19 32q0 62 110.5 165t175.5 103q83 0 83 -114q0 -27 -4 -63l-9 -77l-9 -84l-32 -286q-8 -73 -8 -148q0 -69 51 -69
q113 0 255.5 186t168.5 368l34 237l162 55q-28 -116 -42 -207l-60 -418q-5 -38 -8 -64l-7 -55q-6 -51 -6 -72q0 -43 24 -43q85 0 173 188q27 -16 27 -32q0 -35 -87 -141q-117 -144 -217 -144q-73 0 -73 98q0 31 7 83l11 80q9 65 12 88zM862 0h57q-130 -144 -130 -251
q0 -83 70 -79q73 4 114 67q18 -14 18 -30q0 -37 -70 -79t-131 -42q-111 0 -111 106q0 122 183 308z" />
    <glyph glyph-name="Z_acute" unicode="&#x179;" horiz-adv-x="1207" 
d="M93 -40q-25 21 -25 43q0 31 48 91l48 59l859 1027q-44 -8 -74 -8q-98 0 -242 53l-46 17l-41 15q-49 18 -106 18q-147 0 -147 -227q0 -31 7 -72l-158 -100q-1 26 -1 37q0 192 133 332t316 140q65 0 164 -27l42 -12q85 -23 156 -23q135 0 194 62q25 -20 25 -42
q0 -28 -55 -88q-12 -13 -52 -61l-854 -1031q64 7 113 7q51 0 149 -14l76 -11l130 -22q102 -18 172 -18q176 0 224 134q37 -11 37 -30q0 -38 -60 -124q-86 -125 -227 -125q-45 0 -166 16l-92 12l-98 13q-90 13 -173 13q-141 0 -276 -54zM828 1500l113 207q168 71 259 155
q20 -32 20 -53q0 -103 -392 -309z" />
    <glyph glyph-name="z_acute" unicode="&#x17a;" horiz-adv-x="843" 
d="M47 -21l83 160q57 60 110 128l64 79q32 41 49 61l46 56q22 27 70 90l90 116l77 102q8 9 23 28q-20 -2 -29 -2q-70 0 -190 34l-36 10l-30 10q-28 8 -49 8q-70 0 -70 -79q0 -30 16 -61l-117 -101q-4 34 -4 50q0 116 77.5 202.5t181.5 86.5q28 0 71 -8l58 -10l48 -7
q83 -14 116 -14q74 0 157 33l-87 -160q-74 -82 -151 -177l-79 -99l-70 -87l-46 -57l-42 -51q-58 -71 -65 -81l-48 -69q-8 -11 -37 -46q55 6 91 6q64 0 143 -11l65 -9l61 -8q36 -5 73 -5q93 0 136 58q17 -16 17 -29q0 -52 -57 -99.5t-120 -47.5q-29 0 -73 5q-37 4 -65 6
l-59 4q-73 6 -143 6q-145 0 -256 -21zM553 1086l113 207q168 71 259 155q20 -32 20 -53q0 -103 -392 -309z" />
    <glyph glyph-name="Z_dot.accent" unicode="&#x17b;" horiz-adv-x="1207" 
d="M93 -40q-25 21 -25 43q0 31 48 91l48 59l859 1027q-44 -8 -74 -8q-98 0 -242 53l-46 17l-41 15q-49 18 -106 18q-147 0 -147 -227q0 -31 7 -72l-158 -100q-1 26 -1 37q0 192 133 332t316 140q65 0 164 -27l42 -12q85 -23 156 -23q135 0 194 62q25 -20 25 -42
q0 -28 -55 -88q-12 -13 -52 -61l-854 -1031q64 7 113 7q51 0 149 -14l76 -11l130 -22q102 -18 172 -18q176 0 224 134q37 -11 37 -30q0 -38 -60 -124q-86 -125 -227 -125q-45 0 -166 16l-92 12l-98 13q-90 13 -173 13q-141 0 -276 -54zM847 1500q-45 95 -117 142l148 141
q66 -50 115 -141z" />
    <glyph glyph-name="z_dot.accent" unicode="&#x17c;" horiz-adv-x="843" 
d="M47 -21l83 160q57 60 110 128l64 79q32 41 49 61l46 56q22 27 70 90l90 116l77 102q8 9 23 28q-20 -2 -29 -2q-70 0 -190 34l-36 10l-30 10q-28 8 -49 8q-70 0 -70 -79q0 -30 16 -61l-117 -101q-4 34 -4 50q0 116 77.5 202.5t181.5 86.5q28 0 71 -8l58 -10l48 -7
q83 -14 116 -14q74 0 157 33l-87 -160q-74 -82 -151 -177l-79 -99l-70 -87l-46 -57l-42 -51q-58 -71 -65 -81l-48 -69q-8 -11 -37 -46q55 6 91 6q64 0 143 -11l65 -9l61 -8q36 -5 73 -5q93 0 136 58q17 -16 17 -29q0 -52 -57 -99.5t-120 -47.5q-29 0 -73 5q-37 4 -65 6
l-59 4q-73 6 -143 6q-145 0 -256 -21zM602 1086q-45 95 -117 142l148 141q66 -50 115 -141z" />
    <glyph glyph-name="T_h" horiz-adv-x="2308" 
d="M307 776l-163 -156q-23 78 -23 153q0 275 229 445q171 127 471 127h764q92 189 252.5 307.5t324.5 118.5q50 0 96 -11l-147 -144q-57 17 -107 17q-298 0 -350 -464l-68 -617q117 176 257.5 290.5t239.5 114.5q98 0 98 -136q0 -39 -12 -122l-54 -373q-16 -111 -16 -177
q0 -52 29 -52q70 0 169 184q24 -15 24 -31q0 -66 -111.5 -171t-180.5 -105q-79 0 -79 113q0 81 21 226l35 242q17 119 17 189q0 77 -55 77q-128 0 -259.5 -174t-153.5 -372l-27 -240l-148 -61l3 28l8 74l8 70l97 876q11 103 41 202h-527l-75 -676l-12 -111
q-17 -142 -61.5 -205t-171.5 -123l291 -15l-120 -116l-488 22l129 124l109 -12q121 77 150 315l10 97l78 700h-170q-419 0 -419 -277q0 -84 47 -171z" />
    <glyph glyph-name="one.proportional" horiz-adv-x="879" 
d="M443 78h355l-98 -78h-594l98 78h177q33 63 51 218l99 899q-96 -68 -183 -116l-110 -59q-3 -2 -24 -15l11 96q60 24 187 91l133 69q62 33 145 84l-121 -1096l-7 -62q-8 -68 -81 -95q-13 -5 -38 -14z" />
    <glyph glyph-name="G_cedilla" horiz-adv-x="1356" 
d="M1045 116q-226 -157 -445 -157q-207 0 -333.5 153t-126.5 404q0 371 234 620t584 249q177 0 367 -67l-67 -147l-19 -43q-24 -51 -59 -51q-7 0 -21 3q14 31 14 51q0 67 -89.5 117t-208.5 50q-249 0 -399 -195.5t-150 -518.5q0 -237 105 -370t292 -133q172 0 333 136
l41 361h-170q-173 0 -277 -34q50 102 94.5 128t167.5 26l101 1h266l-10 -41l-16 -63q-13 -56 -18 -97l-44 -402q-23 -203 -59 -303.5t-118 -185.5q-164 -172 -392 -172q-210 0 -327 144l149 118q92 -177 283 -177q144 0 207.5 90.5t91.5 332.5zM744 0l-99 -179
q120 -23 120 -87q0 -87 -140 -96q16 -52 47 -52q67 0 134 62.5t67 125.5q0 80 -112 124l59 102h-76z" />
    <glyph glyph-name="g_acute" unicode="&#x1f5;" horiz-adv-x="948" 
d="M761 794q-72 51 -181 51q-137 0 -231.5 -172t-94.5 -423q0 -130 77 -130q88 0 215 136q176 189 202 428zM932 918q-5 -18 -6 -22l-11 -53q-13 -58 -14 -64l-40 -366q-10 -92 -21 -323q-14 -289 -55 -428t-145 -248q-238 -251 -507 -251q-130 0 -216 88t-86 220
q0 269 329 531q-70 55 -70 194q0 302 199 525t470 223q115 0 173 -26zM716 393q-270 -412 -489 -412q-9 0 -32 2q-232 -234 -232 -417q0 -125 88.5 -209.5t219.5 -84.5q202 0 310 178q82 137 114 653q12 195 21 290zM617 1086l113 207q168 71 259 155q20 -32 20 -53
q0 -103 -392 -309z" />
    <glyph glyph-name="K_cedilla" horiz-adv-x="1641" 
d="M307 776l-163 -156q-23 78 -23 155q0 258 192 414t510 156h79q-45 -229 -54 -308l-33 -299q467 603 768 603q75 0 142 -20l-129 -140q-56 33 -125 33q-129 0 -269 -122t-228 -311q94 -182 219 -352l108 -146q108 -147 168 -147q81 0 148 117q27 -23 27 -38
q0 -59 -87.5 -143t-148.5 -84q-110 0 -310 284q-180 257 -283 465l-21 -189l-13 -111q-17 -142 -61.5 -205t-170.5 -123l236 -15l-120 -116l-433 22l128 124l109 -12q122 77 150 315l11 97l77 700h-31q-416 0 -416 -275q0 -86 47 -173zM503 0h76l-60 -102q130 -45 130 -154
q0 -76 -76.5 -143t-164.5 -67q-36 0 -52 52q183 14 183 121q0 87 -135 114z" />
    <glyph glyph-name="k_cedilla" horiz-adv-x="946" 
d="M376 629q75 140 188.5 234t208.5 94q128 0 128 -132q0 -126 -106.5 -230.5t-281.5 -150.5q190 -341 283 -341q67 0 141 117q23 -17 23 -33q0 -47 -92 -129t-148 -84q-100 -5 -340 425l-25 45l-45 -409l-149 -61l3 28l8 74l8 70l98 876q34 311 229 530t437 219
q50 0 96 -11l-147 -144q-57 17 -108 17q-297 0 -349 -464zM358 474q161 0 269 72.5t108 179.5q0 108 -76 108q-70 0 -155.5 -102.5t-145.5 -257.5zM235 36h76l-60 -102q130 -45 130 -154q0 -76 -76.5 -143t-164.5 -67q-36 0 -52 52q183 14 183 121q0 87 -135 114z" />
    <glyph glyph-name="L_cedilla" horiz-adv-x="1311" 
d="M-11 26l168 131q77 -14 130 -17q115 44 162 152.5t47 329.5l4 155q0 299 204 468q170 140 359 140q81 0 166 -37l-148 -145q-91 59 -180 59q-223 0 -223 -365l-4 -138q0 -283 -54 -414.5t-207 -217.5l207 -17l92 -7l111 -7q44 -3 99 -3q248 0 387 144q16 -20 16 -29
q0 -33 -96 -113q-164 -135 -352 -135q-77 0 -189 8l-297 22q-232 17 -402 36zM725 0h76l-60 -102q130 -45 130 -154q0 -76 -76.5 -143t-164.5 -67q-36 0 -52 52q183 14 183 121q0 87 -135 114z" />
    <glyph glyph-name="l_cedilla" horiz-adv-x="546" 
d="M512 294q29 -14 29 -36q0 -72 -107.5 -178t-180.5 -106q-83 0 -83 120q0 73 9 149l11 89l77 696q36 318 218.5 531t420.5 213q58 0 98 -10l-142 -145q-47 16 -110 16q-150 0 -224.5 -105.5t-102.5 -357.5l-93 -838q-11 -97 -11 -139q0 -90 31 -90q37 0 87 59.5t73 131.5z
M256 0h76l-60 -102q130 -45 130 -154q0 -76 -76.5 -143t-164.5 -67q-36 0 -52 52q183 14 183 121q0 87 -135 114z" />
    <glyph glyph-name="N_cedilla" horiz-adv-x="1807" 
d="M307 776l-162 -156q-24 78 -24 156q0 246 186.5 410.5t466.5 164.5q39 0 73 -3q38 -3 48 -3h11q-4 -35 -4 -50q0 -206 267 -524l75 -88l66 -79q105 -125 166 -230l67 543q63 497 231 697q192 228 424 228q87 0 172 -32l-148 -147q-91 53 -161 53q-155 0 -235.5 -142.5
t-125.5 -496.5l-106 -847l-126 -260q-46 184 -98 280t-207 282l-77 93q-178 215 -252 385l-50 -450l-12 -108q-16 -134 -51.5 -196.5t-141.5 -141.5l221 -20l-119 -116l-435 22l129 124l111 -10q76 55 105 119t46 212l9 87l77 692h-47q-416 0 -416 -275q0 -86 47 -173z
M501 0h76l-60 -102q130 -45 130 -154q0 -76 -76.5 -143t-164.5 -67q-36 0 -52 52q183 14 183 121q0 87 -135 114z" />
    <glyph glyph-name="n_cedilla" horiz-adv-x="1156" 
d="M376 35l-149 -61l3 28l8 74l8 70l52 464l6 53q6 62 6 100q0 64 -32 64q-75 0 -161 -170q-23 19 -23 33q0 60 109.5 163.5t172.5 103.5q86 0 86 -110q0 -28 -5 -75l-8 -81l-8 -68l-8 -71q118 176 258.5 290.5t239.5 114.5q97 0 97 -135q0 -41 -11 -123l-54 -373
q-16 -112 -16 -177q0 -52 28 -52q69 0 170 184q24 -15 24 -31q0 -65 -111.5 -170.5t-181.5 -105.5q-78 0 -78 112q0 82 21 227l35 242q17 118 17 187q0 79 -55 79q-128 0 -259.5 -173.5t-153.5 -372.5zM287 39h76l-60 -102q130 -45 130 -154q0 -76 -76.5 -143t-164.5 -67
q-36 0 -52 52q183 14 183 121q0 87 -135 114z" />
    <glyph glyph-name="R_cedilla" horiz-adv-x="1612" 
d="M1147 676q20 -38 29 -57q159 -308 226 -405t124 -100q90 -5 140 138q33 -19 33 -41q0 -63 -84.5 -157t-141.5 -94q-83 0 -216 182t-264 476q-55 -5 -94 -5q-38 0 -96 5l-8 -66l-13 -115q-17 -143 -61 -205.5t-171 -122.5l236 -15l-120 -116l-433 22l128 124l109 -12
q121 77 150 315l11 97l84 758q-455 -86 -455 -343q0 -103 43 -183l-161 -142q-21 77 -21 156q0 271 231 443t595 172q494 0 494 -314q0 -229 -294 -395zM877 1289l-64 -580q80 -13 146 -13q62 0 135 13q179 128 179 310q0 270 -396 270zM515 0h76l-60 -102q130 -45 130 -154
q0 -76 -76.5 -143t-164.5 -67q-36 0 -52 52q183 14 183 121q0 87 -135 114z" />
    <glyph glyph-name="r_cedilla" horiz-adv-x="853" 
d="M433 536q222 421 437 421q56 0 112 -26l-141 -154q-32 18 -82 18q-104 0 -219.5 -168.5t-135.5 -350.5l-27 -244l-148 -50l3 30l7 65l8 65l52 476l6 52q7 59 7 96q0 61 -34 61q-80 0 -159 -171q-25 19 -24 39q3 61 111.5 161.5t171.5 100.5q85 0 85 -112q0 -27 -5 -73
l-7 -70l-9 -84zM301 33h76l-60 -102q130 -45 130 -154q0 -76 -76.5 -143t-164.5 -67q-36 0 -52 52q183 14 183 121q0 87 -135 114z" />
    <glyph glyph-name="S_comma.below" unicode="&#x218;" horiz-adv-x="1076" 
d="M86 177l170 103q40 -246 295 -246q124 0 203 67.5t79 173.5q0 145 -175 288l-121 98q-146 120 -195 189.5t-49 156.5q0 164 131 271t331 107q159 0 301 -76l-58 -133l-26 -59q-22 -52 -52 -52q-13 0 -27 10q17 52 17 83q0 64 -70.5 107t-174.5 43q-236 0 -236 -195
q0 -70 52.5 -134.5t218.5 -199.5l97 -80q185 -150 185 -315q0 -182 -153.5 -303t-383.5 -121q-280 0 -359 217zM459 -635l-29 33q118 84 118 190q0 83 -84 145l113 112q98 -72 98 -173q0 -142 -216 -307z" />
    <glyph glyph-name="s_comma.below" unicode="&#x219;" horiz-adv-x="728" 
d="M43 28l138 113q78 -83 196 -83q144 0 144 139q0 77 -132 215l-57 59q-125 131 -125 212q0 116 100.5 195t247.5 79q80 0 175 -30l-120 -111q-76 57 -169 57q-109 0 -109 -91q0 -65 121 -191l62 -66q138 -144 138 -232q0 -126 -121 -222.5t-279 -96.5q-112 0 -210 54z
M267 -635l-29 33q118 84 118 190q0 83 -84 145l113 112q98 -72 98 -173q0 -142 -216 -307z" />
    <glyph glyph-name="T_comma.below" unicode="&#x21a;" horiz-adv-x="1560" 
d="M307 776l-163 -156q-23 78 -23 153q0 275 229 445q171 127 471 127h597q371 0 371 229q0 80 -55 148l126 120q44 -60 44 -154q0 -197 -177.5 -330.5t-438.5 -133.5h-278l-75 -676l-12 -111q-17 -142 -61.5 -205t-171.5 -123l291 -15l-120 -116l-488 22l129 124l109 -12
q121 77 150 315l10 97l78 700h-170q-419 0 -419 -277q0 -84 47 -171zM627 -635l-29 33q118 84 118 190q0 83 -84 145l113 112q98 -72 98 -173q0 -142 -216 -307z" />
    <glyph glyph-name="t_comma.below" unicode="&#x21b;" horiz-adv-x="725" 
d="M420 815l-50 -442q-13 -119 -13 -176q0 -113 77 -113q83 0 172 136q15 -19 15 -34q0 -56 -98.5 -134t-169.5 -78q-142 0 -142 182q0 67 17 217l49 442h-211l117 116h107l21 182l147 49l-25 -231h424l-117 -116h-320zM240 -635l-29 33q118 84 118 190q0 83 -84 145
l113 112q98 -72 98 -173q0 -142 -216 -307z" />
    <glyph glyph-name="comma.below" unicode="&#x326;" horiz-adv-x="914" 
d="M267 -635l-29 33q118 84 118 190q0 83 -84 145l113 112q98 -72 98 -173q0 -142 -216 -307z" />
    <glyph glyph-name="ampersand.1" horiz-adv-x="1879" 
d="M913 119q-218 -159 -436 -159q-162 0 -261.5 93t-99.5 245q0 151 92 259.5t318 222.5q-64 163 -64 260q0 149 101 247t254 98q226 0 226 -199q0 -190 -360 -380q10 -20 12 -25l28 -57q2 -6 15 -30q181 86 505 86h179q258 0 355 44t97 162q0 66 -48 110l110 111
q41 -56 41 -131q0 -189 -185 -306.5t-483 -117.5h-44q-63 -266 -242 -432q106 -139 188 -139q60 0 126 80q6 7 19 22q15 -15 15 -31q0 -50 -86 -121.5t-146 -71.5q-99 0 -226 160zM668 840q236 140 236 316q0 69 -48 119t-115 50q-153 0 -153 -187q0 -101 80 -298zM888 152
q-131 174 -250 403q-22 -71 -22 -126q0 -85 21 -148l-131 -127q-20 57 -20 129q0 176 128 323l-21 45q-27 56 -43 92q-258 -149 -258 -383q0 -136 91 -224.5t230 -88.5q131 0 275 105zM996 252q74 98 94.5 151.5t51.5 225.5q1 8 4 23h-102l-79 -1h-79q-58 0 -120 -15l36 -62
q126 -218 194 -322z" />
    <glyph glyph-name="A.swash.li" horiz-adv-x="1604" 
d="M1180 1235q-157 29 -331 29q-443 0 -443 -295q0 -107 48 -195l-158 -151q-41 106 -41 208q0 246 215 399q180 128 616 128q75 0 131 -3q154 -10 159 -10h70q-79 -123 -79 -496l1 -50l4 -115q0 -207 52 -424q20 -84 39 -108t66 -24q50 0 115 33q8 -18 8 -29q0 -24 -39 -42
l-47 -23l-246 -107q-81 250 -99 530l-76 -53h-336q-92 -234 -252 -334l207 -10l-109 -114l-398 14l132 120l101 -6q100 73 166 252q21 56 32 78h-99q-257 0 -366.5 -44t-109.5 -147q0 -58 44 -111l-130 -116q-27 66 -27 122q0 404 713 404h16l50 136q93 253 175 366.5
t226 187.5zM1219 545q-14 164 -14 281q0 57 2 91l8 116q7 117 21 182q-195 -120 -321 -490q-37 -107 -43 -123l-23 -57h370z" />
    <glyph glyph-name="B.swash.li" horiz-adv-x="1470" 
d="M1105 756q292 -114 292 -350q0 -192 -195 -306t-522 -114q-201 0 -482 38l127 135l31 -7q60 -15 114 -22q81 50 109.5 120.5t51.5 274.5l84 753q-208 -15 -332 -112t-124 -244q0 -88 44 -166l-161 -142q-21 77 -21 156q0 227 165.5 388.5t443.5 206.5q65 271 236.5 441.5
t379.5 170.5q87 0 170 -37l-149 -145q-70 58 -168 58q-139 0 -210 -102.5t-99 -345.5l-3 -21l59 1q458 0 458 -266q0 -227 -299 -363zM877 1286l-59 -530q59 -5 102 -5q48 0 115 7q213 123 213 296q0 232 -371 232zM809 676l-15 -134l-9 -84q-17 -149 -59.5 -209.5
t-180.5 -130.5q198 -32 391 -32q312 0 312 248q0 107 -85.5 206.5t-208.5 135.5l-26 -1l-48 -2l-44 2z" />
    <glyph glyph-name="C.swash.wi.li" horiz-adv-x="1275" 
d="M1139 70q31 -20 31 -37q0 -42 -97 -142q-210 -214 -479 -214q-228 0 -353.5 156.5t-125.5 440.5q0 475 255.5 793.5t636.5 318.5q170 0 319 -60l-67 -148q-44 -98 -70 -98q-12 0 -28 9q14 32 14 54q0 66 -82.5 112.5t-201.5 46.5q-260 0 -422.5 -251t-162.5 -651
q0 -602 386 -602q134 0 256.5 74.5t190.5 197.5z" />
    <glyph glyph-name="D.swash.li" horiz-adv-x="1727" 
d="M199 27l139 147q51 -19 142 -34q74 45 101 114.5t50 273.5l83 745q-453 -53 -453 -327q0 -82 44 -171l-162 -152q-22 49 -22 145q0 243 156.5 396t452.5 200q69 275 238.5 444t376.5 169q88 0 171 -37l-150 -145q-69 58 -167 58q-139 0 -210.5 -103.5t-98.5 -344.5
l-3 -25q86 5 145 5q722 0 722 -505q0 -302 -204 -557q-271 -337 -826 -337q-233 0 -525 41zM878 1296l-84 -751l-10 -94q-15 -131 -56 -191t-161 -130q219 -30 409 -30q177 0 273.5 49.5t188.5 187.5q129 192 129 431q0 528 -656 528h-33z" />
    <glyph glyph-name="E.swash.li" horiz-adv-x="1497" 
d="M714 1224h-35q-413 0 -413 -284q0 -84 47 -170l-163 -156q-23 78 -23 154q0 278 233 451q170 126 483 126h358q249 0 382 21l-83 -213q-14 -36 -18 -46q-21 -58 -64 -58h-14q12 53 12 77q0 60 -52.5 78.5t-220.5 18.5l-144 1h-123l-59 -525h195q171 0 301 17
q-114 -137 -230 -137q-65 0 -184 9q-50 4 -69 4h-25l-4 -44q-21 -187 -85 -278.5t-232 -175.5q63 -17 182 -62l141 -52l108 -45l194 -78l177 -75q340 -144 483 -144q160 0 287 112q16 -22 16 -33q0 -58 -129 -129.5t-234 -71.5q-176 0 -546 161q-125 54 -138 60l-163 67
q-361 150 -531 190l-206 47q-27 6 -67 16l146 123l60 -14q83 -21 145 -42q120 52 163 129.5t66 280.5z" />
    <glyph glyph-name="F.swash.li" horiz-adv-x="1436" 
d="M806 652h215q145 0 306 27q-117 -141 -223 -141l-84 2l-97 3l-77 2h-52l-49 -444q-29 -256 -195 -420.5t-397 -164.5q-263 0 -330 218l165 130q50 -261 283 -261q141 0 211 108.5t99 369.5l127 1143h-35q-413 0 -413 -285q0 -83 47 -169l-163 -156q-23 77 -23 154
q0 278 233 451q170 126 483 126h358q249 0 382 21l-83 -213q-15 -37 -18 -46q-22 -58 -64 -58h-14q12 52 12 77q0 60 -52.5 78.5t-220.5 18.5l-144 1h-124z" />
    <glyph glyph-name="K.swash.li" horiz-adv-x="1641" 
d="M814 734l-20 -186l-13 -111q-17 -143 -61.5 -205.5t-170.5 -122.5l236 -15l-120 -116l-433 22l128 124l109 -12q122 77 150 315l11 97l77 700h-31q-416 0 -416 -275q0 -86 47 -173l-163 -156q-23 78 -23 155q0 258 192 414t510 156h79q-45 -229 -54 -308l-33 -299
q467 603 768 603q75 0 142 -20l-129 -140q-56 33 -125 33q-128 0 -265 -119t-232 -312q750 -1336 1545 -1336q112 0 195 59t83 139q0 45 -33 85l130 122q32 -45 32 -105q0 -150 -155.5 -264.5t-358.5 -114.5q-370 0 -744 281.5t-675 786.5l-136 228q-10 17 -43 70z" />
    <glyph glyph-name="L.swash.wi.li.lf" horiz-adv-x="1311" 
d="M1229 1348l-148 -145q-92 59 -180 59q-224 0 -224 -365l-4 -138q0 -305 -64 -435.5t-263 -229.5q63 -17 182 -62l141 -52l108 -45l194 -78l177 -75q340 -144 483 -144q161 0 287 112q16 -22 16 -33q0 -58 -129 -129.5t-233 -71.5q-177 0 -547 161q-124 54 -137 60
l-164 67q-361 150 -531 190l-206 47q-27 6 -67 16l146 123l60 -14q83 -21 146 -42q126 55 174.5 163.5t48.5 334.5l4 155q0 299 205 468q170 140 359 140q80 0 166 -37z" />
    <glyph glyph-name="M.swash.li" horiz-adv-x="2029" 
d="M1728 1264l193 121q-64 -367 -64 -599l-13 -327l-3 -126q0 -155 20.5 -202.5t87.5 -47.5q70 0 127 20q9 -12 9 -21q0 -33 -68 -49l-53 -13l-291 -60q-5 95 -5 176q0 531 44 896l-31 -46q-116 -171 -169 -263l-60 -103q-124 -214 -198 -410l-137 -141q-63 424 -319 967
l-79 -486q-36 -223 -75 -303.5t-138 -132.5l252 -19l-127 -117l-428 22l129 124l113 -10q67 50 94 120t65 287l111 651q-112 179 -292 288t-362 109q-196 0 -313 -101t-117 -270q0 -54 24 -118l-164 -160q-13 52 -13 98q0 275 193 455.5t487 180.5q467 0 761 -517
q128 -224 278 -733l14 -47q14 23 46 76l90 150q16 27 64 110l98 169l76 140l92 168q12 21 51 94z" />
    <glyph glyph-name="N.swash.li" horiz-adv-x="1807" 
d="M1595 233l-130 -266q-52 251 -215 541.5t-409 570.5l-57 -519l-12 -108q-16 -134 -51.5 -197t-141.5 -141l221 -20l-119 -116l-435 22l129 124l111 -10q124 90 151 331l9 87l74 666q-427 370 -782 370q-154 0 -255 -94.5t-101 -239.5q0 -88 38 -156l-163 -159
q-25 89 -25 147q0 246 182 423t435 177q442 0 882 -449q378 -386 548 -816l64 516q63 498 231 697q193 228 424 228q88 0 171 -32l-147 -147q-91 53 -161 53q-156 0 -236 -142.5t-125 -496.5z" />
    <glyph glyph-name="P.swash.li" horiz-adv-x="1370" 
d="M877 1294l-71 -638q56 -10 98 -10q383 0 383 335q0 313 -410 313zM729 1365q66 271 237.5 441.5t378.5 170.5q87 0 170 -37l-149 -145q-70 58 -167 58q-139 0 -211 -104t-99 -344l-2 -22q39 2 69 2q486 0 486 -322q0 -205 -183.5 -349.5t-463.5 -161.5q-24 -233 -63 -304
t-183 -139l264 -15l-120 -116l-461 22l129 124l108 -12q122 77 150 315l11 97l85 758q-455 -86 -455 -343q0 -103 43 -183l-161 -142q-21 77 -21 156q0 228 160 384.5t448 210.5z" />
    <glyph glyph-name="R.swash.wi" horiz-adv-x="1612" 
d="M1147 676q20 -38 29 -57q159 -308 226 -405t124 -100q90 -5 140 138q33 -19 33 -41q0 -63 -84.5 -157t-141.5 -94q-83 0 -216 182t-264 476q-55 -5 -94 -5q-38 0 -96 5l-8 -66l-13 -115q-17 -143 -61 -205.5t-171 -122.5l236 -15l-120 -116l-433 22l128 124l109 -12
q121 77 150 315l11 97l84 758q-455 -86 -455 -343q0 -103 43 -183l-161 -142q-21 77 -21 156q0 227 166.5 389.5t442.5 205.5q65 271 236.5 441t380.5 170q86 0 169 -36l-149 -145q-70 57 -168 57q-139 0 -210 -103t-99 -344l-3 -22q34 2 63 2q491 0 491 -314
q0 -229 -294 -395zM877 1289l-64 -580q80 -13 146 -13q62 0 135 13q179 128 179 310q0 270 -396 270z" />
    <glyph glyph-name="S.swash.wi.li" horiz-adv-x="1076" 
d="M1057 1309l-58 -133l-27 -59q-22 -52 -52 -52q-13 0 -27 10q17 52 17 83q0 64 -70.5 107t-175.5 43q-244 0 -244 -206q0 -118 205 -339l164 -176q198 -213 198 -367q0 -221 -192 -382t-456 -161q-167 0 -273 66t-121 181l166 96q0 -120 91.5 -194t240.5 -74
q167 0 278.5 106t111.5 264q0 133 -140 287l-59 65l-122 135l-65 69q-161 172 -161 307q0 174 132.5 287t336.5 113q159 0 302 -76z" />
    <glyph glyph-name="V.swash.li" horiz-adv-x="1414" 
d="M884 131l-160 -171q-53 445 -209 953q-144 473 -282 665.5t-332 192.5q-177 0 -287 -176q-27 17 -27 38q0 87 129.5 175.5t256.5 88.5q377 0 615 -647q158 -432 261 -1016q437 610 437 852q0 94 -76 137l147 162q100 -56 100 -173q0 -147 -242 -531l-112 -174l-82 -129
q-8 -11 -49 -84l-46 -81q-10 -18 -42 -82z" />
    <glyph glyph-name="W.swash.li" horiz-adv-x="1839" 
d="M1083 1173l153 146q-7 -76 -7 -130q0 -165 69 -543l12 -65q2 -14 20 -104q19 -98 40 -231q29 54 36 70l80 168l99 199q122 253 122 395q0 96 -79 146l147 161q102 -67 102 -161q0 -125 -210 -538l-84 -168l-44 -88l-44 -101l-57 -130q-7 -17 -32 -80l-154 -163l-4 44
q-19 202 -76 497l-11 60l-17 89q-18 93 -25 142l-19 137q-2 15 -11 70l-134 -268l-56 -109q-150 -297 -230 -493l-171 -165l4 55q19 275 19 429q0 632 -137 982.5t-385 350.5q-174 0 -275 -180q-24 22 -24 47q0 51 90 137q121 115 276 115q289 0 446.5 -375.5t157.5 -1068.5
l-2 -120l150 285q45 85 65 123l93 183q80 158 107 250z" />
    <glyph glyph-name="Y.swash.li" horiz-adv-x="1321" 
d="M775 672q83 299 251 506t329 207q62 0 122 -40l-113 -155q-44 27 -93 27q-149 0 -304.5 -243.5t-189.5 -529.5l-2 -21q-15 -125 -57.5 -183.5t-171.5 -131.5l310 -14l-117 -116l-545 22l140 124l121 -10q135 82 161 330l2 21q6 59 6 115q0 217 -95 470t-243 429
q-286 343 -647 343q-327 0 -378 -331l-163 -88q43 220 220.5 356.5t420.5 136.5q389 0 689 -354t347 -870z" />
    <glyph glyph-name="Z.swash.nf" horiz-adv-x="1207" 
d="M90 -40q-21 28 -21 45q0 31 95 145l860 1030q-45 -8 -75 -8q-98 0 -242 53l-46 17l-41 15q-49 18 -105 18q-148 0 -148 -227q0 -31 8 -72l-159 -100q-1 26 -1 38q0 191 133.5 331t315.5 140q65 0 164 -27l42 -12q85 -23 156 -23q136 0 194 62q25 -20 25 -42
q0 -27 -55 -88q-10 -11 -51 -61l-857 -1034q50 8 93 8q145 0 299 -51.5t442 -196.5l156 -79q374 -188 545 -188q125 0 256 98q16 -16 16 -28q0 -61 -125 -134t-230 -73q-126 0 -386 128q-22 10 -109 53l-170 81q-506 244 -690 244q-173 0 -289 -62z" />
    <glyph glyph-name="c.swash.wi.li" horiz-adv-x="784" 
d="M681 3q26 -28 26 -41q0 -30 -67 -108q-139 -164 -309 -164q-132 0 -217.5 115t-85.5 292q0 325 200 592.5t443 267.5q66 0 139 -20l-121 -141q-61 36 -145 36q-159 0 -264 -169.5t-105 -425.5q0 -182 71.5 -296.5t184.5 -114.5q149 0 250 177z" />
    <glyph glyph-name="f.swash.li" horiz-adv-x="1266" 
d="M920 931l6 58q36 370 213 576.5t457 206.5q53 0 119 -10l-140 -138q-75 29 -147 29q-172 0 -245 -119t-106 -456l-15 -147h405l-119 -116h-298l-81 -809q-27 -275 -83.5 -419t-182.5 -259q-185 -169 -415 -169q-46 0 -118 25l133 122q85 -28 154 -28q295 0 341 447
l26 248l84 842h-452q-200 0 -273.5 -36t-73.5 -132q0 -60 48 -102l-115 -110q-42 45 -42 125q0 194 226 302q144 69 550 69h144z" />
    <glyph glyph-name="g.swash.li" horiz-adv-x="955" 
d="M766 794q-72 51 -180 51q-138 0 -232 -172t-94 -424q0 -129 76 -129q89 0 216 136q175 189 202 428zM938 918q-5 -18 -6 -22l-12 -53q-12 -55 -13 -64l-41 -366q-21 -191 -21 -323q0 -377 -206 -634q-239 -297 -530 -297q-179 0 -319.5 120.5t-140.5 273.5q0 9 1 26
l158 117q-3 -39 -3 -56q0 -150 114 -262t268 -112q122 0 238 65t170 164q79 145 106 608q9 171 21 290q-123 -187 -258 -303t-230 -116q-139 0 -139 219q0 304 199 527.5t470 223.5q115 0 174 -26z" />
    <glyph glyph-name="k.swash.li.nf" horiz-adv-x="947" 
d="M355 444l-45 -409l-149 -61l3 28l8 74l8 70l98 876q34 311 229 530t437 219q50 0 96 -11l-147 -144q-57 17 -108 17q-297 0 -349 -464l-60 -540q75 140 188.5 234t208.5 94q128 0 128 -132q0 -126 -106.5 -230.5t-281.5 -150.5q236 -420 538.5 -705t512.5 -285
q76 0 129 51.5t53 125.5q0 14 -5 46l151 81q4 -28 4 -41q0 -125 -125 -225t-280 -100q-247 0 -554 277.5t-553 722.5zM358 474q161 0 269 72.5t108 179.5q0 108 -76 108q-70 0 -155.5 -102.5t-145.5 -257.5z" />
    <glyph glyph-name="m.swash.li" horiz-adv-x="2189" 
d="M1007 552l27 44q225 361 417 361q94 0 94 -134q0 -23 -9 -97l-10 -92l-13 -125q93 193 220 320.5t227 127.5t100 -128q0 -55 -11 -131l-54 -371q-16 -115 -16 -178q0 -53 28 -53q34 0 86 57t83 129q27 -18 27 -33q0 -63 -111.5 -169t-177.5 -106q-85 0 -85 114
q0 72 22 223l35 241q1 13 6 57q2 18 8 61q5 43 5 66q0 85 -57 85q-93 0 -217.5 -188t-143.5 -358l-27 -240l-149 -61l3 28l8 74l8 70l50 449l6 51q5 40 5 78q0 97 -59 97q-92 0 -214.5 -188t-141.5 -358l-27 -240l-148 -61l3 28l8 74l8 70l48 436q16 144 62 235q-58 4 -69 5
l-182 15q-235 19 -336 19q-233 0 -233 -170q0 -59 50 -99q-57 -94 -102 -94q-58 0 -58 93q0 167 149 269t392 102q123 0 332 -16q123 -10 160 -10h69q-65 -107 -83 -274z" />
    <glyph glyph-name="n.swash.li" horiz-adv-x="1729" 
d="M1007 552q117 176 257.5 290.5t240.5 114.5q97 0 97 -135q0 -41 -12 -123l-53 -373q-17 -112 -17 -177q0 -52 29 -52q69 0 169 184q25 -15 25 -31q0 -65 -111.5 -170.5t-181.5 -105.5q-79 0 -79 112q0 82 21 227l35 242q17 118 17 187q0 79 -55 79q-128 0 -259.5 -173.5
t-153.5 -372.5l-26 -240l-149 -61l3 28l8 74l8 70l48 436q16 144 62 235q-58 4 -69 5l-182 15q-235 19 -336 19q-233 0 -233 -170q0 -59 50 -99l-117 -106q-43 46 -43 113q0 160 151 261.5t390 101.5q123 0 332 -16q123 -10 161 -10h68q-64 -107 -83 -274z" />
    <glyph glyph-name="p.swash.li" horiz-adv-x="1641" 
d="M1005 533q107 186 238.5 305t231.5 119q145 0 145 -245q0 -294 -189 -509.5t-446 -215.5l-35 1l-8 -79q-31 -311 -223.5 -530.5t-433.5 -219.5q-50 0 -97 12l146 144q57 -17 107 -17q298 0 344 464l83 820q14 140 61 235q-58 4 -68 5l-183 15q-234 19 -336 19
q-233 0 -233 -170q0 -59 51 -99l-118 -106q-42 46 -42 113q0 160 150.5 261.5t389.5 101.5q124 0 332 -16q123 -10 161 -10h67q-66 -111 -83 -274zM965 137q81 -51 184 -51q136 0 222 160t86 414q0 150 -81 150q-89 0 -211 -136q-164 -182 -189 -429z" />
    <glyph glyph-name="r.swash.li" horiz-adv-x="1426" 
d="M1005 536q224 421 437 421q56 0 112 -26l-140 -154q-32 18 -83 18q-104 0 -219.5 -168.5t-135.5 -350.5l-27 -244l-148 -50l4 30l7 65l7 65l49 440q16 144 62 235q-58 4 -69 5l-182 15q-235 19 -336 19q-233 0 -233 -170q0 -59 50 -99l-118 -106q-42 46 -42 113
q0 160 151 261.5t390 101.5q123 0 332 -16q123 -10 160 -10h69q-65 -107 -83 -274z" />
    <glyph glyph-name="s.swash.wi.li" horiz-adv-x="741" 
d="M-59 -155l112 92q81 -157 273 -157q99 0 171 68t72 162q0 123 -145 286l-103 116q-130 146 -130 253q0 118 106.5 205t251.5 87q93 0 177 -31l-120 -111q-71 57 -158 57q-138 0 -138 -119q0 -74 131 -219l109 -121q149 -164 149 -300q0 -156 -151 -289.5t-327 -133.5
q-190 0 -280 155z" />
    <glyph glyph-name="t.swash.li" horiz-adv-x="1356" 
d="M921 931l20 182l148 49l-26 -231h424l-117 -116h-320l-49 -442q-13 -119 -13 -175q0 -114 77 -114q83 0 172 136q15 -19 15 -34q0 -56 -98.5 -134t-169.5 -78q-142 0 -142 182q0 64 9 149l8 68l49 442h-453q-199 0 -272.5 -36t-73.5 -132q0 -60 48 -102l-115 -110
q-42 45 -42 124q0 195 225 303q145 69 551 69h145z" />
    <glyph glyph-name="u.swash.li" horiz-adv-x="1728" 
d="M929 817q-58 4 -68 5l-183 15q-234 19 -336 19q-233 0 -233 -170q0 -59 50 -99l-117 -106q-42 46 -42 113q0 160 150.5 261.5t389.5 101.5q123 0 332 -16q123 -10 161 -10h68q-61 -121 -103.5 -310t-42.5 -340q0 -167 75 -167q108 0 250.5 189t168.5 367l34 237l162 55
q-30 -125 -42 -207l-60 -418q-7 -48 -9 -64l-6 -55q-7 -54 -7 -74q0 -41 25 -41q85 0 172 188q27 -16 27 -31q0 -36 -86 -142q-117 -144 -217 -144q-73 0 -73 97q0 33 7 84l10 80q7 47 13 88l10 70q-115 -174 -258.5 -297.5t-231.5 -123.5q-117 0 -117 235q0 314 127 610z
" />
    <glyph glyph-name="v.swash.li" horiz-adv-x="923" 
d="M559 197q114 153 196.5 313.5t82.5 228.5q0 57 -57 90l125 128q72 -37 72 -118q0 -100 -191 -389q-41 -62 -58 -90l-26 -43l-46 -73q-38 -61 -79 -135l-139 -135q-85 588 -248.5 938.5t-352.5 350.5q-154 0 -211 -180q-28 8 -28 32q0 92 100 180.5t204 88.5
q409 0 656 -1187z" />
    <glyph glyph-name="w.swash.li" horiz-adv-x="1285" 
d="M724 843l119 114q12 -135 24 -209l24 -160l17 -112l43 -256l24 39q231 378 231 485q0 58 -60 99l120 114q74 -41 74 -109q0 -82 -113 -271l-61 -101l-76 -131q-81 -141 -118 -251l-120 -120q-14 180 -48 379l-18 94l-42 234l-48 -86q-126 -231 -216 -479l-149 -138
q0 536 -136.5 913t-331.5 377q-150 0 -211 -167q-23 18 -23 39q0 78 99 160.5t192 82.5q441 0 541 -1130q171 307 263 590z" />
    <glyph glyph-name="y.swash.li" horiz-adv-x="1110" 
d="M4 1071q-22 16 -22 30q0 57 96 144t160 87q151 0 175 -427l7 -135l15 -283l2 -103l7 -119q8 -150 68 -150q96 0 221 188t163 389l39 204l178 62q-34 -88 -70 -266l-134 -671q-79 -394 -244 -582q-247 -280 -572 -280q-68 0 -153 30l123 135q94 -42 196 -42q208 0 312 135
t174 495l94 486q-102 -187 -213 -306t-183 -119q-80 0 -108 91.5t-42 399.5l-13 288l-8 99l-8 119q-18 235 -104 235q-81 0 -156 -134z" />
    <glyph glyph-name="R.swash.li" horiz-adv-x="1612" 
d="M802 618l-7 -66q-26 -239 -63.5 -306.5t-181.5 -136.5l236 -15l-120 -116l-433 22l128 124l109 -12q122 77 150 315l11 97l84 758l-38 -7q-417 -81 -417 -337q0 -101 43 -182l-161 -142q-21 78 -21 156q0 226 166.5 389t442.5 206q66 272 237 441.5t379 169.5
q87 0 170 -36l-149 -145q-70 57 -168 57q-139 0 -210 -102.5t-99 -344.5l-3 -22q34 2 63 2q491 0 491 -314q0 -225 -293 -395q257 -538 666.5 -884.5t789.5 -346.5q116 0 201.5 60.5t85.5 141.5q0 35 -35 79l130 121q36 -46 36 -105q0 -150 -154 -262t-361 -112
q-414 0 -833.5 346.5t-681.5 904.5q-50 -6 -90 -6q-41 0 -100 5zM877 1289l-64 -580q79 -13 146 -13q62 0 135 13q179 129 179 310q0 270 -396 270z" />
    <glyph glyph-name="f_i.swash.li" horiz-adv-x="1724" 
d="M1050 815l-81 -809q-27 -275 -83.5 -419t-182.5 -259q-185 -169 -415 -169q-46 0 -118 25l133 122q85 -28 154 -28q295 0 341 447l26 248l84 842h-452q-200 0 -273.5 -36t-73.5 -132q0 -60 48 -102l-115 -110q-42 45 -42 125q0 194 226 302q144 69 550 69h144l6 58
q36 370 213 576.5t457 206.5q53 0 119 -10l-140 -138q-75 29 -147 29q-172 0 -245 -119t-106 -456l-15 -147h613q-6 -18 -6 -22l-12 -53q-12 -53 -14 -64l-65 -455l-9 -64q-13 -95 -13 -127q0 -43 24 -43q85 0 173 188q27 -16 27 -32q0 -35 -86 -141q-118 -144 -217 -144
q-74 0 -74 98q0 30 7 83l11 80l13 88l70 492h-454zM1508 1086l85 207q112 46 184 127q10 -14 10 -29q0 -134 -279 -305z" />
    <glyph glyph-name="f_l.swash.li" horiz-adv-x="1840" 
d="M1050 815l-81 -809q-27 -275 -83.5 -419t-182.5 -259q-185 -169 -415 -169q-46 0 -118 25l133 122q85 -28 154 -28q295 0 341 447l26 248l84 842h-452q-200 0 -273.5 -36t-73.5 -132q0 -60 48 -102l-115 -110q-42 45 -42 125q0 194 226 302q144 69 550 69h144
q47 359 221.5 554.5t448.5 195.5q131 0 263 -49q187 140 345 140q60 0 99 -10l-146 -145q-46 16 -110 16q-150 0 -227.5 -105t-113.5 -358l-121 -838q-16 -109 -16 -154q0 -75 29 -75q37 0 89 60.5t77 130.5q28 -14 28 -34q0 -71 -112 -178.5t-186 -107.5q-78 0 -78 108
q0 66 13 161l14 89l100 696q39 270 181 466q-105 71 -268 71q-184 0 -266.5 -120t-113.5 -432l-8 -82h382l-120 -116h-274z" />
    <glyph glyph-name="t_h.swash.li" horiz-adv-x="2318" 
d="M922 931l20 182l148 49l-26 -231h432q36 348 172 539q215 301 504 301q50 0 96 -11l-147 -144q-56 17 -107 17q-298 0 -349 -464l-69 -617q117 176 257.5 290.5t240.5 114.5q97 0 97 -135q0 -40 -12 -123l-54 -373q-16 -111 -16 -177q0 -52 29 -52q70 0 169 184
q25 -15 25 -31q0 -65 -112 -170.5t-181 -105.5q-79 0 -79 113q0 81 21 226l35 242q17 119 17 189q0 77 -55 77q-128 0 -259.5 -173.5t-153.5 -372.5l-26 -240l-149 -61l3 28l8 74l8 70l74 669h-432l-49 -442q-13 -119 -13 -176q0 -113 77 -113q83 0 172 136q15 -19 15 -34
q0 -56 -99 -134t-169 -78q-142 0 -142 182q0 68 16 217l50 442h-453q-199 0 -272.5 -36t-73.5 -132q0 -60 48 -102l-115 -110q-43 45 -43 124q0 195 226 303q145 69 550 69h146z" />
    <glyph glyph-name="A.swash.lf" horiz-adv-x="2080" 
d="M1090 437h-416q-92 -235 -252 -334l207 -10l-109 -114l-398 14l132 120l101 -6q94 69 198 330h-110l149 104l21 57q120 325 199 441.5t233 195.5q-157 29 -331 29q-443 0 -443 -299q0 -103 48 -191l-158 -151q-40 107 -40 207q0 248 214 400q180 128 616 128q75 0 131 -3
q154 -10 159 -10h70q-79 -123 -79 -494l1 -52l4 -115l4 -53l3 -55q1 -6 3 -31h233q289 0 387 39t98 154q0 66 -53 99l127 114q41 -51 41 -116q0 -179 -193 -300q-96 -61 -197 -79.5t-336 -18.5h-95q25 -193 50.5 -251t84.5 -58q50 0 115 33q8 -18 8 -29q0 -24 -39 -42
l-47 -23l-247 -107q-52 161 -88 427zM1084 545q-14 176 -14 279q0 56 2 93l8 116q7 117 21 182q-195 -120 -321 -490q-36 -106 -43 -123l-23 -57h370z" />
    <glyph glyph-name="H.swash.lf" horiz-adv-x="2305" 
d="M1700 214q4 -18 4 -25q0 -30 -53 -54l-58 -27l-294 -134q0 185 48 629l4 36h-558l-10 -91l-13 -111q-17 -142 -61.5 -205t-170.5 -123l236 -15l-120 -116l-433 22l128 124l109 -12q79 51 109 127.5t52 284.5l77 700h-31q-416 0 -416 -275q0 -86 47 -173l-163 -156
q-23 78 -23 155q0 258 192 414t510 156h79q-45 -229 -54 -308l-31 -277h558l4 36q65 581 230 790q202 256 448 256q92 0 171 -32l-148 -145q-84 57 -167 57q-170 0 -234.5 -164.5t-131.5 -761.5l-4 -36h309q364 0 364 173q0 61 -47 103l118 118q29 -41 29 -112
q0 -169 -169 -298q-140 -105 -507 -105h-110l-8 -93q-18 -199 -18 -293q0 -85 73 -85q54 0 134 46z" />
    <glyph glyph-name="M.swash.wi.wf.lf" horiz-adv-x="2029" 
d="M2075 103q9 -12 9 -21q0 -33 -68 -49l-53 -13l-292 -60q-4 97 -4 177q0 530 44 895l-31 -46q-118 -174 -169 -263l-60 -103q-123 -212 -199 -409l-144 -150q-14 189 -149 531l-39 101q-8 18 -36 88q-57 138 -85 264l-81 -495q-36 -223 -75 -303.5t-138 -132.5l252 -19
l-128 -117l-427 22l129 124l113 -10q66 49 94 120t65 287l120 703h-47q-416 0 -416 -275q0 -86 47 -173l-163 -156q-23 78 -23 156q0 248 187.5 411.5t471.5 163.5q47 0 83 -4q24 -2 32 -2h13q-1 -29 -1 -42q0 -154 134 -496l45 -114q9 -24 29 -79l37 -104q30 -82 52 -163
l52 86q73 121 90 150l64 110l97 167l61 103q28 48 86 153l78 145l33 60q205 521 568 521q90 0 177 -32l-147 -146q-81 56 -163 56q-216 0 -280 -257q-64 -260 -64 -677l-13 -327l-3 -123q0 -156 20.5 -204.5t87.5 -48.5q71 0 127 20z" />
    <glyph glyph-name="N.swash.lf" horiz-adv-x="1807" 
d="M904 1345q59 -322 411 -849l125 -183l23 -35l80 639q63 497 231 697q192 228 424 228q87 0 172 -32l-148 -147q-91 53 -161 53q-155 0 -236 -143t-125 -496l-120 -960q249 -312 533 -485t550 -173q124 0 210.5 58t86.5 140q0 45 -31 87l136 120q31 -59 31 -107
q0 -151 -154.5 -263.5t-363.5 -112.5q-935 0 -1744 1633l-50 -454l-12 -108q-16 -134 -51.5 -196.5t-141.5 -141.5l221 -20l-119 -116l-435 22l129 124l111 -10q76 55 105 119t46 212l9 87l77 692h-47q-416 0 -416 -275q0 -86 47 -173l-162 -156q-24 78 -24 156
q0 246 186.5 410.5t466.5 164.5q39 0 73 -3q38 -3 48 -3h9z" />
    <glyph glyph-name="V.swash.wf.lf" horiz-adv-x="1414" 
d="M888 132l-175 -172q-40 318 -141 721q-87 343 -134.5 444.5t-123.5 101.5q-131 0 -189 -200q-37 8 -35 40q3 62 76 178q88 140 224 140q140 0 222 -197q77 -184 179 -669l45 -216q3 -10 15 -66q434 611 434 860q0 75 -44 127h-103l115 121h285l112 -1q254 0 254 173
q0 49 -49 98l116 114q35 -53 35 -104q0 -184 -150 -292.5t-403 -108.5q3 -32 3 -50q0 -87 -147 -338l-89 -153l-112 -173l-79 -126l-56 -90q-40 -66 -85 -162z" />
    <glyph glyph-name="W.swash.wf.lf" horiz-adv-x="1839" 
d="M1252 -44l-4 44q-20 210 -75 497l-12 60l-17 89q-19 97 -25 142l-19 137q-2 15 -10 70l-135 -268l-55 -109q-151 -296 -231 -493l-170 -165q17 120 17 359q0 476 -42.5 696t-135.5 220q-60 0 -116 -63t-70 -146q-41 9 -41 36q0 102 98.5 212.5t189.5 110.5
q92 0 139.5 -70.5t82.5 -259.5q53 -281 53 -648l1 -70l144 280l64 123l93 183q80 156 107 250l153 146q-7 -76 -7 -130q0 -170 69 -543l12 -65q3 -20 20 -104q21 -107 38 -222q144 222 249.5 471.5t105.5 365.5q0 78 -43 132h-105l117 121h284q364 0 364 174q0 54 -47 103
l114 116q34 -53 34 -112q0 -174 -155 -288t-391 -114h-27q3 -37 3 -56q0 -123 -112 -337q-58 -112 -94 -187q-61 -123 -76 -151l-52 -97q-73 -137 -129 -278z" />
    <glyph glyph-name="Y.swash.lf" horiz-adv-x="1321" 
d="M775 679q98 247 257 479t331 380l-76 32l-62 28q-71 30 -128 30q-106 0 -106 -110q0 -33 16 -68l-142 -80q-2 22 -2 33q0 121 104 214t241 93q118 0 254 -54l32 -12q260 198 474 198q150 0 150 -110q0 -103 -133 -181.5t-307 -78.5q-143 0 -245 40l-13 6
q-255 -240 -434.5 -541t-207.5 -533l-2 -21q-15 -125 -57.5 -183.5t-171.5 -131.5l310 -14l-117 -116l-545 22l140 124l122 -10q74 45 109.5 118t50.5 212l2 21q4 38 4 83q0 247 -102.5 478t-212.5 231q-83 0 -137 -126q-31 10 -31 39q0 61 81.5 138t146.5 77
q134 0 255 -210.5t152 -495.5zM1559 1622l53 -21q127 -49 218 -49q64 0 107.5 36t43.5 90q0 79 -96 79q-142 0 -326 -135z" />
    <glyph glyph-name="Z.swash.wi.li" horiz-adv-x="1207" 
d="M-287 1585l-145 -136q-7 46 -7 67q0 154 125 267t295 113q117 0 211.5 -47.5t248.5 -183.5l60 -52l120 -108q124 -109 205.5 -145.5t201.5 -36.5q134 0 192 62q25 -20 25 -42q0 -27 -55 -88q-11 -12 -51 -61l-855 -1031q64 7 113 7q51 0 149 -14l76 -11l130 -22
q102 -18 173 -18q175 0 223 134q38 -11 38 -30q0 -38 -61 -124q-86 -125 -227 -125q-45 0 -166 16l-92 12l-98 13q-89 13 -173 13q-141 0 -276 -54q-25 21 -25 43q0 31 48 91l48 59l859 1027q-33 -6 -56 -6q-236 0 -621 354l-60 55l-59 55q-205 187 -328 187
q-197 0 -197 -181q0 -26 11 -59z" />
    <glyph glyph-name="a.swash.lf" horiz-adv-x="1745" 
d="M715 397q-108 -186 -239 -304.5t-232 -118.5q-137 0 -137 221q0 295 197 522t452 227q92 0 170 -26q-4 -18 -5 -22l-10 -53q-10 -53 -12 -64l-40 -359q-10 -97 -12 -113l-9 -100q-5 -50 -5 -80v-10h34h17l66 1q19 0 101 -7l59 -4l65 -6q72 -6 125 -6q335 0 335 178
q0 48 -51 100l120 109q42 -45 42 -114q0 -152 -160.5 -266.5t-374.5 -114.5q-64 0 -125 4l-73 5q-73 4 -157 4q-3 0 -109 -7q-50 -4 -70 -4q0 60 19 232l13 120zM759 794q-74 51 -165 51q-135 0 -229 -173t-94 -422q0 -130 76 -130q85 0 208 136q164 183 192 430z" />
    <glyph glyph-name="d.swash.lf" horiz-adv-x="1745" 
d="M759 799q-84 46 -154 46q-148 0 -244 -168t-96 -427q0 -130 76 -130q92 0 216 136q161 175 190 430zM714 397q-68 -150 -220.5 -286.5t-251.5 -136.5q-141 0 -141 221q0 289 195 519t440 230q12 0 39 -2l10 86q36 320 218.5 532t420.5 212q57 0 98 -10l-142 -145
q-47 16 -111 16q-150 0 -224 -105t-102 -358l-84 -750q-10 -96 -12 -113l-9 -100q-5 -50 -5 -80v-10h34h17l66 1q19 0 101 -7l59 -4l65 -6q72 -6 125 -6q334 0 334 178q0 49 -50 100l120 109q42 -45 42 -113q0 -153 -160.5 -267.5t-374.5 -114.5q-64 0 -125 4l-73 5
q-72 4 -158 4q-2 0 -108 -7q-51 -4 -70 -4q0 59 19 232l12 120z" />
    <glyph glyph-name="e.swash.lf" horiz-adv-x="1546" 
d="M692 287q22 -22 22 -35q0 -31 -62 -104q-149 -174 -322 -174q-95 0 -161 81.5t-66 199.5q0 234 172 468t343 234q119 0 119 -125q0 -166 -205 -314q130 12 274 12h68l114 2h162q131 0 215.5 58t84.5 148q0 57 -56 93l102 107q51 -49 51 -110q0 -201 -214 -321
q-144 -80 -506 -80h-88q-216 0 -491 -49q17 -274 188 -274q150 0 256 183zM249 399l88 93q21 5 49 9q10 2 30 5q195 81 195 225q0 98 -112 98q-98 0 -174 -130t-76 -300z" />
    <glyph glyph-name="f.swash.lf" horiz-adv-x="1364" 
d="M423 815l-81 -809q-27 -275 -83.5 -419t-182.5 -259q-185 -169 -415 -169q-46 0 -118 25l133 122q85 -28 154 -28q295 0 341 447l26 248l84 842h-181l114 116h79l6 58q36 370 213 576.5t457 206.5q53 0 119 -10l-140 -138q-75 29 -147 29q-172 0 -245 -119t-106 -456
l-15 -147h396q240 0 331 37.5t91 136.5q0 62 -53 100l126 113q38 -55 38 -110q0 -181 -192 -298q-156 -95 -504 -95h-245z" />
    <glyph glyph-name="g.swash.lf" horiz-adv-x="1873" 
d="M767 794q-73 51 -181 51q-138 0 -232 -172t-94 -423q0 -130 77 -130q88 0 215 136q175 189 202 428zM722 393q-123 -187 -258 -303t-230 -116q-138 0 -138 218q0 306 198.5 529t469.5 223q115 0 174 -26q-5 -18 -6 -22l-12 -53q-12 -58 -13 -64l-41 -366l-16 -202
l-16 -179q-12 -134 -26 -208l62 3l226 5q338 0 555 -59.5t222 -152.5q2 -33 -38 -72l-44 -42q-7 -6 -23 -22q-48 125 -257 181.5t-627 56.5l-98 -1q-60 -238 -242 -400t-389 -162q-131 0 -215.5 61.5t-84.5 156.5q0 184 220 304t593 140q13 92 24 230q16 220 30 342z
M656 -279q-669 0 -669 -249q0 -88 80.5 -148t198.5 -60q323 0 390 457z" />
    <glyph glyph-name="h.swash.lf" horiz-adv-x="1790" 
d="M310 35l-149 -61l3 28l8 74l8 70l97 876q35 310 230 529.5t436 219.5q50 0 97 -11l-147 -144q-57 17 -108 17q-297 0 -349 -464l-69 -617q117 176 254.5 290.5t233.5 114.5q90 0 90 -126q0 -38 -11 -130l-31 -281q-11 -96 -12 -113l-9 -100q-5 -50 -5 -80v-10h34h17l66 1
q19 0 101 -7l59 -4l64 -6q73 -6 126 -6q334 0 334 178q0 49 -50 100l120 109q42 -45 42 -113q0 -153 -160.5 -267.5t-374.5 -114.5q-64 0 -125 4l-74 5q-72 4 -157 4q-2 0 -108 -7q-51 -4 -70 -4q0 59 18 232l13 120l24 216l7 54q12 89 12 141q0 70 -56 70q-121 0 -251 -177
t-152 -370z" />
    <glyph glyph-name="i.swash.lf" horiz-adv-x="1305" 
d="M390 1086l84 207q112 46 184 127q10 -14 10 -29q0 -134 -278 -305zM392 117h34h16l67 1q19 0 101 -7l59 -4l64 -6q72 -6 126 -6q334 0 334 178q0 49 -50 100l119 109q42 -45 42 -113q0 -153 -160 -267.5t-374 -114.5q-64 0 -125 4l-74 5q-72 4 -157 4q-2 0 -108 -7
q-51 -4 -70 -4q0 83 23 246l12 88l39 272l10 69l8 55q5 35 5 59q0 50 -28 50q-78 0 -168 -172q-19 17 -19 34q0 61 112.5 164t179.5 103q75 0 75 -104q0 -20 -8 -82l-9 -67q-1 -8 -11 -81l-41 -286l-10 -64q-3 -25 -6 -55l-6 -52l-2 -20v-17v-12z" />
    <glyph glyph-name="l.swash.lf" horiz-adv-x="1225" 
d="M313 117h34h17l66 1q19 0 101 -7l59 -4l65 -6q72 -6 125 -6q335 0 335 178q0 49 -50 100l119 109q42 -45 42 -113q0 -153 -160 -267.5t-374 -114.5q-65 0 -126 4l-73 5q-73 4 -157 4q-3 0 -109 -7q-50 -4 -70 -4q0 70 22 254l11 89l77 696q36 318 218.5 531t420.5 213
q58 0 98 -10l-142 -145q-47 16 -110 16q-150 0 -224.5 -105.5t-102.5 -357.5l-93 -838l-7 -65q-12 -108 -12 -150z" />
    <glyph glyph-name="m.swash.lf" horiz-adv-x="2319" 
d="M887 35l-148 -61l3 28l8 74l7 70l50 449l7 51q4 40 4 78q0 97 -59 97q-92 0 -214.5 -188t-141.5 -358l-26 -240l-149 -61l3 28l8 74l8 70l51 464l6 53q7 62 7 100q0 64 -32 64q-75 0 -162 -170q-23 19 -23 33q0 60 109.5 163.5t173.5 103.5q86 0 86 -110q0 -28 -5 -75
l-8 -81l-8 -68l-8 -71l28 44q224 361 417 361q93 0 93 -134q0 -23 -8 -97l-10 -92l-14 -125q94 195 221 321.5t229 126.5q84 0 84 -125q0 -39 -10 -131l-31 -281l-12 -113q-14 -130 -14 -190h34h17l66 1q19 0 101 -7l59 -4l64 -6q72 -6 126 -6q334 0 334 178q0 49 -50 100
l119 109q43 -45 43 -113q0 -153 -160.5 -267.5t-374.5 -114.5q-64 0 -125 4l-74 5q-72 4 -157 4q-2 0 -108 -7q-51 -4 -70 -4q0 47 9 141l9 91l13 120l24 216l7 54q12 90 12 145q0 67 -52 67q-90 0 -215 -190.5t-144 -357.5z" />
    <glyph glyph-name="a_e.swash.lf" horiz-adv-x="2170" 
d="M785 794q-91 51 -184 51q-140 0 -235 -171t-95 -424q0 -130 77 -130q89 0 215 136q170 183 206 430zM1155 518q130 12 274 12h68l115 2h161q132 0 216.5 58t84.5 148q0 57 -57 93l102 107q52 -49 52 -110q0 -201 -215 -321q-144 -80 -506 -80h-87q-217 0 -492 -49
q16 -274 189 -274q149 0 255 183q22 -22 22 -35q0 -31 -62 -104q-149 -174 -324 -174q-107 0 -172.5 81t-65.5 212q0 48 15 130q-113 -186 -248.5 -304.5t-235.5 -118.5q-137 0 -137 221q0 304 199.5 526.5t472.5 222.5q104 0 177 -26q-18 -63 -31 -139l-6 -32
q192 210 320 210q122 0 122 -125q0 -166 -206 -314zM873 399l87 93q22 5 50 9q9 2 29 5q195 81 195 225q0 98 -111 98q-99 0 -174.5 -130t-75.5 -300z" />
    <glyph glyph-name="n.swash.lf" horiz-adv-x="1867" 
d="M376 35l-149 -61l3 28l8 74l8 70l52 464l6 53q6 62 6 100q0 64 -32 64q-75 0 -161 -170q-23 19 -23 33q0 60 109.5 163.5t172.5 103.5q86 0 86 -110q0 -28 -5 -75l-8 -81l-8 -68l-8 -71q120 179 259.5 292t243.5 113q86 0 86 -126q0 -38 -10 -130l-31 -281
q-26 -235 -26 -303h33h17l66 1q19 0 102 -7l59 -4l64 -6q72 -6 125 -6q335 0 335 178q0 49 -50 100l119 109q42 -45 42 -113q0 -153 -160 -267.5t-374 -114.5q-64 0 -126 4l-73 5q-72 4 -157 4q-2 0 -109 -7q-50 -4 -70 -4q0 46 9 141l10 91l13 120l24 216l7 54
q12 91 12 141q0 70 -56 70q-88 0 -210 -123q-177 -179 -204 -424z" />
    <glyph glyph-name="p.swash.wi.lf.1" horiz-adv-x="1019" 
d="M267 799q-45 -34 -101 -81q-65 -55 -116 -88l8 80q166 98 371 286l-46 -463q106 186 238 305t232 119q144 0 144 -245q0 -294 -188.5 -509.5t-446.5 -215.5l-34 1l-4 -23q-62 -310 -237 -489q610 230 1033 230q297 0 297 -115q0 -51 -92 -119q-93 103 -299 103
q-527 0 -1435 -421l198 205q79 35 170 72l60 26q82 113 117 248t67 454zM343 137q81 -51 184 -51q136 0 221.5 160t85.5 414q0 150 -80 150q-90 0 -212 -136q-164 -182 -188 -429z" />
    <glyph glyph-name="q.swash.lf.nf" horiz-adv-x="993" 
d="M723 398q-116 -184 -252.5 -304t-229.5 -120q-132 0 -132 221q0 298 197.5 523.5t459.5 225.5q99 0 172 -26q-5 -18 -6 -21l-12 -54q-12 -55 -13 -64l-86 -779q-34 -304 -238 -522q605 229 1034 229q296 0 296 -114q0 -50 -92 -119q-93 103 -298 103q-532 0 -1436 -421
l198 205l59 25q45 19 111 47l61 25q83 124 112.5 237t67.5 464zM768 803q-67 42 -169 42q-137 0 -231.5 -172t-94.5 -423q0 -134 72 -130q79 4 221 149q98 99 135 180t53 234z" />
    <glyph glyph-name="r.swash.lf" horiz-adv-x="1321" 
d="M377 32l-148 -50l3 30l7 65l8 65l52 476l6 52q7 59 7 96q0 61 -34 61q-80 0 -159 -171q-25 19 -24 39q3 61 111.5 161.5t171.5 100.5q85 0 85 -112q0 -27 -5 -73l-7 -70l-9 -84l-9 -82q222 421 451 421q35 0 68 -7l47 -12l20 -5q79 -18 119 -18q99 0 164 52
q20 -12 20 -25q0 -19 -57 -85q-71 -82 -173 -82q-59 0 -151 20l-33 7q-62 13 -98 13q-132 0 -258 -167.5t-148 -371.5z" />
    <glyph glyph-name="t.swash.lf" horiz-adv-x="1361" 
d="M420 815l-50 -442q-13 -119 -13 -176q0 -113 77 -113q83 0 172 136q15 -19 15 -34q0 -56 -98.5 -134t-169.5 -78q-142 0 -142 182q0 67 17 217l49 442h-211l117 116h107l21 182l147 49l-25 -231h394q241 0 331.5 37.5t90.5 136.5q0 62 -52 100l126 113q37 -55 37 -110
q0 -181 -191 -298q-157 -95 -504 -95h-245z" />
    <glyph glyph-name="u.swash.lf" horiz-adv-x="1848" 
d="M817 393q-109 -175 -247.5 -297t-229.5 -122q-99 0 -99 132q0 49 13 161l36 328q1 7 5 58l6 65q3 29 3 52q0 58 -33 58q-76 0 -164 -171q-19 15 -19 32q0 62 110.5 165t175.5 103q83 0 83 -114q0 -27 -4 -63l-9 -77l-9 -84l-32 -286q-8 -73 -8 -148q0 -69 51 -69
q111 0 246.5 186.5t155.5 367.5l26 237l161 55q-26 -122 -35 -207l-38 -335q-26 -235 -26 -303h34h17l66 1q19 0 101 -7l59 -4l65 -6q72 -6 125 -6q334 0 334 178q0 49 -50 100l120 109q42 -45 42 -113q0 -153 -160.5 -267.5t-374.5 -114.5q-64 0 -125 4l-73 5q-73 4 -158 4
q-2 0 -108 -7q-50 -4 -70 -4q0 46 9 141l10 91l12 120z" />
    <glyph glyph-name="v.swash.wf.lf" horiz-adv-x="923" 
d="M827 1192l118 141q132 -66 132 -232q0 -209 -194 -509l-110 -166l-76 -118q-16 -24 -44 -71l-39 -67l-37 -61l-139 -135q-38 322 -124 584t-154 262q-76 0 -106 -151q-29 10 -29 33q0 76 65.5 164t123.5 91q217 11 345 -761q22 31 33 47l95 151l95 150q165 261 165 433
q0 153 -120 215z" />
    <glyph glyph-name="w.swash.wf.lf" horiz-adv-x="1285" 
d="M972 94l-120 -120q-14 180 -49 379l-17 94l-43 234l-47 -86q-128 -234 -216 -479l-153 -139q0 232 -33 441l-33 212q-28 181 -96 186q-76 6 -106 -151q-32 9 -32 40q0 76 71.5 164t131.5 88q88 0 138.5 -145t86.5 -498l6 -61q176 323 263 590l119 114q12 -135 23 -209
l24 -160l17 -112l44 -256q44 71 104 187l90 173q138 263 138 393q0 151 -127 215l114 144q146 -88 146 -243q0 -147 -105 -340l-93 -166l-84 -152l-47 -80l-40 -87l-47 -99q-8 -14 -28 -71z" />
    <glyph glyph-name="x.swash.wf.lf" horiz-adv-x="1026" 
d="M519 438l-31 82q-35 90 -36 94l-49 107q-51 115 -98 115q-71 0 -112 -133q-30 11 -30 32q0 62 72.5 142t128.5 80q112 0 232 -322l20 -53l23 37q213 338 359 338q38 0 89 -22l-121 -127q-24 7 -35 7q-109 0 -261 -253l-29 -48l23 -62q132 -363 217 -363q78 0 119 112
q28 -18 28 -37q0 -50 -80 -120t-138 -70q-116 0 -237 327l-28 74l-34 -53q-484 -736 -841 -736q-96 0 -168 44l120 142q66 -51 140 -51q138 0 351.5 196.5t379.5 477.5z" />
    <glyph glyph-name="y.swash.lf.nf.1" horiz-adv-x="1110" 
d="M839 398q-101 -184 -211.5 -304t-180.5 -120q-95 0 -106 202l-7 139l-12 283l-4 81q-8 161 -59 161q-78 0 -152 -148q-26 18 -26 39q0 54 97 140t158 86q63 0 89 -56.5t34 -208.5l18 -350q10 -200 64 -200q82 0 201.5 185.5t153.5 364.5l39 204l179 62q-35 -88 -71 -266
l-134 -671q-50 -250 -110 -378t-196 -272q607 229 1033 229q297 0 297 -114q0 -51 -92 -119q-92 103 -298 103q-530 0 -1436 -422l198 206q69 30 170 72l60 25q138 190 210 561z" />
    <glyph glyph-name="o_e.swash.lf" horiz-adv-x="2143" 
d="M704 207q-184 -233 -375 -233q-226 0 -226 298q0 240 176 462.5t365 222.5q184 0 225 -236q212 236 342 236q122 0 122 -125q0 -166 -205 -314q130 12 274 12h68l114 2h162q131 0 215.5 58t84.5 148q0 57 -56 93l102 107q52 -49 52 -110q0 -201 -215 -321
q-144 -80 -506 -80h-88q-216 0 -491 -49q16 -274 189 -274q149 0 255 183q22 -22 22 -35q0 -31 -62 -104q-149 -174 -321 -174q-183 0 -223 233zM449 86q115 0 192.5 128t77.5 319q0 312 -194 312q-114 0 -191.5 -128.5t-77.5 -318.5q0 -312 193 -312zM845 399l88 93
q22 5 49 9q10 2 30 5q195 81 195 225q0 98 -112 98q-98 0 -174 -130t-76 -300z" />
    <glyph glyph-name="f_y.swash.lf.nf" horiz-adv-x="1628" 
d="M1356 398q-101 -184 -211.5 -304t-179.5 -120q-106 0 -106 202l-6 137l-1 51l-3 108l-3 287v56h-404l-90 -816q-31 -275 -89 -418t-185 -257q-184 -165 -414 -165q-48 0 -121 26l135 121q87 -30 156 -30q293 0 343 443l29 248l94 848h-182l116 116h79l7 65
q41 368 217.5 571.5t452.5 203.5q62 0 128 -10l-141 -137q-78 31 -151 31q-170 0 -243.5 -118.5t-110.5 -452.5l-17 -153h535v-48l-2 -117v-135l1 -136l3 -106l1 -47q0 -200 65 -200q82 0 201.5 185.5t154.5 364.5l38 204l179 62q-35 -88 -71 -266l-134 -671
q-50 -250 -110 -378t-196 -272q607 229 1033 229q297 0 297 -114q0 -50 -92 -119q-93 103 -298 103q-530 0 -1436 -422l198 206q74 32 170 72l60 25q138 190 210 561z" />
    <glyph glyph-name="t_t.swash.lf" horiz-adv-x="1931" 
d="M990 815l-49 -442q-13 -119 -13 -175q0 -114 77 -114q83 0 172 136q15 -19 15 -34q0 -56 -98.5 -134t-169.5 -78q-142 0 -142 182q0 64 9 149l8 68l49 442h-428l-50 -442q-13 -119 -13 -176q0 -113 77 -113q83 0 172 136q15 -19 15 -34q0 -56 -98.5 -134t-169.5 -78
q-142 0 -142 182q0 67 17 217l49 442h-211l117 116h107l21 182l147 49l-25 -231h428l39 352l147 49l-44 -401h395q240 0 331 37.5t91 136.5q0 62 -53 100l126 113q38 -55 38 -111q0 -180 -192 -297q-156 -95 -504 -95h-245z" />
    <glyph glyph-name="t_y.swash.lf.nf" horiz-adv-x="1643" 
d="M1371 398q-102 -186 -212 -305t-180 -119q-106 0 -106 202l-5 137l-1 51l-3 108l-3 290v53h-441l-49 -442q-14 -119 -14 -176q0 -113 78 -113q83 0 171 136q15 -19 15 -34q0 -56 -98.5 -134t-168.5 -78q-142 0 -142 182q0 67 16 217l50 442h-212l117 116h107l21 182
l147 49l-25 -231h572v-48l-3 -117l1 -135l1 -136l3 -106l1 -47q0 -200 65 -200q81 0 201 185.5t154 364.5l39 204l178 62q-34 -87 -70 -266l-134 -671q-50 -250 -110 -378t-196 -272q607 229 1033 229q297 0 297 -114q0 -50 -93 -119q-92 103 -297 103q-532 0 -1436 -422
l198 206q79 34 170 72l60 25q137 189 210 561z" />
    <glyph glyph-name="ampersand.2" horiz-adv-x="1839" 
d="M1302 652q-39 -281 -267.5 -486.5t-501.5 -205.5q-171 0 -288 98t-117 241q0 294 385 486q-168 66 -168 231q0 151 126 260t299 109q121 0 233 -50l-40 -100l-13 -33l-18 -47q-14 -33 -43 -33q-8 0 -18 4q10 30 10 50q0 60 -59.5 100t-149.5 40q-86 0 -142 -62t-56 -157
q0 -222 322 -222q33 0 64 5l-131 -137q-27 -1 -39 -1q-52 0 -120 21q-257 -150 -257 -408q0 -133 94.5 -212.5t252.5 -79.5q214 0 361.5 171t147.5 418h-85q-227 0 -302 -46.5t-75 -185.5q0 -75 26 -124l-134 -126q-17 58 -17 126q0 162 104 286q91 108 228.5 149.5
t407.5 41.5h79q240 0 344.5 49t104.5 161q0 57 -44 115l110 113q39 -65 39 -128q0 -183 -180.5 -307t-446.5 -124h-26z" />
    <glyph glyph-name="A.1" horiz-adv-x="1565" 
d="M415 774l-158 -151q-40 107 -40 207q0 247 214 400q180 128 616 128q75 0 131 -3q154 -10 159 -10h70q-79 -122 -79 -494l1 -52l4 -115q0 -207 52 -424q20 -84 39 -108t66 -24q50 0 115 33q8 -17 8 -28q0 -25 -39 -43l-47 -23l-246 -107q-82 253 -99 530l-76 -53h-345
q-106 -232 -247.5 -355t-303.5 -123q-186 0 -242 196l130 105q20 -206 188 -206q123 0 208.5 110.5t213.5 435.5l33 84q101 257 178 368t205 185q-124 27 -317 27q-440 0 -440 -299q0 -103 48 -191zM1180 545q-14 166 -14 277q0 229 32 387q-174 -105 -298 -434l-67 -177
l-22 -53h369z" />
    <glyph glyph-name="E.1" horiz-adv-x="1497" 
d="M1495 1616l115 105q33 -45 33 -95q0 -389 -668 -389h-98l-53 -484h195q169 0 300 16q-114 -137 -230 -137q-65 0 -184 10q-49 3 -69 3h-24l-10 -87q-21 -190 -66.5 -270t-178.5 -161l219 -17l89 -8q94 -7 225 -7q221 0 368 143q17 -19 17 -36q0 -28 -107 -115
q-156 -127 -341 -127q-171 0 -492 29l-373 34q-19 1 -135 8l183 138q99 -17 238 -30q98 38 132 108t57 282l79 708h-35q-194 0 -304 -79.5t-110 -219.5q0 -81 46 -168l-162 -156q-24 80 -24 152q0 280 233 453q170 126 484 126h333q365 0 365 178q0 54 -47 93z" />
    <glyph glyph-name="F.1" horiz-adv-x="1436" 
d="M1489 1616l114 105q33 -44 33 -95q0 -389 -668 -389h-97l-65 -585h215q145 0 306 27q-117 -141 -223 -141l-84 2l-97 3l-77 2h-52l-49 -444q-29 -256 -195 -420.5t-397 -164.5q-263 0 -330 218l165 130q50 -261 283 -261q141 0 211 108.5t99 369.5l129 1156h-35
q-195 0 -305 -79.5t-110 -219.5q0 -82 47 -168l-163 -156q-23 77 -23 154q0 278 233 451q170 126 483 126h334q365 0 365 178q0 54 -47 93z" />
    <glyph glyph-name="G.1" horiz-adv-x="1356" 
d="M295 -421l149 118q92 -177 283 -177q144 0 207.5 90.5t91.5 332.5l19 173q-226 -157 -445 -157q-207 0 -333.5 153t-126.5 404q0 371 234 620t584 249q177 0 367 -67l-67 -147l-19 -43q-24 -51 -59 -51q-7 0 -21 3q14 31 14 51q0 67 -89.5 117t-208.5 50
q-249 0 -399 -195.5t-150 -518.5q0 -237 105 -370t293 -133q187 0 333 140l8 77l7 77q16 166 49 235l-38 4q-82 9 -128 9q-258 0 -258 -149q0 -39 31 -78l-117 -114q-18 36 -18 89q0 174 140 269.5t395 95.5q54 0 90 -3q33 -2 41 -2h28q-35 -83 -52 -233l-44 -396
q-23 -208 -59 -308.5t-118 -186.5q-164 -172 -392 -172q-210 0 -327 144z" />
    <glyph glyph-name="H.1" horiz-adv-x="1841" 
d="M402 776l-162 -156q-23 78 -23 155q0 261 192.5 415.5t517.5 154.5h155q-117 -120 -156 -468l-13 -117h558l4 36q65 581 230 790q201 256 447 256q93 0 172 -32l-149 -145q-83 57 -166 57q-170 0 -235 -166t-131 -760l-15 -136q-29 -259 -29 -409q0 -83 73 -83
q54 0 134 46q5 -18 5 -25q0 -30 -54 -54l-57 -27l-295 -134q0 185 49 629l3 36h-558l-10 -95q-29 -256 -195 -420.5t-396 -164.5q-263 0 -330 219l164 130q50 -261 283 -261q141 0 211 108t99 370l42 369q25 232 101 330h-97q-415 0 -415 -275q0 -86 46 -173z" />
    <glyph glyph-name="I.1" horiz-adv-x="931" 
d="M-182 -266l164 130q50 -261 284 -261q140 0 210.5 108.5t99.5 369.5l90 813q26 232 101 330h-96q-415 0 -415 -276q0 -86 46 -172l-162 -156q-24 78 -24 155q0 261 193 415.5t517 154.5h156q-118 -119 -157 -468l-86 -776q-28 -256 -194.5 -420.5t-396.5 -164.5
q-264 0 -330 218z" />
    <glyph glyph-name="K.1" horiz-adv-x="1737" 
d="M-32 178l164 130q50 -261 283 -261q141 0 211 108t99 370l42 369q25 232 101 330h-97q-415 0 -415 -275q0 -86 46 -173l-162 -156q-23 78 -23 155q0 261 192.5 415.5t517.5 154.5h155q-118 -121 -156 -468l-15 -139q464 603 768 603q75 0 142 -20l-129 -140
q-57 33 -126 33q-128 0 -268 -122t-229 -311q95 -184 220 -352l107 -146q109 -147 169 -147q80 0 147 117q28 -23 28 -38q0 -59 -88 -143t-149 -84q-109 0 -309 284q-184 262 -283 465l-22 -193q-29 -256 -195 -420.5t-396 -164.5q-263 0 -330 219z" />
    <glyph glyph-name="M.1" horiz-adv-x="2130" 
d="M-32 177l164 129q15 -114 89.5 -185t178.5 -71q135 0 199 98.5t109 379.5l66 406q31 194 94 290h-91q-415 0 -415 -275q0 -87 47 -173l-163 -156q-23 78 -23 156q0 248 187 411.5t472 163.5q47 0 83 -4q24 -2 32 -2h13q-1 -30 -1 -44q0 -152 134 -494l44 -114
q10 -24 29 -79l38 -104q29 -80 52 -163l52 86l90 150q20 35 64 110l97 169q14 24 77 140l92 168l51 94l193 121q-64 -368 -64 -599l-13 -327l-3 -124q0 -156 20 -204t87 -48q72 0 127 20q10 -12 10 -21q0 -33 -68 -49l-53 -13l-292 -60q-4 96 -4 177q0 531 44 895l-31 -46
q-117 -173 -169 -263l-60 -103q-121 -209 -199 -409l-144 -150q-14 191 -149 531l-40 101q-8 22 -35 88q-57 137 -86 264l-80 -494q-55 -336 -196 -462q-147 -130 -332 -130q-268 0 -324 218z" />
    <glyph glyph-name="N.1" horiz-adv-x="1887" 
d="M912 996l-51 -455q-30 -271 -180.5 -426t-382.5 -155q-263 0 -330 218l164 130q51 -263 289 -263q251 0 304 484l40 362l7 67q19 181 69 266h-86q-415 0 -415 -275q0 -87 46 -173l-162 -156q-24 78 -24 156q0 246 187 410.5t466 164.5q39 0 73 -3q38 -3 48 -3h11
q-4 -35 -4 -51q0 -217 250 -499l94 -107q156 -177 232 -301l66 530q61 497 230 697q193 228 424 228q88 0 172 -32l-147 -147q-92 53 -161 53q-156 0 -236.5 -142.5t-125.5 -496.5l-106 -847l-126 -260q-46 184 -98 280t-206 282l-77 93q-197 236 -254 371z" />
    <glyph glyph-name="P.1" horiz-adv-x="1465" 
d="M810 1282l-38 -7q-417 -81 -417 -337q0 -101 44 -182l-161 -142q-21 78 -21 156q0 272 231 443.5t597 171.5q493 0 493 -322q0 -205 -183.5 -349.5t-464.5 -161.5v-8q-27 -254 -194.5 -419.5t-397.5 -165.5q-263 0 -330 219l165 130q50 -261 283 -261q140 0 210.5 108
t99.5 370zM973 1294l-71 -638q56 -10 98 -10q383 0 383 335q0 313 -410 313z" />
    </font>
</defs>
</svg>
